<svg xmlns="http://www.w3.org/2000/svg" viewBox="0 0 40.09 31.18"><defs><style>.cls-1{fill:#4070ff;}</style></defs><title>Asset 43</title><g id="Layer_2" data-name="Layer 2"><g id="define_a_class" data-name="define a class"><path class="cls-1" d="M35.64,0H4.45A4.45,4.45,0,0,0,0,4.45V26.73a4.45,4.45,0,0,0,4.45,4.45H35.64a4.46,4.46,0,0,0,4.45-4.45V4.45A4.45,4.45,0,0,0,35.64,0ZM11.14,23.68a.54.54,0,0,1-.48.26H7.3a.53.53,0,0,1-.48-.26.58.58,0,0,1,0-.57L8.5,20.32A.56.56,0,0,1,9,20a.57.57,0,0,1,.48.28l1.67,2.79A.55.55,0,0,1,11.14,23.68Zm0-6.69a.53.53,0,0,1-.48.27H7.3A.52.52,0,0,1,6.82,17a.56.56,0,0,1,0-.56l1.68-2.8A.57.57,0,0,1,9,13.36a.59.59,0,0,1,.48.27l1.67,2.8A.54.54,0,0,1,11.14,17Zm0-6.47a.53.53,0,0,1-.48.27H7.3a.52.52,0,0,1-.48-.27.56.56,0,0,1,0-.56L8.5,7.16A.55.55,0,0,1,9,6.89a.56.56,0,0,1,.48.27L11.13,10A.54.54,0,0,1,11.14,10.52Zm20,13.42H15.59a1.67,1.67,0,1,1,0-3.34H31.18a1.67,1.67,0,1,1,0,3.34Zm0-6.68H15.59a1.67,1.67,0,1,1,0-3.34H31.18a1.67,1.67,0,1,1,0,3.34Zm0-6.68H15.59a1.67,1.67,0,0,1,0-3.34H31.18a1.67,1.67,0,1,1,0,3.34Z"/></g></g></svg>