<svg xmlns="http://www.w3.org/2000/svg" viewBox="0 0 36.47 36.47"><defs><style>.cls-1{fill:#4070ff;}</style></defs><title>Asset 44</title><g id="Layer_2" data-name="Layer 2"><g id="define_a_function" data-name="define a function"><circle class="cls-1" cx="11.45" cy="14.66" r="2.06"/><circle class="cls-1" cx="24.52" cy="22.27" r="2.06"/><path class="cls-1" d="M18.24,0A18.24,18.24,0,1,0,36.47,18.24,18.23,18.23,0,0,0,18.24,0ZM16.16,19.36,14.94,19a5.62,5.62,0,0,1-1.56.9l-.3,1.25a.87.87,0,0,1-.76.77,7.68,7.68,0,0,1-1.75,0,.92.92,0,0,1-.8-.77l-.3-1.25A6,6,0,0,1,8,19l-1.21.4a1,1,0,0,1-1.07-.31,6.9,6.9,0,0,1-.42-.63l-.13-.23a6.77,6.77,0,0,1-.33-.66,1,1,0,0,1,.27-1.08l1-.85a5.27,5.27,0,0,1-.11-.94A5.48,5.48,0,0,1,6,13.8l-1-.85a1,1,0,0,1-.27-1.07,4.18,4.18,0,0,1,.33-.67L5.25,11a6.9,6.9,0,0,1,.42-.63,1,1,0,0,1,1.07-.3l1.21.4a5.75,5.75,0,0,1,1.52-.9l.3-1.25a.91.91,0,0,1,.8-.77,6.41,6.41,0,0,1,1.75,0,.86.86,0,0,1,.76.77l.3,1.25a5.38,5.38,0,0,1,1.56.9l1.22-.4a1,1,0,0,1,1.06.3c.15.2.25.41.42.63l.13.23c.12.22.23.44.33.67A1,1,0,0,1,17.83,13l-.95.85a5.24,5.24,0,0,1,.07.86,5.45,5.45,0,0,1-.07.94l.95.85a1,1,0,0,1,.27,1.08c-.1.19-.21.45-.33.66l-.13.24c-.17.21-.27.42-.42.62A1,1,0,0,1,16.16,19.36Zm14.77,4.55-1.25.3a5.57,5.57,0,0,1-.9,1.55l.4,1.22A.93.93,0,0,1,28.87,28c-.2.15-.41.26-.62.43L28,28.6c-.21.12-.47.23-.66.33a1,1,0,0,1-1.08-.27l-.85-1a5.29,5.29,0,0,1-.9.08,5.47,5.47,0,0,1-.9-.08l-.85,1a1,1,0,0,1-1.07.27A7,7,0,0,1,21,28.6l-.23-.13c-.22-.17-.42-.28-.63-.43a.94.94,0,0,1-.3-1.06l.4-1.22a5.36,5.36,0,0,1-.91-1.55l-1.24-.3a.88.88,0,0,1-.77-.76,7.77,7.77,0,0,1,0-1.76.92.92,0,0,1,.77-.8l1.24-.29a5.63,5.63,0,0,1,.91-1.52l-.4-1.22a.94.94,0,0,1,.3-1.06,4.7,4.7,0,0,1,.63-.43l.23-.13a4.18,4.18,0,0,1,.67-.32,1,1,0,0,1,1.07.26l.85,1a5.46,5.46,0,0,1,.9-.07,5.29,5.29,0,0,1,.9.07l.85-1a.94.94,0,0,1,1.08-.26,6.72,6.72,0,0,1,.66.32l.23.13a3.7,3.7,0,0,1,.63.43.93.93,0,0,1,.31,1.06l-.4,1.22a5.86,5.86,0,0,1,.9,1.52l1.25.29a.92.92,0,0,1,.77.8,7.77,7.77,0,0,1,0,1.76A.88.88,0,0,1,30.93,23.91Z"/></g></g></svg>