<svg xmlns="http://www.w3.org/2000/svg" viewBox="0 0 39.01 36.29"><defs><style>.cls-1{fill:#4070ff;}</style></defs><title>Asset 40</title><g id="Layer_2" data-name="Layer 2"><g id="call_a_function" data-name="call a function"><path class="cls-1" d="M38.87,15.78a2.48,2.48,0,0,0-2.08-2.16L34.07,13A15.56,15.56,0,0,0,31.2,8.05l.86-2.62a2.53,2.53,0,0,0-.82-2.86,9.43,9.43,0,0,0-1.7-1.15l-.61-.35a16.65,16.65,0,0,0-1.8-.88,2.53,2.53,0,0,0-2.9.72L22.39,3a15.23,15.23,0,0,0-2.89-.28A15.39,15.39,0,0,0,16.61,3L14.78.91a2.61,2.61,0,0,0-2.9-.72,10.77,10.77,0,0,0-1.8.88l-.62.35A9,9,0,0,0,7.77,2.57a2.52,2.52,0,0,0-.83,2.86L7.8,8.05A15.53,15.53,0,0,0,4.94,13l-2.72.65A2.48,2.48,0,0,0,.14,15.78,20.66,20.66,0,0,0,0,18.15a20.35,20.35,0,0,0,.14,2.36,2.37,2.37,0,0,0,2.08,2.06l2.68.64a15.57,15.57,0,0,0,2.9,5l-.86,2.62a2.54,2.54,0,0,0,.83,2.87c.54.4,1.1.68,1.68,1.13l.63.36a18.81,18.81,0,0,0,1.8.89,2.64,2.64,0,0,0,2.9-.72l1.83-2.06a16.27,16.27,0,0,0,2.89.27,16.09,16.09,0,0,0,2.89-.27l1.84,2.06a2.56,2.56,0,0,0,2.9.72c.51-.27,1.22-.56,1.8-.89l.63-.36c.58-.45,1.13-.73,1.68-1.13a2.55,2.55,0,0,0,.82-2.87l-.86-2.62a15.41,15.41,0,0,0,2.91-5l2.68-.64a2.37,2.37,0,0,0,2.08-2.06A20.35,20.35,0,0,0,39,18.15,20.66,20.66,0,0,0,38.87,15.78Zm-21.36,3.1h-2a12.7,12.7,0,0,1-1.15,4.22c-1,2-2.45,3.12-4.12,3.12a1.75,1.75,0,0,1,0-3.49c.11,0,.55-.28,1-1.18A8.85,8.85,0,0,0,12,18.88H10.23a1.75,1.75,0,0,1,0-3.49h2a12.81,12.81,0,0,1,1.14-4.21c1-2,2.46-3.13,4.12-3.13a1.75,1.75,0,0,1,0,3.5c-.11,0-.54.27-1,1.17a8.94,8.94,0,0,0-.76,2.67h1.77a1.75,1.75,0,1,1,0,3.49ZM22,24.58A.75.75,0,0,1,21.68,26a.86.86,0,0,1-.27-.05c-1.38-.56-2-2.8-2-4.78s.62-4.23,2-4.78A.75.75,0,1,1,22,17.8c-.43.17-1.06,1.48-1.06,3.39S21.53,24.41,22,24.58ZM27.86,23a.69.69,0,0,1-.49,1.18.71.71,0,0,1-.49-.2l-1.43-1.43L24,24a.71.71,0,0,1-.49.2A.69.69,0,0,1,23,23l1.43-1.43L23,20.11a.69.69,0,0,1,1-1l1.43,1.43,1.43-1.43a.69.69,0,0,1,1,1l-1.43,1.43Zm1.63,3a.86.86,0,0,1-.27.05.75.75,0,0,1-.28-1.44c.43-.17,1.06-1.48,1.06-3.39S29.37,18,28.94,17.8a.75.75,0,1,1,.55-1.39c1.38.55,2,2.8,2,4.78S30.87,25.41,29.49,26Z"/></g></g></svg>