<svg xmlns="http://www.w3.org/2000/svg" viewBox="0 0 39.01 36.29"><defs><style>.cls-1{fill:#4070ff;}</style></defs><title>Asset 17</title><g id="Layer_2" data-name="Layer 2"><g id="call_ibatis_rule" data-name="call ibatis rule"><path class="cls-1" d="M23.8,19.1a2.25,2.25,0,0,0-1.5-.48H19.88v3.5h2.48a2.19,2.19,0,0,0,1.47-.45,1.54,1.54,0,0,0,.53-1.26A1.63,1.63,0,0,0,23.8,19.1Z"/><path class="cls-1" d="M23.57,16.71a1.45,1.45,0,0,0,.5-1.18,1.5,1.5,0,0,0-.5-1.19,2.16,2.16,0,0,0-1.41-.43H19.88v3.21h2.28A2.21,2.21,0,0,0,23.57,16.71Z"/><path class="cls-1" d="M38.87,15.78a2.48,2.48,0,0,0-2.08-2.16L34.07,13A15.56,15.56,0,0,0,31.2,8.05l.86-2.62a2.53,2.53,0,0,0-.82-2.86,9.43,9.43,0,0,0-1.7-1.15l-.61-.35a16.65,16.65,0,0,0-1.8-.88,2.53,2.53,0,0,0-2.9.72L22.39,3a15.23,15.23,0,0,0-2.89-.28A15.39,15.39,0,0,0,16.61,3L14.78.91a2.61,2.61,0,0,0-2.9-.72,10.77,10.77,0,0,0-1.8.88l-.62.35A9,9,0,0,0,7.77,2.57a2.52,2.52,0,0,0-.83,2.86L7.8,8.05A15.53,15.53,0,0,0,4.94,13l-2.72.65A2.48,2.48,0,0,0,.14,15.78,20.66,20.66,0,0,0,0,18.15a20.35,20.35,0,0,0,.14,2.36,2.37,2.37,0,0,0,2.08,2.06l2.68.64a15.57,15.57,0,0,0,2.9,5l-.86,2.62a2.54,2.54,0,0,0,.83,2.87c.54.4,1.1.68,1.68,1.13l.63.36a18.81,18.81,0,0,0,1.8.89,2.64,2.64,0,0,0,2.9-.72l1.83-2.06a16.27,16.27,0,0,0,2.89.27,16.09,16.09,0,0,0,2.89-.27l1.84,2.06a2.56,2.56,0,0,0,2.9.72c.51-.27,1.22-.56,1.8-.89l.63-.36c.58-.45,1.13-.73,1.68-1.13a2.55,2.55,0,0,0,.82-2.87l-.86-2.62a15.41,15.41,0,0,0,2.91-5l2.68-.64a2.37,2.37,0,0,0,2.08-2.06A20.35,20.35,0,0,0,39,18.15,20.66,20.66,0,0,0,38.87,15.78ZM15.63,23.62H13.79V14.74h1.84Zm-.09-10.4a1.08,1.08,0,0,1-.82.34,1.14,1.14,0,0,1-.84-.34,1.18,1.18,0,0,1,.84-2,1.12,1.12,0,0,1,.82.34,1.21,1.21,0,0,1,0,1.68Zm10.22,8.92a3,3,0,0,1-1.28,1.08,4.44,4.44,0,0,1-1.95.4H18V12.41h4.28a4.51,4.51,0,0,1,2,.39,2.93,2.93,0,0,1,1.24,1,2.65,2.65,0,0,1,.42,1.46,2.52,2.52,0,0,1-.51,1.61,3,3,0,0,1-1.39.95,2.52,2.52,0,0,1,1.53.95,2.88,2.88,0,0,1,.19,3.33Z"/></g></g></svg>