<?xml version="1.0" encoding="UTF-8" standalone="no"?>
<svg
   xmlns:dc="http://purl.org/dc/elements/1.1/"
   xmlns:cc="http://creativecommons.org/ns#"
   xmlns:rdf="http://www.w3.org/1999/02/22-rdf-syntax-ns#"
   xmlns:svg="http://www.w3.org/2000/svg"
   xmlns="http://www.w3.org/2000/svg"
   id="svg4"
   version="1.1"
   viewBox="0 0 512 512">
  <metadata
     id="metadata10">
    <rdf:RDF>
      <cc:Work
         rdf:about="">
        <dc:format>image/svg+xml</dc:format>
        <dc:type
           rdf:resource="http://purl.org/dc/dcmitype/StillImage" />
        <dc:title></dc:title>
      </cc:Work>
    </rdf:RDF>
  </metadata>
  <defs
     id="defs8" />
  <!--! Font Awesome Pro 6.2.1 by @fontawesome - https://fontawesome.com License - https://fontawesome.com/license (Commercial License) Copyright 2022 Fonticons, Inc. -->
  <path
     style="stroke-width:0.56340605"
     id="path2"
     d="m 39.050848,36.881356 c -20.342373,0 -36.8813562,15.808767 -36.8813562,35.253001 V 230.77286 c 0,19.44423 16.5389832,35.25299 36.8813562,35.25299 h 55.322033 v 44.06626 c 0,3.36005 1.95932,6.3896 5.07119,7.87684 3.111859,1.48723 6.857619,1.15674 9.681349,-0.82624 l 71.28474,-51.11686 32.2,-2.16949 84.61018,-80.81231 V 72.134357 c 0,-19.444234 -16.53899,-35.253001 -36.88136,-35.253001 z" />
  <path
     style="stroke-width:0.660887"
     id="path2-3"
     d="m 355.52542,147.53645 -186.30509,173.82954 -2.16949,52.19903 c -0.95031,22.8649 19.33603,41.49055 43.11865,41.49055 h 64.67796 v 51.8632 c 0,3.95457 2.29067,7.52016 5.92881,9.27055 3.63814,1.75038 8.01737,1.36141 11.31864,-0.97244 l 83.34026,-60.16131 h 93.44619 c 23.78262,0 43.11864,-18.60591 43.11864,-41.49055 V 186.85751 c 0,-22.88463 -19.34301,-40.91417 -43.11864,-41.49055 z" />
</svg>
