<svg xmlns="http://www.w3.org/2000/svg" viewBox="0 0 41.83 31.37"><defs><style>.cls-1{fill:#4070ff;}</style></defs><title>Asset 4</title><g id="Layer_2" data-name="Layer 2"><g id="render_template_region" data-name="render template region"><path class="cls-1" d="M36.6,0H5.23A5.23,5.23,0,0,0,0,5.23V26.15a5.22,5.22,0,0,0,5.23,5.22H36.6a5.22,5.22,0,0,0,5.23-5.22V5.23A5.22,5.22,0,0,0,36.6,0ZM5.23,7.84A2.61,2.61,0,0,1,7.84,5.23H34A2.61,2.61,0,0,1,36.6,7.84v5.23A2.62,2.62,0,0,1,34,15.69H7.84a2.62,2.62,0,0,1-2.61-2.62ZM15.72,20.92H25.2v3.92H15.72ZM6.54,24.84a1.3,1.3,0,0,1-1.31-1.31V22.22a1.3,1.3,0,0,1,1.31-1.3H13v3.92H6.54Zm30.11-1.31a1.31,1.31,0,0,1-1.3,1.31H27.93V20.92h7.42a1.3,1.3,0,0,1,1.3,1.3Z"/><path class="cls-1" d="M24,9.42H17.8a1,1,0,0,0-1,1V12a.52.52,0,0,0,.51.52h.52v1.55a.52.52,0,0,0,.52.52h5.19a.52.52,0,0,0,.52-.52V12.54h.52a.52.52,0,0,0,.52-.52V10.46A1,1,0,0,0,24,9.42Zm-1,4.15H18.84V12H23Zm.78-2.46a.4.4,0,0,1-.39-.39.39.39,0,0,1,.39-.39.38.38,0,0,1,.39.39A.39.39,0,0,1,23.77,11.11ZM18.84,7.35h3.72l.43.43V8.9h1V7.56a.56.56,0,0,0-.15-.37l-.74-.73a.49.49,0,0,0-.36-.15H18.32a.52.52,0,0,0-.52.52V8.9h1Z"/></g></g></svg>