<?xml version="1.0" encoding="UTF-8" standalone="no"?>
<svg
   xmlns:dc="http://purl.org/dc/elements/1.1/"
   xmlns:cc="http://creativecommons.org/ns#"
   xmlns:rdf="http://www.w3.org/1999/02/22-rdf-syntax-ns#"
   xmlns:svg="http://www.w3.org/2000/svg"
   xmlns="http://www.w3.org/2000/svg"
   id="svg4"
   version="1.1"
   viewBox="0 0 640 512">
  <metadata
     id="metadata10">
    <rdf:RDF>
      <cc:Work
         rdf:about="">
        <dc:format>image/svg+xml</dc:format>
        <dc:type
           rdf:resource="http://purl.org/dc/dcmitype/StillImage" />
        <dc:title></dc:title>
      </cc:Work>
    </rdf:RDF>
  </metadata>
  <defs
     id="defs8" />
  <!--! Font Awesome Pro 6.2.1 by @fontawesome - https://fontawesome.com License - https://fontawesome.com/license (Commercial License) Copyright 2022 Fonticons, Inc. -->
  <path
     id="path2"
     d="M 144,160 C 99.8,160 64,124.2 64,80 64,35.8 99.8,0 144,0 c 44.2,0 80,35.8 80,80 0,44.2 -35.8,80 -80,80 z m 368,0 c -44.2,0 -80,-35.8 -80,-80 0,-44.2 35.8,-80 80,-80 44.2,0 80,35.8 80,80 0,44.2 -35.8,80 -80,80 z M 0,298.7 C 0,239.8 47.8,192 106.7,192 h 42.7 c 15.9,0 31,3.5 44.6,9.7 -1.3,7.2 -1.9,14.7 -1.9,22.3 0,38.2 16.8,72.5 43.3,96 H 234.7 21.3 C 9.6,320 0,310.4 0,298.7 Z M 405.3,320 h -0.7 c 26.6,-23.5 43.3,-57.8 43.3,-96 0,-7.6 -0.7,-15 -1.9,-22.3 13.6,-6.3 28.7,-9.7 44.6,-9.7 h 42.7 c 0,0 116.24092,-7.62779 78.49661,35.10678 L 529.75085,320 Z M 416,224 c 0,53 -43,96 -96,96 -53,0 -96,-43 -96,-96 0,-53 43,-96 96,-96 53,0 96,43 96,96 z M 128,485.3 C 128,411.7 187.71807,350.36898 261.3,352 l 97.87458,2.16949 c 41.04754,0.90986 85.57119,68.21526 85.57119,68.21526 L 374.65594,514.16949 154.7,512 C 140.00071,511.85502 128,500.1 128,485.3 Z" />
  <path
     d="m 563.41797,332.49042 45.5686,55.87194 -98.9502,121.32357 -40.6281,5.49903 c -5.4389,0.73757 -10.0342,-4.90111 -9.4291,-11.56978 l 4.5206,-49.84921 z m 73.7527,-8.31839 -21.3961,-26.23388 c -6.6741,-8.1831 -17.4985,-8.1831 -24.1725,0 l -20.1289,24.68019 45.5686,55.87196 20.1289,-24.68021 c 6.674,-8.18745 6.674,-21.45497 0,-29.63806 z"
     id="path2-3"
     style="stroke-width:0.39414126" />
</svg>
