<svg xmlns="http://www.w3.org/2000/svg" viewBox="0 0 31.53 31.18"><defs><style>.cls-1{fill:#4070ff;}</style></defs><title>Asset 30</title><g id="Layer_2" data-name="Layer 2"><g id="return"><path class="cls-1" d="M26,0H5.57A5.57,5.57,0,0,0,0,5.57v20a5.57,5.57,0,0,0,5.57,5.57H26a5.57,5.57,0,0,0,5.57-5.57v-20A5.57,5.57,0,0,0,26,0Zm.6,18.22a1.92,1.92,0,0,1-1.91,1.92H11.48l1.36,1.36a1.92,1.92,0,0,1-1.35,3.27,2,2,0,0,1-1.36-.56L5.53,19.6a1.9,1.9,0,0,1,0-2.7l0,0h0l4.57-4.58A1.92,1.92,0,0,1,12.84,15l-1.31,1.31h11.2v-8a1.92,1.92,0,1,1,3.83,0Z"/></g></g></svg>