<svg xmlns="http://www.w3.org/2000/svg" viewBox="0 0 36.47 36.47"><defs><style>.cls-1{fill:#4070ff;}</style></defs><title>Asset 18</title><g id="Layer_2" data-name="Layer 2"><g id="execute_db_DAO_action" data-name="execute db DAO action"><path class="cls-1" d="M18.24,0A18.24,18.24,0,1,0,36.47,18.24,18.23,18.23,0,0,0,18.24,0Zm-7.1,12.66c0-1.4,3.17-2.54,7.1-2.54s7.09,1.14,7.09,2.54v1.52c0,1.4-3.17,2.53-7.09,2.53s-7.1-1.13-7.1-2.53ZM19.61,26.3c-.45,0-.91.05-1.37.05-3.93,0-7.1-1.14-7.1-2.54V21.09a6.29,6.29,0,0,0,1.73.91,16.74,16.74,0,0,0,5.37.8,19.56,19.56,0,0,0,2.06-.11,5.87,5.87,0,0,0-.74,2.85A6.33,6.33,0,0,0,19.61,26.3Zm1.51-4.73a18.56,18.56,0,0,1-2.88.21c-3.93,0-7.1-1.13-7.1-2.53V16a6.29,6.29,0,0,0,1.73.91,16.74,16.74,0,0,0,5.37.8,16.77,16.77,0,0,0,5.36-.8A6.75,6.75,0,0,0,25.33,16v3.23a.93.93,0,0,1-.11.45A5.82,5.82,0,0,0,21.12,21.57Zm7.22,4.77H26.21v2.14a.81.81,0,0,1-1.61,0V26.34H22.46a.8.8,0,0,1,0-1.6H24.6V22.6a.81.81,0,0,1,1.61,0v2.14h2.13a.8.8,0,1,1,0,1.6Z"/></g></g></svg>