<svg xmlns="http://www.w3.org/2000/svg" viewBox="0 0 36.47 36.47"><defs><style>.cls-1{fill:#4070ff;}</style></defs><title>Asset 36</title><g id="Layer_2" data-name="Layer 2"><g id="for_loop" data-name="for loop"><path class="cls-1" d="M18.24,0A18.24,18.24,0,1,0,36.47,18.24,18.23,18.23,0,0,0,18.24,0Zm8.67,26.2A11.34,11.34,0,0,1,7.63,16.8L5.11,19.31A1.62,1.62,0,0,1,2.82,17L8,11.86a1.61,1.61,0,0,1,2.29,0L15.44,17a1.62,1.62,0,0,1-2.3,2.29L10.87,17A8.1,8.1,0,0,0,24.61,23.9a8,8,0,0,0,2.24-4.29h0A8.74,8.74,0,0,0,25.15,13a6,6,0,0,0-.54-.6A8.07,8.07,0,0,0,23,11.17,7.69,7.69,0,0,0,15.6,11a1.63,1.63,0,0,1-2.18-.71,1.55,1.55,0,0,1,.74-2.15A11,11,0,0,1,20.33,7l.16,0h.1a11,11,0,0,1,6.35,3.14,9.36,9.36,0,0,1,.73.81A11.38,11.38,0,0,1,26.91,26.2Z"/></g></g></svg>