<svg xmlns="http://www.w3.org/2000/svg" viewBox="0 0 31.32 31.32"><defs><style>.cls-1{fill:#4070ff;}</style></defs><title>Asset 29</title><g id="Layer_2" data-name="Layer 2"><g id="die_stop_script_" data-name="die (stop script)"><path class="cls-1" d="M30.42,8.28,23,.9A3,3,0,0,0,20.88,0H10.44A3,3,0,0,0,8.28.9L.9,8.28A3,3,0,0,0,0,10.44V20.88A3,3,0,0,0,.9,23l7.38,7.38a3,3,0,0,0,2.16.9H20.88a3,3,0,0,0,2.16-.9L30.42,23a3,3,0,0,0,.9-2.16V10.44A3,3,0,0,0,30.42,8.28Zm-7.2,10.11a6,6,0,0,1-6,6H15.93a6.75,6.75,0,0,1-4.82-2L7.25,18.53a1.32,1.32,0,0,1-.4-1,1.36,1.36,0,0,1,2.33-1l2,2V9.11a1.09,1.09,0,0,1,2.18,0v6a.55.55,0,1,0,1.09,0V8a1.09,1.09,0,0,1,2.18,0v7.09a.55.55,0,1,0,1.09,0v-6a1.09,1.09,0,0,1,2.18,0v6a.54.54,0,0,0,.54.55.55.55,0,0,0,.54-.55V11.3a1.1,1.1,0,0,1,2.19,0Z"/></g></g></svg>