<svg xmlns="http://www.w3.org/2000/svg" viewBox="0 0 36.47 36.47"><defs><style>.cls-1{fill:#4070ff;}</style></defs><title>Asset 45</title><g id="Layer_2" data-name="Layer 2"><g id="create_date" data-name="create date"><rect class="cls-1" x="16.8" y="23.5" width="2.88" height="2.88" rx="0.72"/><rect class="cls-1" x="16.8" y="17.75" width="2.88" height="2.88" rx="0.72"/><rect class="cls-1" x="22.55" y="17.75" width="2.88" height="2.88" rx="0.72"/><rect class="cls-1" x="22.55" y="23.5" width="2.88" height="2.88" rx="0.72"/><rect class="cls-1" x="11.04" y="17.75" width="2.88" height="2.88" rx="0.72"/><rect class="cls-1" x="11.04" y="23.5" width="2.88" height="2.88" rx="0.72"/><path class="cls-1" d="M18.24,0A18.24,18.24,0,1,0,36.47,18.24,18.23,18.23,0,0,0,18.24,0ZM28.31,27.1a2.16,2.16,0,0,1-2.16,2.16H10.32A2.16,2.16,0,0,1,8.16,27.1V14.87H28.31Zm0-13.67H8.16V11.27a2.16,2.16,0,0,1,2.16-2.15h2.16V7.68a1.44,1.44,0,0,1,2.88,0V9.12h5.75V7.68a1.44,1.44,0,1,1,2.88,0V9.12h2.16a2.16,2.16,0,0,1,2.16,2.15Z"/></g></g></svg>