<svg xmlns="http://www.w3.org/2000/svg" viewBox="0 0 36.47 36.47"><defs><style>.cls-1{fill:#4070ff;}</style></defs><title>Asset 22</title><g id="Layer_2" data-name="Layer 2"><g id="print_exception" data-name="print exception"><path class="cls-1" d="M13.07,27.76H23.4V20.34H13.07Zm3.14-4.91a.69.69,0,0,1,1-1l1,1,1-1a.69.69,0,1,1,1,1l-1,1,1,1.05a.69.69,0,0,1,0,1,.68.68,0,0,1-1,0l-1-1-1,1a.68.68,0,0,1-1,0,.69.69,0,0,1,0-1l1-1.05Z"/><circle class="cls-1" cx="25.34" cy="17.11" r="0.97"/><path class="cls-1" d="M18.24,0A18.24,18.24,0,1,0,36.47,18.24,18.23,18.23,0,0,0,18.24,0ZM10.48,7.42a1.3,1.3,0,0,1,1.3-1.3H22.87a1.3,1.3,0,0,1,.91.38l1.83,1.83a1.3,1.3,0,0,1,.38.91v3.34H23.4V9.78L22.33,8.71H13.07v3.87H10.48ZM28.57,20.34a1.29,1.29,0,0,1-1.29,1.29H26v7.42a1.3,1.3,0,0,1-1.3,1.3H11.78a1.3,1.3,0,0,1-1.3-1.3V21.63H9.19A1.29,1.29,0,0,1,7.9,20.34V16.46a2.59,2.59,0,0,1,2.58-2.58H26a2.59,2.59,0,0,1,2.58,2.58Z"/></g></g></svg>