<svg xmlns="http://www.w3.org/2000/svg" viewBox="0 0 40.09 31.18"><defs><style>.cls-1{fill:#4070ff;}</style></defs><title>Asset 48</title><g id="Layer_2" data-name="Layer 2"><g id="create_global_var" data-name="create global var"><path class="cls-1" d="M34.52,0H5.57A5.57,5.57,0,0,0,0,5.57v20a5.57,5.57,0,0,0,5.57,5.57h29a5.57,5.57,0,0,0,5.57-5.57v-20A5.57,5.57,0,0,0,34.52,0ZM14.18,21.3a1.25,1.25,0,0,1-.47,2.41,1.25,1.25,0,0,1-.46-.09c-2.33-.92-3.37-4.7-3.37-8s1-7.1,3.37-8a1.23,1.23,0,0,1,1.62.7,1.25,1.25,0,0,1-.69,1.63c-.73.29-1.79,2.49-1.79,5.7S13.45,21,14.18,21.3Zm9.92-2.71a1.16,1.16,0,0,1-1.65,1.64L20,17.82l-2.4,2.41A1.16,1.16,0,0,1,16,18.59l2.41-2.41L16,13.77a1.17,1.17,0,0,1,1.65-1.65L20,14.53l2.41-2.41a1.17,1.17,0,0,1,1.65,1.65l-2.41,2.41Zm2.74,5a1.25,1.25,0,1,1-.93-2.32c.73-.3,1.79-2.5,1.79-5.71s-1.06-5.41-1.79-5.7a1.27,1.27,0,0,1-.7-1.63,1.25,1.25,0,0,1,1.63-.7c2.33.93,3.37,4.7,3.37,8S29.17,22.7,26.84,23.62Z"/></g></g></svg>