<svg xmlns="http://www.w3.org/2000/svg" viewBox="0 0 36.47 36.47"><defs><style>.cls-1{fill:#4070ff;}</style></defs><title>Asset 7</title><g id="Layer_2" data-name="Layer 2"><g id="set_template_region_block_param" data-name="set template region block param"><rect class="cls-1" x="10.87" y="7.53" width="14.67" height="4.89" rx="1.22"/><path class="cls-1" d="M25,14.86H21.48v1.83H25a.61.61,0,0,0,.61-.61v-.61A.61.61,0,0,0,25,14.86Z"/><path class="cls-1" d="M18.24,0A18.24,18.24,0,1,0,36.47,18.24,18.23,18.23,0,0,0,18.24,0ZM8.42,7.53a2.45,2.45,0,0,1,2.45-2.45H25.54A2.44,2.44,0,0,1,28,7.53V17.3a2.44,2.44,0,0,1-2.44,2.45H10.87A2.45,2.45,0,0,1,8.42,17.3ZM21,29.94H9.65a1.22,1.22,0,1,1,0-2.44H21a1.22,1.22,0,1,1,0,2.44Zm0-4.88H9.65a1.22,1.22,0,1,1,0-2.44H21a1.22,1.22,0,1,1,0,2.44Zm6.87,2.85L25.77,30a.45.45,0,0,1-.66,0l-1.19-1.18a.46.46,0,0,1,0-.67.48.48,0,0,1,.67,0l.85.85,1.8-1.8a.47.47,0,0,1,.67.67Zm0-4.83-2.14,2.13a.45.45,0,0,1-.66,0L23.92,24a.47.47,0,0,1,.67-.67l.85.85,1.8-1.8a.47.47,0,1,1,.67.67Z"/><path class="cls-1" d="M11.48,16.69h3V14.86h-3a.61.61,0,0,0-.61.61v.61A.61.61,0,0,0,11.48,16.69Z"/><rect class="cls-1" x="15.77" y="14.86" width="4.43" height="1.83"/></g></g></svg>