<svg xmlns="http://www.w3.org/2000/svg" viewBox="0 0 36.47 36.47"><defs><style>.cls-1{fill:#4070ff;}</style></defs><title>Asset 35</title><g id="Layer_2" data-name="Layer 2"><g id="for_each" data-name="for each"><path class="cls-1" d="M18.24,4a14.2,14.2,0,0,1,14.19,14.2A14.2,14.2,0,0,1,18.24,32.43,14.2,14.2,0,0,1,4,18.24,14.2,14.2,0,0,1,18.24,4m0-4A18.24,18.24,0,1,0,36.47,18.24,18.23,18.23,0,0,0,18.24,0Z"/><path class="cls-1" d="M5.44,19.12a1.35,1.35,0,0,0,1.9,0L9.43,17A9.4,9.4,0,1,0,26,12.22a6.57,6.57,0,0,0-.61-.68,9.12,9.12,0,0,0-5.25-2.6H20a9.09,9.09,0,0,0-5.11.95,1.27,1.27,0,0,0-.61,1.78,1.34,1.34,0,0,0,1.8.59,6.4,6.4,0,0,1,6.1.13,6.89,6.89,0,0,1,1.37,1.06c.16.16.3.32.44.49a7.26,7.26,0,0,1,1.41,5.45h0a6.71,6.71,0,0,1-13.24-2.14L14,19.12a1.35,1.35,0,1,0,1.91-1.9l-4.28-4.28a1.35,1.35,0,0,0-1.9,0L5.44,17.22A1.35,1.35,0,0,0,5.44,19.12Z"/></g></g></svg>