<svg xmlns="http://www.w3.org/2000/svg" viewBox="0 0 36.47 36.47"><defs><style>.cls-1{fill:#4070ff;}</style></defs><title>Asset 34</title><g id="Layer_2" data-name="Layer 2"><g id="include_file" data-name="include file"><path class="cls-1" d="M18.24,0A18.24,18.24,0,1,0,36.47,18.24,18.23,18.23,0,0,0,18.24,0Zm.3,8.2,5.18,5.18H18.54Zm2.59,20.74H10.76a2.6,2.6,0,0,1-2.59-2.6V10.79A2.59,2.59,0,0,1,10.76,8.2h6.48v5.18a1.3,1.3,0,0,0,1.3,1.3h5.18v1.56a7.14,7.14,0,0,0-2.19,12.67A2.6,2.6,0,0,1,21.13,28.94Zm4.54,0A5.84,5.84,0,1,1,31.5,23.1,5.84,5.84,0,0,1,25.67,28.94Z"/><path class="cls-1" d="M27.48,21.35,25,23.81l-1.16-1.16a.65.65,0,1,0-.92.91l1.62,1.62a.64.64,0,0,0,.92,0l2.92-2.91a.66.66,0,0,0,0-.92A.64.64,0,0,0,27.48,21.35Z"/></g></g></svg>