<svg xmlns="http://www.w3.org/2000/svg" viewBox="0 0 36.47 36.47"><defs><style>.cls-1{fill:#4070ff;}</style></defs><title>Asset 2</title><g id="Layer_2" data-name="Layer 2"><g id="get_template_paran" data-name="get template paran"><rect class="cls-1" x="9.15" y="8.91" width="18.17" height="6.06" rx="1.51"/><rect class="cls-1" x="15.23" y="17.99" width="5.49" height="2.27"/><path class="cls-1" d="M20.43,26.73,18.21,29l-1.06-1.05a.58.58,0,1,0-.83.82l1.47,1.47a.59.59,0,0,0,.83,0l2.64-2.64a.59.59,0,0,0-.83-.83Z"/><path class="cls-1" d="M9.91,18a.76.76,0,0,0-.76.76v.76a.75.75,0,0,0,.76.75h3.74V18H9.91Z"/><path class="cls-1" d="M26.59,18H22.3v2.27h4.29a.76.76,0,0,0,.76-.75v-.76A.76.76,0,0,0,26.59,18Z"/><path class="cls-1" d="M18.24,0A18.24,18.24,0,1,0,36.47,18.24,18.23,18.23,0,0,0,18.24,0Zm.55,33.62a5.5,5.5,0,0,1-4.42-8.77h8.84a5.44,5.44,0,0,1,1.08,3.27A5.5,5.5,0,0,1,18.79,33.62ZM30.35,21a3,3,0,0,1-3,3H9.15a3,3,0,0,1-3-3V8.91a3,3,0,0,1,3-3H27.32a3,3,0,0,1,3,3Z"/></g></g></svg>