<svg xmlns="http://www.w3.org/2000/svg" viewBox="0 0 40.09 31.18"><defs><style>.cls-1{fill:#4070ff;}</style></defs><title>Asset 39</title><g id="Layer_2" data-name="Layer 2"><g id="add_a_http_header" data-name="add a http header"><path class="cls-1" d="M34.52,0H5.57A5.57,5.57,0,0,0,0,5.57v20a5.57,5.57,0,0,0,5.57,5.57h29a5.57,5.57,0,0,0,5.57-5.57v-20A5.57,5.57,0,0,0,34.52,0Zm1.12,25.61a1.12,1.12,0,0,1-1.12,1.12H5.57a1.12,1.12,0,0,1-1.12-1.12V13.5H35.64Zm0-16.28H4.45V5.57A1.12,1.12,0,0,1,5.57,4.45h29a1.12,1.12,0,0,1,1.12,1.12Z"/></g></g></svg>