<svg xmlns="http://www.w3.org/2000/svg" viewBox="0 0 36.47 36.47"><defs><style>.cls-1{fill:#4070ff;}</style></defs><title>Asset 27</title><g id="Layer_2" data-name="Layer 2"><g id="get_bean_object" data-name="get bean object"><path class="cls-1" d="M20.51,13.49s-1.4.18-1.87.18-1.87-.18-1.87-.18a1.23,1.23,0,0,0-1.44,1,1.22,1.22,0,0,0,1,1.43,12.84,12.84,0,0,0,2.35.23A11.42,11.42,0,0,0,21,15.88a1.22,1.22,0,0,0-.47-2.39Z"/><path class="cls-1" d="M18.24,0A18.24,18.24,0,1,0,36.47,18.24,18.23,18.23,0,0,0,18.24,0ZM28.91,21.75a15.06,15.06,0,0,1-10.33,3.32A15,15,0,0,1,8.26,21.75,6.22,6.22,0,0,1,6.8,13.88C8.28,11.24,11,11,13.63,12.19a17,17,0,0,0,4.95.55c1.19,0,3.76.07,5-.55,2.52-1.3,5.35-.95,6.83,1.69A6.23,6.23,0,0,1,28.91,21.75Z"/></g></g></svg>