<svg xmlns="http://www.w3.org/2000/svg" viewBox="0 0 36.47 36.47"><defs><style>.cls-1{fill:#4070ff;}</style></defs><title>Asset 6</title><g id="Layer_2" data-name="Layer 2"><g id="include_block" data-name="include block"><polygon class="cls-1" points="19.59 25.82 26.39 23.39 26.39 15.41 19.59 17.84 19.59 25.82"/><polygon class="cls-1" points="18.23 10.16 10.86 12.8 18.23 15.43 25.61 12.8 18.23 10.16"/><path class="cls-1" d="M18.24,0A18.24,18.24,0,1,0,36.47,18.24,18.23,18.23,0,0,0,18.24,0ZM29.11,23.39A2.77,2.77,0,0,1,27.3,26l-8.15,2.91a2.62,2.62,0,0,1-1.83,0L9.17,26a2.73,2.73,0,0,1-1.81-2.56V13.08a2.72,2.72,0,0,1,1.81-2.56L17.32,7.6a2.74,2.74,0,0,1,1.83,0l8.15,2.92a2.76,2.76,0,0,1,1.81,2.56Z"/></g></g></svg>