<?xml version="1.0" encoding="UTF-8" standalone="no"?>
<svg
   xmlns:dc="http://purl.org/dc/elements/1.1/"
   xmlns:cc="http://creativecommons.org/ns#"
   xmlns:rdf="http://www.w3.org/1999/02/22-rdf-syntax-ns#"
   xmlns:svg="http://www.w3.org/2000/svg"
   xmlns="http://www.w3.org/2000/svg"
   id="svg4"
   version="1.1"
   viewBox="0 0 512 512">
  <metadata
     id="metadata10">
    <rdf:RDF>
      <cc:Work
         rdf:about="">
        <dc:format>image/svg+xml</dc:format>
        <dc:type
           rdf:resource="http://purl.org/dc/dcmitype/StillImage" />
        <dc:title></dc:title>
      </cc:Work>
    </rdf:RDF>
  </metadata>
  <defs
     id="defs8" />
  <!--! Font Awesome Pro 6.2.1 by @fontawesome - https://fontawesome.com License - https://fontawesome.com/license (Commercial License) Copyright 2022 Fonticons, Inc. -->
  <path
     style="stroke-width:0.85618389"
     id="path2"
     d="m 465.08475,160 h -93.83052 v -32 h 93.83052 z M 171.8644,64 c -19.42585,0 -35.18643,21.5 -35.18643,48 v 64 c 0,26.5 15.76058,48 35.18643,48 H 476.81355 C 496.2394,224 512,202.5 512,176 V 112 C 512,85.5 496.2394,64 476.81355,64 Z m 293.22035,288 v 32 H 277.42373 V 352 Z M 171.8644,288 c -19.42585,0 -35.18643,21.5 -35.18643,48 v 64 c 0,26.5 15.76058,48 35.18643,48 H 476.81355 C 496.2394,448 512,426.5 512,400 v -64 c 0,-26.5 -15.7606,-48 -35.18645,-48 z" />
  <path
     style="stroke-width:0.25237411"
     id="path2-3"
     d="m 56.406765,138.84745 c 16.60508,0 30.06295,-15.53898 30.06295,-34.71186 0,-19.172876 -13.45787,-34.711866 -30.06295,-34.711866 -16.60508,0 -30.06295,15.53899 -30.06295,34.711866 0,19.17288 13.45787,34.71186 30.06295,34.71186 z m -10.73341,13.01695 c -23.13438,0 -41.8767503,21.64068 -41.8767503,48.35254 0,4.44746 3.1237301,8.05424 6.9755403,8.05424 h 91.269245 c 3.8518,0 6.97553,-3.60678 6.97553,-8.05424 0,-26.71186 -18.742365,-48.35254 -41.876745,-48.35254 z" />
  <path
     style="stroke-width:0.25237411"
     id="path2-3-6"
     d="m 54.237288,364.47458 c 16.60508,0 30.06295,-15.53898 30.06295,-34.71186 0,-19.17288 -13.45787,-34.71187 -30.06295,-34.71187 -16.60508,0 -30.06295,15.53899 -30.06295,34.71187 0,19.17288 13.45787,34.71186 30.06295,34.71186 z m -10.73341,13.01695 c -23.13438,0 -41.8767504,21.64068 -41.8767504,48.35254 0,4.44746 3.12373,8.05424 6.97554,8.05424 H 99.871908 c 3.851812,0 6.975542,-3.60678 6.975542,-8.05424 0,-26.71186 -18.742372,-48.35254 -41.876752,-48.35254 z" />
</svg>
