<?xml version="1.0" encoding="UTF-8" standalone="no"?>
<svg
   xmlns:dc="http://purl.org/dc/elements/1.1/"
   xmlns:cc="http://creativecommons.org/ns#"
   xmlns:rdf="http://www.w3.org/1999/02/22-rdf-syntax-ns#"
   xmlns:svg="http://www.w3.org/2000/svg"
   xmlns="http://www.w3.org/2000/svg"
   id="svg4"
   version="1.1"
   viewBox="0 0 512 512">
  <metadata
     id="metadata10">
    <rdf:RDF>
      <cc:Work
         rdf:about="">
        <dc:format>image/svg+xml</dc:format>
        <dc:type
           rdf:resource="http://purl.org/dc/dcmitype/StillImage" />
        <dc:title></dc:title>
      </cc:Work>
    </rdf:RDF>
  </metadata>
  <defs
     id="defs8" />
  <!--! Font Awesome Pro 6.2.1 by @fontawesome - https://fontawesome.com License - https://fontawesome.com/license (Commercial License) Copyright 2022 Fonticons, Inc. -->
  <path
     style="stroke-width:0.92287785"
     id="path2"
     d="m 436.0678,257.35594 c 0,114.89999 -97.60522,207.99998 -218.0361,207.99998 -31.59819,0 -61.57816,-6.39998 -88.66234,-17.89998 -10.13527,8.7 -26.65832,20.59999 -46.247493,30.59999 -20.440893,10.4 -45.055122,19.3 -69.499016,19.3 -5.5360733,0 -10.4759449,-3.89999 -12.6051989,-9.9 -2.1292647,-5.99999 -0.93687254,-12.8 2.895791,-17.4 v 0 0 0 0 l 0.2555087,-0.29999 c 0.2555087,-0.29999 0.5961908,-0.70001 1.1072191,-1.39999 0.9368725,-1.20003 2.3847517,-3.10002 4.1733345,-5.70001 3.4919816,-5.00001 8.1763556,-12.4 12.9459026,-21.60001 8.517038,-16.6 16.608209,-38.39999 18.226445,-62.9 -25.551101,-34 -40.62624666,-75.69999 -40.62624666,-120.79999 0,-114.9 97.60521866,-208.000011 218.03609366,-208.000011 120.43088,0 218.0361,93.100011 218.0361,208.000011 z" />
  <path
     style="stroke-width:0.30461809"
     id="path12"
     d="m 435.23202,366.29839 36.88949,41.22535 -80.10398,89.51911 -32.88991,4.05749 c -4.403,0.54421 -8.12307,-3.61632 -7.63321,-8.53683 l 3.65956,-36.78144 z m 59.70553,-6.13776 -17.32096,-19.35678 c -5.40287,-6.03793 -14.16564,-6.03793 -19.56854,0 l -16.29511,18.21039 36.88948,41.22534 16.29513,-18.21038 c 5.40289,-6.04114 5.40289,-15.83064 0,-21.86857 z" />
</svg>
