<?xml version="1.0" encoding="UTF-8" standalone="no"?>
<svg
   xmlns:dc="http://purl.org/dc/elements/1.1/"
   xmlns:cc="http://creativecommons.org/ns#"
   xmlns:rdf="http://www.w3.org/1999/02/22-rdf-syntax-ns#"
   xmlns:svg="http://www.w3.org/2000/svg"
   xmlns="http://www.w3.org/2000/svg"
   viewBox="0 0 512 512"
   version="1.1"
   id="svg4">
  <metadata
     id="metadata10">
    <rdf:RDF>
      <cc:Work
         rdf:about="">
        <dc:format>image/svg+xml</dc:format>
        <dc:type
           rdf:resource="http://purl.org/dc/dcmitype/StillImage" />
        <dc:title></dc:title>
      </cc:Work>
    </rdf:RDF>
  </metadata>
  <defs
     id="defs8" />
  <!--! Font Awesome Pro 6.2.1 by @fontawesome - https://fontawesome.com License - https://fontawesome.com/license (Commercial License) Copyright 2022 Fonticons, Inc. -->
  <path
     style="stroke-width:0.7949599"
     id="path2-36"
     d="M 2.1695002,42.07264 C 1.9707078,19.765294 30.8695,1.6271234 66.1695,1.6271234 h 384.00002 c 35.29999,0 63.99999,18.1372846 63.99999,40.4455166 v 241.27845 c 0,22.30824 -28.7,1.39467 -63.99999,1.39467 H 66.1695 c -35.3,0 -61.6317158,23.08217 -61.8305083,0.77482 z M 325.9695,109.37651 c -4.5,-4.17094 -11.9,-6.63559 -19.8,-6.63559 -7.9,0 -15.4,2.46465 -19.8,6.63559 l -87,80.63826 -26.5,-20.91791 c -4.6,-3.60218 -11.5,-5.68766 -18.7,-5.68766 -7.2,0 -14.2,2.08548 -18.7,5.68766 l -64,50.55689 c -5.8,4.55013 -6.9,10.80654 -2.9,16.05182 4,5.24528 12.4,8.59467 21.6,8.59467 h 96 32 208.00002 c 8.9,0 17.1,-3.09661 21.2,-8.0891 4.1,-4.99249 3.6,-10.99613 -1.4,-15.60944 z m -211.8,-6.63559 c 26.5,0 48,-13.587166 48,-30.334139 0,-16.746974 -21.5,-30.334141 -48,-30.334141 -26.5,0 -48,13.587167 -48,30.334141 0,16.746973 21.5,30.334139 48,30.334139 z" />
  <path
     id="path2-7"
     d="m 3.9827247,312.81756 c -0.094782,-33.68856 0.712524,-30.6906 0.712524,-30.6906 L 513.94487,281.62313 c 0,0 -0.44938,-8.31295 -0.44938,26.98705 v 151.67829 c 0,35.3 -22.05991,52.25391 -57.35986,52.25391 H 64.542374 c -35.3,0 -60.0655292,-24.09795 -60.1648442,-59.39781 z m 140.1223553,8.2632 c -13.3,0 -24,10.7 -24,24 0,13.3 10.7,24 24,24 h 224.00004 c 13.3,0 23.99996,-10.7 23.99996,-24 0,-13.3 -10.69996,-24 -23.99996,-24 z m 0,96 c -13.3,0 -24,10.7 -24,24 0,13.3 10.7,24 24,24 h 224.00004 c 13.3,0 23.99996,-10.7 23.99996,-24 0,-13.3 -10.69996,-24 -23.99996,-24 z" />
</svg>
