<svg xmlns="http://www.w3.org/2000/svg" viewBox="0 0 36.47 36.47"><defs><style>.cls-1{fill:#4070ff;}</style></defs><title>Asset 3</title><g id="Layer_2" data-name="Layer 2"><g id="set_template_param" data-name="set template param"><path class="cls-1" d="M9.91,23.54a.76.76,0,0,0-.76.76v.76a.75.75,0,0,0,.76.75h3.74V23.54H9.91Z"/><path class="cls-1" d="M17.79,9.44a.59.59,0,0,0,.83,0L21.26,6.8A.59.59,0,0,0,20.43,6L18.21,8.2l-1.06-1a.59.59,0,0,0-.83.83Z"/><rect class="cls-1" x="9.15" y="14.46" width="18.17" height="6.06" rx="1.51"/><path class="cls-1" d="M26.59,23.54H22.3v2.27h4.29a.76.76,0,0,0,.76-.75V24.3A.76.76,0,0,0,26.59,23.54Z"/><rect class="cls-1" x="15.23" y="23.54" width="5.49" height="2.27"/><path class="cls-1" d="M18.24,0A18.24,18.24,0,1,0,36.47,18.24,18.23,18.23,0,0,0,18.24,0Zm.55,2.56a5.5,5.5,0,0,1,4.08,9.19H14.71a5.5,5.5,0,0,1,4.08-9.19Zm11.56,24a3,3,0,0,1-3,3H9.15a3,3,0,0,1-3-3V14.46a3,3,0,0,1,3-3h3.93l.35.52-.14.56H24.22l-.14-.42.42-.66h2.82a3,3,0,0,1,3,3Z"/></g></g></svg>