<svg xmlns="http://www.w3.org/2000/svg" viewBox="0 0 36.47 36.47"><defs><style>.cls-1{fill:#4070ff;}</style></defs><title>Asset 42</title><g id="Layer_2" data-name="Layer 2"><g id="create_a_new_object_from_a_class" data-name="create a new object from a class"><path class="cls-1" d="M18.24,0A18.24,18.24,0,1,0,36.47,18.24,18.23,18.23,0,0,0,18.24,0Zm-.57,23.07a1.57,1.57,0,0,1-1.4.77H6.63a1.56,1.56,0,0,1-1.39-.77,1.59,1.59,0,0,1,0-1.62l4.82-8a1.6,1.6,0,0,1,1.37-.78,1.61,1.61,0,0,1,1.38.78l4.82,8A1.59,1.59,0,0,1,17.67,23.07ZM31,21.85a2,2,0,0,1-2,2H21.76a2,2,0,0,1-2-2V14.62a2,2,0,0,1,2-2H29a2,2,0,0,1,2,2Z"/></g></g></svg>