<svg xmlns="http://www.w3.org/2000/svg" viewBox="0 0 31.53 31.18"><defs><style>.cls-1{fill:#4070ff;}</style></defs><title>Asset 31</title><g id="Layer_2" data-name="Layer 2"><g id="break"><path class="cls-1" d="M26,0H5.57A5.57,5.57,0,0,0,0,5.57v20a5.57,5.57,0,0,0,5.57,5.57H26a5.57,5.57,0,0,0,5.57-5.57v-20A5.57,5.57,0,0,0,26,0ZM8.75,24.92h0a2.09,2.09,0,0,1-1.26-2.67l1.65-4.57H4.87a2.09,2.09,0,0,1-2.09-2.09h0A2.09,2.09,0,0,1,4.87,13.5h5.77l2.16-6a2.08,2.08,0,1,1,3.92,1.41l-5.3,14.73A2.09,2.09,0,0,1,8.75,24.92Zm20-9.33a2.09,2.09,0,0,1-2.09,2.09H20.89l-2.16,6a2.09,2.09,0,1,1-3.93-1.41L20.11,7.52a2.09,2.09,0,0,1,2.67-1.26h0A2.09,2.09,0,0,1,24,8.93L22.39,13.5h4.27a2.09,2.09,0,0,1,2.09,2.09Z"/></g></g></svg>