<svg xmlns="http://www.w3.org/2000/svg" viewBox="0 0 36.47 36.47"><defs><style>.cls-1{fill:#4070ff;}</style></defs><title>Asset 24</title><g id="Layer_2" data-name="Layer 2"><g id="try_and_catch_exception" data-name="try and catch exception"><rect class="cls-1" x="8.47" y="21.58" width="1.52" height="1.52" transform="translate(-13.74 14.81) rotate(-49.41)"/><rect class="cls-1" x="8.15" y="17.48" width="1.52" height="1.52" transform="translate(-10.74 13.13) rotate(-49.4)"/><rect class="cls-1" x="6.25" y="19.69" width="1.52" height="1.52" transform="matrix(0.65, -0.76, 0.76, 0.65, -13.08, 12.47)"/><rect class="cls-1" x="10.04" y="15.27" width="1.52" height="1.52" transform="translate(-8.4 13.8) rotate(-49.4)"/><rect class="cls-1" x="10.36" y="19.37" width="1.52" height="1.52" transform="translate(-11.4 15.47) rotate(-49.4)"/><rect class="cls-1" x="12.25" y="17.16" width="1.52" height="1.52" transform="translate(-9.06 16.14) rotate(-49.4)"/><rect class="cls-1" x="14.46" y="19.05" width="1.52" height="1.52" transform="translate(-9.73 18.48) rotate(-49.4)"/><rect class="cls-1" x="10.68" y="23.48" width="1.52" height="1.52" transform="translate(-14.41 17.15) rotate(-49.4)"/><path class="cls-1" d="M18.24,0A18.24,18.24,0,1,0,36.47,18.24,18.23,18.23,0,0,0,18.24,0Zm.26,7.05a.69.69,0,0,1,1-1l1.05,1,1-1a.71.71,0,0,1,1,0,.69.69,0,0,1,0,1l-1,1,1,1a.69.69,0,0,1,0,1,.69.69,0,0,1-1,0l-1-1-1.05,1a.67.67,0,0,1-.49.21.68.68,0,0,1-.49-.21.69.69,0,0,1,0-1l1-1Zm1.76,15.16a.71.71,0,0,1-.53.24.69.69,0,0,1-.45-.16l-1.93-1.65-1,1.15,1.93,1.65a.7.7,0,0,1-.91,1.06l-1.92-1.65-1,1.15,1.59,1.37a.7.7,0,0,1-.9,1.06l-1.6-1.37-1,1.15.22.19a.7.7,0,0,1-.9,1.06l-.22-.19-.19.22a.69.69,0,0,1-.53.24.65.65,0,0,1-.45-.17.7.7,0,0,1-.08-1l.19-.22-1.15-1-.92,1.08a.69.69,0,0,1-.53.24.7.7,0,0,1-.53-1.15l.92-1.07-1.15-1-.86,1a.71.71,0,0,1-.53.24.75.75,0,0,1-.46-.17.7.7,0,0,1-.07-1l.86-1L5,21.59l-.19.22a.69.69,0,0,1-.53.24.7.7,0,0,1-.53-1.15L4,20.68l-.22-.19a.7.7,0,0,1-.07-1,.69.69,0,0,1,1-.07l.22.18,1-1.15L4.21,17.05a.71.71,0,0,1-.07-1,.7.7,0,0,1,1-.07l1.66,1.42,1-1.15L5.85,14.61a.69.69,0,0,1-.08-1,.7.7,0,0,1,1-.08L8.67,15.2l1-1.15L7.74,12.4a.7.7,0,0,1-.08-1,.71.71,0,0,1,1-.08l11.53,9.89A.7.7,0,0,1,20.26,22.21Zm10.32,4.94a1,1,0,0,1-.79.36,1,1,0,0,1-.68-.25L9.45,10.41A1,1,0,0,1,10.8,8.82L30.47,25.67A1,1,0,0,1,30.58,27.15Z"/><rect class="cls-1" x="12.57" y="21.27" width="1.52" height="1.52" transform="translate(-12.07 17.81) rotate(-49.4)"/></g></g></svg>