<svg xmlns="http://www.w3.org/2000/svg" viewBox="0 0 36.47 36.47"><defs><style>.cls-1{fill:#4070ff;}</style></defs><title>Asset 28</title><g id="Layer_2" data-name="Layer 2"><g id="get_url_via_CURL" data-name="get url via CURL"><path class="cls-1" d="M34.36,9.72l-4.49,2.87a5.81,5.81,0,0,1-1.18,5.18l-4.1,4.91A5.82,5.82,0,0,1,15.11,16l0-.07a1.29,1.29,0,0,1,2.22,1.3l0,.07A3.25,3.25,0,0,0,22.62,21l4.1-4.91a3.25,3.25,0,0,0-4.61-4.54l-.06.05a1.31,1.31,0,0,1-1.81-.14,1.3,1.3,0,0,1,.14-1.82l.06-.05a5.81,5.81,0,0,1,7.52,0,5.14,5.14,0,0,1,.42.38l4.36-2.78A18.24,18.24,0,0,0,2.11,26.75L6.6,23.88A5.81,5.81,0,0,1,7.78,18.7l4.09-4.95a5.84,5.84,0,0,1,9.49,6.72l0,.07a1.29,1.29,0,1,1-2.22-1.3l0-.07a3.25,3.25,0,0,0-5.29-3.73l-4.1,4.91a3.24,3.24,0,0,0,4.6,4.54l.06-.09a1.34,1.34,0,0,1,1.82.18,1.3,1.3,0,0,1-.14,1.82l-.06.05a5.82,5.82,0,0,1-7.52,0l-.42-.39L3.73,29.29A18.24,18.24,0,0,0,34.36,9.72Z"/></g></g></svg>