<svg xmlns="http://www.w3.org/2000/svg" viewBox="0 0 36.47 36.47"><defs><style>.cls-1{fill:#4070ff;}</style></defs><title>Asset 21</title><g id="Layer_2" data-name="Layer 2"><g id="get_db_driver" data-name="get db driver"><path class="cls-1" d="M18.24,0A18.24,18.24,0,1,0,36.47,18.24,18.23,18.23,0,0,0,18.24,0Zm10,19.13v2.68H26.42V19.13a.9.9,0,0,1,1.79,0ZM13.62,11.34A6.89,6.89,0,0,1,25.78,9.43V7.07a1,1,0,0,1,2,0v4.58a1,1,0,0,1-1,1H22.73a1,1,0,1,1,0-2h1.41A4.87,4.87,0,0,0,15.56,12a1,1,0,1,1-1.94-.62ZM22,18.24a.89.89,0,0,1,.89.89v2.68H21.07V19.13A.89.89,0,0,1,22,18.24Zm-.68-1.14,0,0h0ZM7.1,13.72c0-1.15,2.16-2.13,5.11-2.43a2.42,2.42,0,0,0,2.39,2.77,2.49,2.49,0,0,0,1.09-.26,2.41,2.41,0,0,0,1.19-1.41,3.45,3.45,0,0,1,.47-.94c2.34.41,3.95,1.28,3.95,2.27v1.52c0,1.4-3.18,2.54-7.1,2.54s-7.1-1.14-7.1-2.54Zm0,3.36A6.09,6.09,0,0,0,8.84,18a16.41,16.41,0,0,0,5.36.8,16.45,16.45,0,0,0,5.36-.8,9.88,9.88,0,0,0,.94-.41,2.09,2.09,0,0,0-.62,1.48v2.41a2.08,2.08,0,0,0-1.41.87,16.83,16.83,0,0,1-4.27.51c-3.92,0-7.1-1.14-7.1-2.54Zm7.1,10.33c-3.92,0-7.1-1.13-7.1-2.53V22.15a5.85,5.85,0,0,0,1.74.91,16.41,16.41,0,0,0,5.36.8,18.8,18.8,0,0,0,3.9-.39v.05A2.08,2.08,0,0,0,19,25.23v.08a5.79,5.79,0,0,0,.17,1.38A15.53,15.53,0,0,1,14.2,27.41Zm14.9-2.92v.89a4.49,4.49,0,0,1-3.57,4.38v2.77H23.75V29.76a4.5,4.5,0,0,1-3.58-4.38v-.89a.9.9,0,0,1,0-1.79H29.1a.9.9,0,1,1,0,1.79Z"/></g></g></svg>