<?xml version="1.0" encoding="UTF-8" standalone="no"?>
<svg
   xmlns:dc="http://purl.org/dc/elements/1.1/"
   xmlns:cc="http://creativecommons.org/ns#"
   xmlns:rdf="http://www.w3.org/1999/02/22-rdf-syntax-ns#"
   xmlns:svg="http://www.w3.org/2000/svg"
   xmlns="http://www.w3.org/2000/svg"
   id="svg4"
   version="1.1"
   viewBox="0 0 576 512">
  <metadata
     id="metadata10">
    <rdf:RDF>
      <cc:Work
         rdf:about="">
        <dc:format>image/svg+xml</dc:format>
        <dc:type
           rdf:resource="http://purl.org/dc/dcmitype/StillImage" />
        <dc:title></dc:title>
      </cc:Work>
    </rdf:RDF>
  </metadata>
  <defs
     id="defs8" />
  <!--! Font Awesome Pro 6.2.1 by @fontawesome - https://fontawesome.com License - https://fontawesome.com/license (Commercial License) Copyright 2022 Fonticons, Inc. -->
  <path
     id="path2"
     d="M 188.88125,33.103451 190.07891,31.232968 512,32 c 35.2999,0.08411 64,28.7 64,64 v 320 c 0,35.3 -28.7004,64.16737 -64,64 H 186.24376 v 0 z m 60.17287,87.192999 c -13.3,0 -24,10.7 -24,24 0,13.3 10.7,24 24,24 h 224 c 13.3,0 24,-10.7 24,-24 0,-13.3 -10.7,-24 -24,-24 z m 0,116 c -13.3,0 -24,10.7 -24,24 0,13.3 10.7,24 24,24 h 224 c 13.3,0 24,-10.7 24,-24 0,-13.3 -10.7,-24 -24,-24 z m 0,116 c -13.3,0 -24,10.7 -24,24 0,13.3 10.7,24 24,24 h 224 c 13.3,0 24,-10.7 24,-24 0,-13.3 -10.7,-24 -24,-24 z" />
  <path
     id="path2-3"
     d="m 2.1024205,95.999999 c 0,-35.3 28.7009575,-63.739743 64.0000005,-64 l 123.976489,-0.767031 0.33642,0.33642 -1.53406,157.389412 -2.63751,1.10345 -183.8049191,-0.76703 c 0,0 -0.3364204,-2.62094 -0.3364204,-63.23297 z M 142.23064,104.11449 c -2.22916,-9.525889 -6.9143,-14.718672 -14.8143,-14.718672 -7.90002,0 -14.63299,5.050547 -17.49893,16.252732 l -5.17217,35.11083 -8.737976,-16.94913 c -4.6,-5.7 -4.213205,-13.21867 -11.413205,-13.21867 -7.2,0 -9.597813,4.06703 -14.097813,9.76703 l -8.655388,21.22633 c -4.265937,6.81649 -5.431738,13.27613 -1.431738,21.57613 4,8.3 12.4,13.6 21.6,13.6 h 17.458341 12.057189 18.06985 c 8.9,0 18.25055,-4.51648 22.35055,-12.41648 4.1,-7.9 3.6,-17.4 -1.4,-24.7 z" />
  <path
     id="path2-3-7"
     d="m 2.1024182,385.93774 c 0,-65.98124 0.3364217,-86.2439 0.3364217,-86.2439 H 187.77782 l 0.33642,0.33642 0.76703,178.86629 L 186.24376,480 H 66.102421 C 30.80242,480 2.1024182,451.3 2.1024182,415.99999 Z M 142.23064,338.05223 c -2.22915,-9.52588 -6.9143,-14.71867 -14.8143,-14.71867 -7.90002,0 -14.63299,5.05055 -17.49893,16.25273 l -5.17218,35.11084 -8.737967,-16.94914 c -4.599999,-5.7 -4.213205,-13.21867 -11.413205,-13.21867 -7.2,0 -9.597813,4.06703 -14.097813,9.76703 l -8.655388,21.22634 c -4.265937,6.81649 -5.431738,13.27613 -1.431738,21.57613 4,8.3 12.4,13.6 21.6,13.6 h 17.458341 12.05719 18.06985 c 8.9,0 18.25055,-4.51648 22.35055,-12.41648 4.1,-7.9 3.6,-17.4 -1.4,-24.70001 z" />
  <path
     id="path2-3-5"
     d="m 2.1024251,206.30443 1.1034469,-25.44655 185.338978,5.93435 0.33642,0.33642 -0.76703,112.90161 -2.63751,1.10345 L 2.4388399,299.69384 2.1024251,258.61058 Z M 141.46361,219.18595 c -2.22916,-9.52589 -6.9143,-14.71867 -14.8143,-14.71867 -7.90002,0 -14.63299,5.05055 -17.49893,16.25273 l -5.17218,35.11083 -8.737967,-16.94913 c -4.599999,-5.7 -4.213205,-13.21867 -11.413205,-13.21867 -7.200004,0 -9.597814,4.06703 -14.097814,9.76703 l -8.65539,21.22633 c -4.26593,6.81649 -5.43173,13.27613 -1.43173,21.57613 4,8.3 12.4,13.6 21.599995,13.6 h 17.458341 12.05719 18.06985 c 8.9,0 18.25055,-4.51648 22.35055,-12.41648 4.1,-7.9 3.6,-17.4 -1.4,-24.7 z" />
</svg>
