<svg xmlns="http://www.w3.org/2000/svg" viewBox="0 0 40.09 31.18"><defs><style>.cls-1{fill:#4070ff;}</style></defs><title>Asset 32</title><g id="Layer_2" data-name="Layer 2"><g id="write_some_php_code" data-name="write some php code"><path class="cls-1" d="M34.52,31.18a5.57,5.57,0,0,0,5.57-5.57v-20A5.57,5.57,0,0,0,34.52,0H5.57A5.57,5.57,0,0,0,0,5.57v20a5.57,5.57,0,0,0,5.57,5.57h29Zm-2.06-4.45H5.57a1.12,1.12,0,0,1-1.12-1.12v-20A1.12,1.12,0,0,1,5.57,4.45h29a1.12,1.12,0,0,1,1.12,1.12v20a1.12,1.12,0,0,1-1.12,1.12Z"/><path class="cls-1" d="M17.2,23.37A1.05,1.05,0,0,1,16.59,22l.32-1L21.55,8.43a1,1,0,0,1,1.33-.62h0a1,1,0,0,1,.62,1.34l-5,13.59A1,1,0,0,1,17.2,23.37Z"/><path class="cls-1" d="M26.19,22.73a1,1,0,0,1-.74-.3,1,1,0,0,1,0-1.47L31,15.44,25.45,9.92a1,1,0,0,1,1.47-1.47l6.26,6.25a1,1,0,0,1,0,1.47l-6.26,6.26A1,1,0,0,1,26.19,22.73Z"/><path class="cls-1" d="M13.9,22.73a1,1,0,0,1-.73-.3L6.91,16.17a1,1,0,0,1,0-1.47l6.26-6.25a1,1,0,1,1,1.47,1.47L9.12,15.44,14.64,21a1,1,0,0,1,0,1.47A1,1,0,0,1,13.9,22.73Z"/></g></g></svg>