<svg xmlns="http://www.w3.org/2000/svg" viewBox="0 0 39.01 36.29"><defs><style>.cls-1{fill:#4070ff;}</style></defs><title>Asset 14</title><g id="Layer_2" data-name="Layer 2"><g id="call_business_logic" data-name="call business logic"><path class="cls-1" d="M14.45,23.48a.84.84,0,1,0,.84.84A.84.84,0,0,0,14.45,23.48Z"/><circle class="cls-1" cx="19.5" cy="11.97" r="0.84"/><path class="cls-1" d="M38.87,15.78a2.48,2.48,0,0,0-2.08-2.16L34.07,13A15.56,15.56,0,0,0,31.2,8.05l.86-2.62a2.53,2.53,0,0,0-.82-2.86,9.43,9.43,0,0,0-1.7-1.15l-.61-.35a16.65,16.65,0,0,0-1.8-.88,2.53,2.53,0,0,0-2.9.72L22.39,3a15.23,15.23,0,0,0-2.89-.28A15.39,15.39,0,0,0,16.61,3L14.78.91a2.61,2.61,0,0,0-2.9-.72,10.77,10.77,0,0,0-1.8.88l-.62.35A9,9,0,0,0,7.77,2.57a2.52,2.52,0,0,0-.83,2.86L7.8,8.05A15.53,15.53,0,0,0,4.94,13l-2.72.65A2.48,2.48,0,0,0,.14,15.78,20.66,20.66,0,0,0,0,18.15a20.35,20.35,0,0,0,.14,2.36,2.37,2.37,0,0,0,2.08,2.06l2.68.64a15.57,15.57,0,0,0,2.9,5l-.86,2.62a2.54,2.54,0,0,0,.83,2.87c.54.4,1.1.68,1.68,1.13l.63.36a18.81,18.81,0,0,0,1.8.89,2.64,2.64,0,0,0,2.9-.72l1.83-2.06a16.27,16.27,0,0,0,2.89.27,16.09,16.09,0,0,0,2.89-.27l1.84,2.06a2.56,2.56,0,0,0,2.9.72c.51-.27,1.22-.56,1.8-.89l.63-.36c.58-.45,1.13-.73,1.68-1.13a2.55,2.55,0,0,0,.82-2.87l-.86-2.62a15.41,15.41,0,0,0,2.91-5l2.68-.64a2.37,2.37,0,0,0,2.08-2.06A20.35,20.35,0,0,0,39,18.15,20.66,20.66,0,0,0,38.87,15.78ZM24.55,27.12a2.8,2.8,0,0,1-2.8-2.8,2.83,2.83,0,0,1,1.68-2.57V20.39a1.12,1.12,0,0,0-1.12-1.12H16.7a1.13,1.13,0,0,0-1.13,1.12v1.36a2.8,2.8,0,0,1-1.12,5.37,2.8,2.8,0,0,1-2.8-2.8,2.83,2.83,0,0,1,1.68-2.57V20.39A3.37,3.37,0,0,1,16.7,17h1.68V14.54a2.81,2.81,0,1,1,2.25,0V17h1.68a3.37,3.37,0,0,1,3.37,3.37v1.36a2.8,2.8,0,0,1-1.13,5.37Z"/><path class="cls-1" d="M24.55,23.48a.84.84,0,1,0,.84.84A.84.84,0,0,0,24.55,23.48Z"/></g></g></svg>