<svg xmlns="http://www.w3.org/2000/svg" viewBox="0 0 36.47 36.47"><defs><style>.cls-1{fill:#4070ff;}</style></defs><title>Asset 19</title><g id="Layer_2" data-name="Layer 2"><g id="get_sql_query" data-name="get sql query"><path class="cls-1" d="M18.24,0A18.24,18.24,0,1,0,36.47,18.24,18.23,18.23,0,0,0,18.24,0Zm0,29.09A5.52,5.52,0,0,1,13,21.81a12.74,12.74,0,0,0,1.89.47l-.7.69a.33.33,0,0,0,0,.45l1.91,1.92a.35.35,0,0,0,.23.09.32.32,0,0,0,.22-.54L14.9,23.2l.8-.8.34,0,1.1.09h.2l.8,0-.86,2.36-.1.29a.31.31,0,0,0,.19.41.3.3,0,0,0,.4-.19l1.06-2.88h.4l1.11-.08.13,0,.3,0,.8.8-1.68,1.69a.32.32,0,0,0,.22.54.35.35,0,0,0,.23-.09l1.91-1.92a.33.33,0,0,0,0-.45l-.69-.69a12.91,12.91,0,0,0,1.88-.47,5.52,5.52,0,0,1-5.2,7.28ZM25.33,19c0,1.4-3.17,2.54-7.09,2.54s-7.1-1.14-7.1-2.54V16.26a6,6,0,0,0,1.73.9,16.45,16.45,0,0,0,5.37.81,16.48,16.48,0,0,0,5.36-.81,6.43,6.43,0,0,0,1.73-.9Zm0-4.56c0,1.4-3.17,2.53-7.09,2.53s-7.1-1.13-7.1-2.53V11.19a6,6,0,0,0,1.73.9,16.45,16.45,0,0,0,5.37.81,16.48,16.48,0,0,0,5.36-.81,6.43,6.43,0,0,0,1.73-.9Zm0-5.07c0,1.4-3.17,2.53-7.09,2.53s-7.1-1.13-7.1-2.53V7.83c0-1.41,3.17-2.54,7.1-2.54s7.09,1.13,7.09,2.54Z"/></g></g></svg>