<svg xmlns="http://www.w3.org/2000/svg" viewBox="0 0 39.01 36.29"><defs><style>.cls-1{fill:#4070ff;}.cls-2{fill:#a0b8ff;}</style></defs><title>Asset 15</title><g id="Layer_2" data-name="Layer 2"><g id="call_hibernate_object_method" data-name="call hibernate object method"><path class="cls-1" d="M38.87,15.78a2.48,2.48,0,0,0-2.08-2.16L34.07,13A15.56,15.56,0,0,0,31.2,8.05l.86-2.62a2.53,2.53,0,0,0-.82-2.86,9.43,9.43,0,0,0-1.7-1.15l-.61-.35a16.65,16.65,0,0,0-1.8-.88,2.53,2.53,0,0,0-2.9.72L22.39,3a15.23,15.23,0,0,0-2.89-.28A15.39,15.39,0,0,0,16.61,3L14.78.91a2.61,2.61,0,0,0-2.9-.72,10.77,10.77,0,0,0-1.8.88l-.62.35A9,9,0,0,0,7.77,2.57a2.52,2.52,0,0,0-.83,2.86L7.8,8.05A15.53,15.53,0,0,0,4.94,13l-2.72.65A2.48,2.48,0,0,0,.14,15.78,20.66,20.66,0,0,0,0,18.15a20.35,20.35,0,0,0,.14,2.36,2.37,2.37,0,0,0,2.08,2.06l2.68.64a15.57,15.57,0,0,0,2.9,5l-.86,2.62a2.54,2.54,0,0,0,.83,2.87c.54.4,1.1.68,1.68,1.13l.63.36a18.81,18.81,0,0,0,1.8.89,2.64,2.64,0,0,0,2.9-.72l1.83-2.06a16.27,16.27,0,0,0,2.89.27,16.09,16.09,0,0,0,2.89-.27l1.84,2.06a2.56,2.56,0,0,0,2.9.72c.51-.27,1.22-.56,1.8-.89l.63-.36c.58-.45,1.13-.73,1.68-1.13a2.55,2.55,0,0,0,.82-2.87l-.86-2.62a15.41,15.41,0,0,0,2.91-5l2.68-.64a2.37,2.37,0,0,0,2.08-2.06A20.35,20.35,0,0,0,39,18.15,20.66,20.66,0,0,0,38.87,15.78ZM20.4,12a.47.47,0,0,1,.35.87c-.28.11-.67.94-.67,2.15s.39,2,.67,2.14a.47.47,0,0,1-.18.91l-.17,0c-.87-.35-1.27-1.77-1.27-3S19.53,12.36,20.4,12Zm-7,6.2a1.11,1.11,0,0,1,0-2.21c.07,0,.35-.18.63-.74a5.92,5.92,0,0,0,.48-1.69H13.33a1.11,1.11,0,0,1,0-2.21h1.26a8.11,8.11,0,0,1,.72-2.66,3,3,0,0,1,2.61-2,1.11,1.11,0,0,1,0,2.21c-.07,0-.35.17-.63.74a5.62,5.62,0,0,0-.47,1.69h1.12a1.11,1.11,0,0,1,0,2.21H16.68A7.87,7.87,0,0,1,16,16.24,3,3,0,0,1,13.35,18.22ZM18.5,30.6l-2-3.47h4l2,3.47Zm0-7-2-3.48h4l2,3.48Zm6-7.48a.44.44,0,0,1,0,.62.43.43,0,0,1-.62,0l-.91-.9-.9.9a.43.43,0,0,1-.62,0,.44.44,0,0,1,0-.62l.91-.9-.91-.91a.44.44,0,0,1,.62-.62l.9.91.91-.91a.44.44,0,1,1,.62.62l-.91.91Zm1,1.9-.17,0a.47.47,0,0,1-.18-.91c.28-.11.67-.94.67-2.14s-.39-2-.67-2.15a.47.47,0,1,1,.35-.87c.87.34,1.27,1.76,1.27,3S26.38,17.71,25.51,18.06Z"/><path class="cls-2" d="M14.48,23.64l2-3.48,2,3.48-2,3.49Z"/><path class="cls-2" d="M24.52,27.13l-2,3.47-2-3.47,2-3.49Z"/></g></g></svg>