<svg xmlns="http://www.w3.org/2000/svg" viewBox="0 0 40.09 31.18"><defs><style>.cls-1{fill:#4070ff;}</style></defs><title>Asset 47</title><g id="Layer_2" data-name="Layer 2"><g id="create_local_var" data-name="create local var"><path class="cls-1" d="M34.52,31.18a5.57,5.57,0,0,0,5.57-5.57v-20A5.57,5.57,0,0,0,34.52,0H5.57A5.57,5.57,0,0,0,0,5.57v20a5.57,5.57,0,0,0,5.57,5.57h29Zm-2.06-4.45H5.57a1.12,1.12,0,0,1-1.12-1.12v-20A1.12,1.12,0,0,1,5.57,4.45h29a1.12,1.12,0,0,1,1.12,1.12v20a1.12,1.12,0,0,1-1.12,1.12Z"/><path class="cls-1" d="M21.69,16.18l2.41-2.41a1.17,1.17,0,0,0-1.65-1.65L20,14.53l-2.4-2.41A1.17,1.17,0,0,0,16,13.77l2.41,2.41L16,18.59a1.16,1.16,0,0,0,1.65,1.64L20,17.82l2.41,2.41a1.16,1.16,0,0,0,1.65-1.64Z"/><path class="cls-1" d="M13.71,23.71a1.25,1.25,0,0,1-.46-.09c-2.33-.92-3.37-4.7-3.37-8s1-7.1,3.37-8a1.23,1.23,0,0,1,1.62.7,1.25,1.25,0,0,1-.69,1.63c-.73.29-1.79,2.49-1.79,5.7S13.45,21,14.18,21.3a1.25,1.25,0,0,1-.47,2.41Z"/><path class="cls-1" d="M26.38,23.71a1.25,1.25,0,0,0,.46-.09c2.33-.92,3.37-4.7,3.37-8s-1-7.1-3.37-8a1.25,1.25,0,0,0-1.63.7,1.27,1.27,0,0,0,.7,1.63c.73.29,1.79,2.49,1.79,5.7S26.64,21,25.91,21.3a1.25,1.25,0,0,0-.7,1.62A1.26,1.26,0,0,0,26.38,23.71Z"/></g></g></svg>