<svg xmlns="http://www.w3.org/2000/svg" viewBox="0 0 41.83 31.37"><defs><style>.cls-1{fill:#4070ff;}</style></defs><title>Asset 5</title><g id="Layer_2" data-name="Layer 2"><g id="add_template_region_block" data-name="add template region block"><path class="cls-1" d="M36.6,0H5.23A5.23,5.23,0,0,0,0,5.23V26.15a5.22,5.22,0,0,0,5.23,5.22H36.6a5.22,5.22,0,0,0,5.23-5.22V5.23A5.22,5.22,0,0,0,36.6,0ZM5.23,7.84A2.61,2.61,0,0,1,7.84,5.23H34A2.61,2.61,0,0,1,36.6,7.84v5.23A2.62,2.62,0,0,1,34,15.69H7.84a2.62,2.62,0,0,1-2.61-2.62ZM15.72,20.92H25.2v3.92H15.72ZM6.54,24.84a1.3,1.3,0,0,1-1.31-1.31V22.22a1.3,1.3,0,0,1,1.31-1.3H13v3.92H6.54Zm30.11-1.31a1.31,1.31,0,0,1-1.3,1.31H27.93V20.92h7.42a1.3,1.3,0,0,1,1.3,1.3Z"/><path class="cls-1" d="M20.56,6.25a1,1,0,0,1,.71,0l3.19,1.13a1.07,1.07,0,0,1,.7,1v4a1.07,1.07,0,0,1-.7,1l-3.19,1.14a1.08,1.08,0,0,1-.71,0l-3.18-1.14a1.05,1.05,0,0,1-.71-1v-4a1.05,1.05,0,0,1,.71-1Zm.36,1L18,8.27l2.88,1,2.88-1Zm.53,6.11,2.65-.95V9.29l-2.65,1Z"/></g></g></svg>