<svg width="54" height="86" viewBox="0 0 54 86" fill="none" xmlns="http://www.w3.org/2000/svg">
<path d="M35.1002 61.2C32.4002 61.2 30.2002 63.5 30.2002 66.4V80.2C30.2002 83.1 32.4002 85.4 35.1002 85.4H48.6002C51.5002 85.4 53.8002 83.1 53.8002 80.2V66.4C53.8002 63.5 51.5002 61.2 48.6002 61.2H35.1002Z" fill="#FC3C44"/>
<path d="M35.1002 30.6C32.4002 30.6 30.2002 32.9 30.2002 35.8V49.6C30.2002 52.5 32.4002 54.8 35.1002 54.8H48.6002C51.5002 54.8 53.8002 52.5 53.8002 49.6V35.8C53.8002 32.9 51.5002 30.6 48.6002 30.6H35.1002Z" fill="#FC3C44"/>
<path d="M5.10019 61.2C2.40019 61.2 0.200195 63.5 0.200195 66.4V80.2C0.200195 83.1 2.40019 85.4 5.10019 85.4H18.6002C21.5002 85.4 23.8002 83.1 23.8002 80.2V66.4C23.8002 63.5 21.5002 61.2 18.6002 61.2H5.10019Z" fill="#FC3C44"/>
<path d="M5.10019 30.6C2.40019 30.6 0.200195 32.9 0.200195 35.8V49.6C0.200195 52.5 2.40019 54.8 5.10019 54.8H18.6002C21.5002 54.8 23.8002 52.5 23.8002 49.6V35.8C23.8002 32.9 21.5002 30.6 18.6002 30.6H5.10019Z" fill="#FC3C44"/>
<path d="M5.10019 0C2.40019 0 0.200195 2.3 0.200195 5.2V19C0.200195 21.9 2.40019 24.2 5.10019 24.2H18.6002C21.5002 24.2 23.8002 21.9 23.8002 19V5.2C23.8002 2.3 21.5002 0 18.6002 0H5.10019Z" fill="#FC3C44"/>
</svg>
