<?xml version="1.0" encoding="utf-8"?>
<!-- Generator: Adobe Illustrator 26.0.2, SVG Export Plug-In . SVG Version: 6.00 Build 0)  -->
<svg version="1.1" xmlns="http://www.w3.org/2000/svg" xmlns:xlink="http://www.w3.org/1999/xlink" x="0px" y="0px"
	 viewBox="0 0 54 42" style="enable-background:new 0 0 54 42;" xml:space="preserve">
<style type="text/css">
	.st0{display:none;}
	.st1{display:inline;}
	.st2{fill:#4070FF;}
	.st3{display:inline;fill:#4070FF;}
	.st4{fill:#FFFFFF;}
	.st5{display:inline;fill:#FFFFFF;}
	.st6{fill:#A0B8FF;}
</style>
<g id="create_global_var" class="st0">
	<g class="st1">
		<path class="st2" d="M41.48,5.41H12.52c-3.07,0-5.57,2.49-5.57,5.57v20.04c0,3.08,2.49,5.57,5.57,5.57h26.73h2.22
			c3.07,0,5.57-2.49,5.57-5.57V10.98C47.04,7.9,44.55,5.41,41.48,5.41z M21.13,26.7c0.64,0.26,0.96,0.99,0.7,1.63
			c-0.2,0.49-0.67,0.79-1.16,0.79c-0.15,0-0.31-0.03-0.46-0.09c-2.32-0.93-3.36-4.7-3.36-8.03s1.04-7.11,3.36-8.03
			c0.64-0.26,1.37,0.06,1.63,0.7c0.26,0.64-0.06,1.37-0.7,1.63c-0.73,0.29-1.79,2.49-1.79,5.71S20.4,26.41,21.13,26.7z M31.05,24
			c0.45,0.45,0.45,1.19,0,1.65c-0.23,0.23-0.53,0.34-0.82,0.34c-0.3,0-0.6-0.11-0.82-0.34L27,23.23l-2.41,2.41
			c-0.23,0.23-0.53,0.34-0.82,0.34c-0.3,0-0.6-0.11-0.82-0.34c-0.45-0.45-0.45-1.19,0-1.65l2.41-2.41l-2.41-2.41
			c-0.45-0.45-0.45-1.19,0-1.65c0.45-0.45,1.19-0.45,1.65,0L27,19.94l2.41-2.41c0.45-0.45,1.19-0.45,1.65,0
			c0.45,0.45,0.45,1.19,0,1.65l-2.41,2.41L31.05,24z M33.8,29.03c-0.15,0.06-0.31,0.09-0.46,0.09c-0.5,0-0.97-0.3-1.16-0.79
			c-0.26-0.64,0.06-1.37,0.7-1.63c0.73-0.29,1.79-2.49,1.79-5.71s-1.06-5.41-1.79-5.71c-0.64-0.26-0.96-0.99-0.7-1.63
			c0.26-0.64,0.99-0.96,1.63-0.7c2.32,0.93,3.36,4.7,3.36,8.03S36.12,28.11,33.8,29.03z"/>
	</g>
</g>
<g id="create_local_var" class="st0">
	<g class="st1">
		<g>
			<g>
				<path class="st2" d="M41.48,36.59c3.07,0,5.57-2.49,5.57-5.57V10.98c0-3.08-2.49-5.57-5.57-5.57H12.52
					c-3.07,0-5.57,2.49-5.57,5.57v20.04c0,3.08,2.49,5.57,5.57,5.57h26.73H41.48z M39.42,32.14H12.52c-0.62,0-1.11-0.5-1.11-1.11
					V10.98c0-0.61,0.5-1.11,1.11-1.11h28.95c0.62,0,1.11,0.5,1.11,1.11v20.04c0,0.61-0.5,1.11-1.11,1.11H39.42z"/>
			</g>
		</g>
		<g>
			<g>
				<g>
					<path class="st2" d="M28.65,21.59l2.41-2.41c0.45-0.45,0.45-1.19,0-1.65c-0.45-0.45-1.19-0.45-1.65,0L27,19.94l-2.41-2.41
						c-0.45-0.45-1.19-0.45-1.65,0c-0.45,0.45-0.45,1.19,0,1.65l2.41,2.41L22.95,24c-0.45,0.45-0.45,1.19,0,1.65
						c0.23,0.23,0.53,0.34,0.82,0.34s0.6-0.11,0.82-0.34L27,23.23l2.41,2.41c0.23,0.23,0.53,0.34,0.82,0.34s0.6-0.11,0.82-0.34
						c0.45-0.45,0.45-1.19,0-1.65L28.65,21.59z"/>
				</g>
			</g>
			<g>
				<path class="st2" d="M20.67,29.12c-0.15,0-0.31-0.03-0.46-0.09c-2.32-0.93-3.36-4.7-3.36-8.03s1.04-7.11,3.36-8.03
					c0.64-0.26,1.37,0.06,1.63,0.7c0.26,0.64-0.06,1.37-0.7,1.63c-0.73,0.29-1.79,2.49-1.79,5.71s1.06,5.41,1.79,5.71
					c0.64,0.26,0.96,0.99,0.7,1.63C21.63,28.82,21.16,29.12,20.67,29.12z"/>
			</g>
			<g>
				<path class="st2" d="M33.33,29.12c0.15,0,0.31-0.03,0.46-0.09c2.32-0.93,3.36-4.7,3.36-8.03s-1.04-7.11-3.36-8.03
					c-0.64-0.26-1.37,0.06-1.63,0.7c-0.26,0.64,0.06,1.37,0.7,1.63c0.73,0.29,1.79,2.49,1.79,5.71s-1.06,5.41-1.79,5.71
					c-0.64,0.26-0.96,0.99-0.7,1.63C32.37,28.82,32.84,29.12,33.33,29.12z"/>
			</g>
		</g>
	</g>
</g>
<g id="create_array" class="st0">
	<g class="st1">
		<g>
			<path class="st2" d="M27,2.76C16.93,2.76,8.76,10.93,8.76,21S16.93,39.24,27,39.24S45.24,31.07,45.24,21S37.07,2.76,27,2.76z
				 M17.77,12.79H36.1c0.85,0,1.53,0.68,1.53,1.53c0,0.85-0.68,1.53-1.53,1.53H17.77c-0.84,0-1.53-0.68-1.53-1.53
				C16.24,13.47,16.92,12.79,17.77,12.79z M36.1,29.21H17.77c-0.84,0-1.53-0.68-1.53-1.53c0-0.85,0.68-1.53,1.53-1.53H36.1
				c0.85,0,1.53,0.68,1.53,1.53C37.63,28.53,36.95,29.21,36.1,29.21z M37.7,24.76H19.37c-0.84,0-1.53-0.68-1.53-1.53
				s0.68-1.53,1.53-1.53H37.7c0.85,0,1.53,0.68,1.53,1.53S38.55,24.76,37.7,24.76z M37.7,20.3H19.37c-0.84,0-1.53-0.68-1.53-1.53
				c0-0.84,0.68-1.53,1.53-1.53H37.7c0.85,0,1.53,0.68,1.53,1.53C39.23,19.62,38.55,20.3,37.7,20.3z"/>
		</g>
	</g>
</g>
<g id="create_date" class="st0">
	<g class="st1">
		<path class="st2" d="M26.28,29.14h1.44c0.4,0,0.72-0.32,0.72-0.72v-1.44c0-0.4-0.32-0.72-0.72-0.72h-1.44
			c-0.4,0-0.72,0.32-0.72,0.72v1.44C25.56,28.82,25.89,29.14,26.28,29.14z"/>
		<path class="st2" d="M26.28,23.39h1.44c0.4,0,0.72-0.32,0.72-0.72v-1.44c0-0.4-0.32-0.72-0.72-0.72h-1.44
			c-0.4,0-0.72,0.32-0.72,0.72v1.44C25.56,23.07,25.89,23.39,26.28,23.39z"/>
		<path class="st2" d="M32.04,23.39h1.44c0.4,0,0.72-0.32,0.72-0.72v-1.44c0-0.4-0.32-0.72-0.72-0.72h-1.44
			c-0.4,0-0.72,0.32-0.72,0.72v1.44C31.32,23.07,31.64,23.39,32.04,23.39z"/>
		<path class="st2" d="M32.04,29.14h1.44c0.4,0,0.72-0.32,0.72-0.72v-1.44c0-0.4-0.32-0.72-0.72-0.72h-1.44
			c-0.4,0-0.72,0.32-0.72,0.72v1.44C31.32,28.82,31.64,29.14,32.04,29.14z"/>
		<path class="st2" d="M20.53,23.39h1.44c0.4,0,0.72-0.32,0.72-0.72v-1.44c0-0.4-0.32-0.72-0.72-0.72h-1.44
			c-0.4,0-0.72,0.32-0.72,0.72v1.44C19.81,23.07,20.13,23.39,20.53,23.39z"/>
		<path class="st2" d="M20.53,29.14h1.44c0.4,0,0.72-0.32,0.72-0.72v-1.44c0-0.4-0.32-0.72-0.72-0.72h-1.44
			c-0.4,0-0.72,0.32-0.72,0.72v1.44C19.81,28.82,20.13,29.14,20.53,29.14z"/>
		<path class="st2" d="M27,2.76C16.93,2.76,8.76,10.93,8.76,21S16.93,39.24,27,39.24S45.24,31.07,45.24,21S37.07,2.76,27,2.76z
			 M37.07,29.86c0,1.19-0.97,2.16-2.16,2.16H19.09c-1.19,0-2.16-0.97-2.16-2.16V17.64h20.14V29.86z M37.07,16.2H16.93v-2.16
			c0-1.19,0.97-2.16,2.16-2.16h2.16v-1.44c0-0.79,0.64-1.44,1.44-1.44c0.8,0,1.44,0.64,1.44,1.44v1.44h5.75v-1.44
			c0-0.79,0.64-1.44,1.44-1.44c0.8,0,1.44,0.64,1.44,1.44v1.44h2.16c1.19,0,2.16,0.97,2.16,2.16V16.2z"/>
	</g>
</g>
<g id="define_a_function" class="st0">
	<g class="st1">
		<g>
			<circle class="st2" cx="20.21" cy="17.43" r="2.06"/>
		</g>
		<g>
			<circle class="st2" cx="33.29" cy="25.04" r="2.06"/>
		</g>
		<g>
			<path class="st2" d="M27,2.76C16.93,2.76,8.76,10.93,8.76,21S16.93,39.24,27,39.24S45.24,31.07,45.24,21S37.07,2.76,27,2.76z
				 M24.92,22.12l-1.22-0.4c-0.46,0.38-0.99,0.69-1.56,0.9l-0.3,1.25c-0.05,0.4-0.36,0.72-0.76,0.77c-0.29,0.03-0.58,0.05-0.88,0.05
				c-0.3,0-0.59-0.02-0.88-0.05c-0.4-0.05-0.75-0.37-0.8-0.77l-0.3-1.25c-0.53-0.22-1.06-0.52-1.52-0.9l-1.21,0.4
				c-0.39,0.13-0.82,0.02-1.06-0.31c-0.15-0.2-0.29-0.41-0.42-0.63l-0.13-0.23c-0.12-0.22-0.23-0.44-0.33-0.67
				c-0.16-0.41-0.04-0.8,0.27-1.08l0.95-0.85c-0.05-0.29-0.11-0.59-0.11-0.94c0-0.27,0.06-0.57,0.11-0.86l-0.95-0.85
				c-0.3-0.31-0.43-0.7-0.27-1.08c0.1-0.27,0.21-0.45,0.33-0.67l0.13-0.23c0.13-0.22,0.27-0.43,0.42-0.63
				c0.25-0.32,0.68-0.43,1.06-0.31l1.21,0.4c0.46-0.38,0.99-0.69,1.52-0.9l0.3-1.25c0.05-0.4,0.4-0.72,0.8-0.77
				c0.29-0.03,0.58-0.05,0.88-0.05c0.3,0,0.59,0.02,0.88,0.05c0.4,0.05,0.71,0.37,0.76,0.77l0.3,1.25c0.57,0.21,1.1,0.52,1.56,0.9
				l1.22-0.4c0.39-0.13,0.82-0.02,1.06,0.31c0.15,0.2,0.25,0.41,0.42,0.63l0.13,0.23c0.12,0.22,0.23,0.44,0.33,0.67
				c0.16,0.37,0.03,0.77-0.27,1.08l-0.95,0.85c0.05,0.29,0.07,0.59,0.07,0.86c0,0.34-0.03,0.65-0.07,0.94l0.95,0.85
				c0.3,0.27,0.43,0.66,0.27,1.08c-0.1,0.19-0.21,0.45-0.33,0.67l-0.13,0.23c-0.17,0.22-0.27,0.42-0.42,0.62
				C25.74,22.14,25.31,22.25,24.92,22.12z M39.69,26.68l-1.25,0.3c-0.22,0.57-0.52,1.1-0.9,1.56l0.4,1.22
				c0.13,0.39,0.02,0.82-0.31,1.06c-0.2,0.15-0.41,0.25-0.62,0.42l-0.23,0.13c-0.22,0.12-0.48,0.23-0.67,0.33
				c-0.41,0.16-0.8,0.03-1.08-0.27l-0.85-0.95c-0.29,0.05-0.59,0.07-0.9,0.07s-0.61-0.03-0.9-0.07l-0.85,0.95
				c-0.31,0.3-0.7,0.43-1.08,0.27c-0.23-0.1-0.45-0.21-0.67-0.33l-0.23-0.13c-0.22-0.17-0.42-0.27-0.62-0.42
				c-0.33-0.25-0.43-0.68-0.31-1.06l0.4-1.22c-0.38-0.46-0.69-0.99-0.9-1.56l-1.25-0.3c-0.4-0.05-0.72-0.36-0.77-0.76
				c-0.03-0.29-0.05-0.58-0.05-0.88c0-0.3,0.02-0.59,0.05-0.88c0.05-0.4,0.37-0.75,0.77-0.8l1.25-0.3c0.22-0.53,0.52-1.06,0.9-1.52
				l-0.4-1.22c-0.13-0.39-0.02-0.82,0.31-1.06c0.2-0.15,0.41-0.33,0.63-0.43l0.23-0.13c0.22-0.12,0.4-0.23,0.67-0.33
				c0.37-0.16,0.77-0.03,1.08,0.27l0.85,0.95c0.29-0.05,0.59-0.07,0.9-0.07s0.61,0.03,0.9,0.07l0.85-0.95
				c0.27-0.3,0.66-0.43,1.08-0.27c0.23,0.1,0.45,0.21,0.67,0.33l0.23,0.13c0.22,0.09,0.43,0.28,0.63,0.43
				c0.33,0.25,0.43,0.68,0.31,1.06l-0.4,1.22c0.38,0.46,0.69,0.99,0.9,1.52l1.25,0.3c0.4,0.05,0.72,0.4,0.77,0.8
				c0.03,0.29,0.05,0.58,0.05,0.88c0,0.3-0.02,0.59-0.05,0.88C40.41,26.32,40.09,26.63,39.69,26.68z"/>
		</g>
	</g>
</g>
<g id="define_a_class" class="st0">
	<path class="st3" d="M42.59,5.41H11.41c-2.46,0-4.45,1.99-4.45,4.45v22.27c0,2.46,1.99,4.45,4.45,4.45h31.18
		c2.46,0,4.45-2,4.45-4.45V9.86C47.04,7.4,45.05,5.41,42.59,5.41z M18.1,29.08c-0.1,0.17-0.28,0.27-0.49,0.27h-3.35
		c-0.2,0-0.39-0.09-0.49-0.27c-0.1-0.18-0.1-0.39,0.01-0.56l1.68-2.79c0.1-0.17,0.28-0.27,0.48-0.27c0.2,0,0.38,0.1,0.48,0.27
		l1.68,2.79C18.19,28.69,18.2,28.91,18.1,29.08z M18.1,22.4c-0.1,0.17-0.28,0.27-0.49,0.27h-3.35c-0.2,0-0.39-0.09-0.49-0.27
		c-0.1-0.18-0.1-0.39,0.01-0.56l1.68-2.79c0.1-0.17,0.28-0.27,0.48-0.27c0.2,0,0.38,0.1,0.48,0.27l1.68,2.79
		C18.19,22.01,18.2,22.23,18.1,22.4z M18.1,15.93c-0.1,0.17-0.28,0.27-0.49,0.27h-3.35c-0.2,0-0.39-0.09-0.49-0.27
		c-0.1-0.18-0.1-0.39,0.01-0.56l1.68-2.79c0.1-0.17,0.28-0.27,0.48-0.27c0.2,0,0.38,0.1,0.48,0.27l1.68,2.79
		C18.19,15.54,18.2,15.75,18.1,15.93z M38.14,29.35H22.55c-0.93,0-1.67-0.74-1.67-1.67c0-0.93,0.74-1.67,1.67-1.67h15.59
		c0.93,0,1.67,0.74,1.67,1.67C39.81,28.61,39.06,29.35,38.14,29.35z M38.14,22.67H22.55c-0.93,0-1.67-0.74-1.67-1.67
		s0.74-1.67,1.67-1.67h15.59c0.93,0,1.67,0.74,1.67,1.67S39.06,22.67,38.14,22.67z M38.14,15.99H22.55c-0.93,0-1.67-0.74-1.67-1.67
		s0.74-1.67,1.67-1.67h15.59c0.93,0,1.67,0.74,1.67,1.67S39.06,15.99,38.14,15.99z"/>
</g>
<g id="create_a_new_object_from_a_class" class="st0">
	<path class="st3" d="M27,2.76C16.93,2.76,8.76,10.93,8.76,21S16.93,39.24,27,39.24S45.24,31.07,45.24,21S37.07,2.76,27,2.76z
		 M26.43,25.83c-0.28,0.5-0.82,0.77-1.4,0.77H15.4c-0.58,0-1.11-0.27-1.4-0.77c-0.29-0.51-0.28-1.12,0.02-1.62l4.82-8.03
		c0.29-0.48,0.81-0.78,1.38-0.78c0.56,0,1.09,0.3,1.38,0.78l4.82,8.03C26.72,24.71,26.72,25.33,26.43,25.83z M39.76,24.62
		c0,1.11-0.9,2.01-2.01,2.01h-7.23c-1.11,0-2.01-0.9-2.01-2.01v-7.23c0-1.11,0.9-2.01,2.01-2.01h7.23c1.11,0,2.01,0.9,2.01,2.01
		V24.62z"/>
</g>
<g id="call_a_class_method" class="st0">
	<g class="st1">
		<path class="st2" d="M46.36,18.63c-0.14-1.09-1-2.03-2.08-2.16l-2.72-0.65c-0.65-1.82-1.62-3.48-2.86-4.92l0.86-2.62
			c0.35-1.04,0.06-2.21-0.82-2.87c-0.55-0.41-1.11-0.89-1.69-1.15l-0.62-0.35c-0.58-0.33-1.18-0.62-1.8-0.88
			c-1.11-0.43-2.17-0.09-2.9,0.72l-1.84,2.06c-0.94-0.18-1.9-0.27-2.89-0.27c-0.99,0-1.95,0.09-2.89,0.27l-1.84-2.06
			c-0.84-0.81-1.89-1.15-2.9-0.72c-0.72,0.27-1.22,0.56-1.8,0.88l-0.62,0.35c-0.58,0.26-1.15,0.74-1.69,1.15
			c-0.88,0.66-1.17,1.82-0.82,2.87l0.86,2.62c-1.24,1.43-2.22,3.1-2.86,4.92l-2.72,0.65c-1.08,0.13-1.94,1.07-2.08,2.16
			C7.54,19.41,7.5,20.2,7.5,21c0,0.8,0.05,1.59,0.14,2.37c0.14,1.09,1,1.93,2.08,2.05l2.68,0.64c0.65,1.87,1.64,3.57,2.9,5.03
			l-0.86,2.62c-0.35,1.04-0.06,2.21,0.82,2.87c0.55,0.41,1.1,0.68,1.68,1.14l0.63,0.36c0.58,0.33,1.18,0.62,1.8,0.88
			c1.01,0.43,2.07,0.09,2.9-0.72l1.84-2.06c0.94,0.18,1.9,0.27,2.89,0.27s1.95-0.09,2.89-0.27l1.84,2.06
			c0.73,0.81,1.79,1.15,2.9,0.72c0.51-0.27,1.22-0.56,1.8-0.88l0.63-0.36c0.58-0.45,1.14-0.73,1.68-1.14
			c0.88-0.66,1.17-1.82,0.82-2.87l-0.86-2.62c1.26-1.46,2.26-3.17,2.9-5.03l2.68-0.64c1.08-0.13,1.94-0.96,2.08-2.05
			c0.09-0.78,0.14-1.57,0.14-2.37C46.5,20.2,46.46,19.41,46.36,18.63z M27.9,14.87c0.24-0.1,0.52,0.02,0.61,0.26
			c0.1,0.24-0.02,0.52-0.26,0.61c-0.27,0.11-0.67,0.94-0.67,2.14c0,1.21,0.4,2.04,0.67,2.14c0.24,0.1,0.36,0.37,0.26,0.61
			c-0.07,0.18-0.25,0.3-0.44,0.3c-0.06,0-0.12-0.01-0.17-0.03c-0.87-0.35-1.26-1.77-1.26-3.02C26.63,16.64,27.02,15.22,27.9,14.87z
			 M20.85,21.07c-0.61,0-1.1-0.49-1.1-1.1c0-0.61,0.49-1.1,1.1-1.1c0.07,0,0.35-0.18,0.62-0.74c0.23-0.46,0.39-1.05,0.48-1.69h-1.12
			c-0.61,0-1.1-0.49-1.1-1.1s0.49-1.1,1.1-1.1h1.26c0.11-0.99,0.35-1.91,0.72-2.66c0.63-1.27,1.55-1.97,2.61-1.97
			c0.61,0,1.1,0.49,1.1,1.1c0,0.61-0.49,1.1-1.1,1.1c-0.07,0-0.35,0.18-0.62,0.74c-0.23,0.46-0.39,1.05-0.48,1.69h1.12
			c0.61,0,1.1,0.49,1.1,1.1s-0.49,1.1-1.1,1.1h-1.26c-0.11,0.99-0.35,1.91-0.72,2.66C22.83,20.37,21.9,21.07,20.85,21.07z
			 M31.98,19.02c0.17,0.17,0.17,0.45,0,0.62c-0.09,0.09-0.2,0.13-0.31,0.13s-0.22-0.04-0.31-0.13l-0.91-0.91l-0.91,0.91
			c-0.09,0.09-0.2,0.13-0.31,0.13c-0.11,0-0.22-0.04-0.31-0.13c-0.17-0.17-0.17-0.45,0-0.62l0.91-0.91l-0.91-0.91
			c-0.17-0.17-0.17-0.45,0-0.62c0.17-0.17,0.45-0.17,0.62,0l0.91,0.91l0.91-0.91c0.17-0.17,0.45-0.17,0.62,0
			c0.17,0.17,0.17,0.45,0,0.62l-0.91,0.91L31.98,19.02z M33.01,20.91c-0.06,0.02-0.12,0.03-0.17,0.03c-0.19,0-0.36-0.11-0.44-0.3
			c-0.1-0.24,0.02-0.52,0.26-0.61c0.27-0.11,0.67-0.94,0.67-2.14c0-1.21-0.4-2.04-0.67-2.14c-0.24-0.1-0.36-0.37-0.26-0.61
			c0.1-0.24,0.37-0.36,0.61-0.26c0.87,0.35,1.26,1.77,1.26,3.02C34.27,19.14,33.88,20.56,33.01,20.91z"/>
		<g>
			<path class="st4" d="M26.81,30.83c-0.16,0.28-0.45,0.42-0.77,0.42h-5.32c-0.32,0-0.61-0.15-0.77-0.42
				c-0.16-0.28-0.16-0.62,0.01-0.89l2.66-4.43c0.16-0.27,0.45-0.43,0.76-0.43c0.31,0,0.6,0.16,0.76,0.43l2.66,4.43
				C26.97,30.21,26.97,30.55,26.81,30.83z"/>
			<path class="st4" d="M34.16,30.16c0,0.61-0.5,1.11-1.11,1.11h-3.99c-0.61,0-1.11-0.5-1.11-1.11v-3.99c0-0.61,0.5-1.11,1.11-1.11
				h3.99c0.61,0,1.11,0.5,1.11,1.11V30.16z"/>
		</g>
	</g>
</g>
<g id="call_a_function" class="st0">
	<path class="st3" d="M46.36,18.63c-0.14-1.09-1-2.03-2.08-2.16l-2.72-0.65c-0.65-1.82-1.62-3.48-2.86-4.92l0.86-2.62
		c0.35-1.04,0.06-2.21-0.82-2.87c-0.55-0.41-1.11-0.89-1.69-1.15l-0.62-0.35c-0.58-0.33-1.18-0.62-1.8-0.88
		c-1.11-0.43-2.17-0.09-2.9,0.72l-1.84,2.06c-0.94-0.18-1.9-0.27-2.89-0.27c-0.99,0-1.95,0.09-2.89,0.27l-1.84-2.06
		c-0.84-0.81-1.89-1.15-2.9-0.72c-0.72,0.27-1.22,0.56-1.8,0.88l-0.62,0.35c-0.58,0.26-1.15,0.74-1.69,1.15
		c-0.88,0.66-1.17,1.82-0.82,2.87l0.86,2.62c-1.24,1.43-2.22,3.1-2.86,4.92l-2.72,0.65c-1.08,0.13-1.94,1.07-2.08,2.16
		C7.54,19.41,7.5,20.2,7.5,21c0,0.8,0.05,1.59,0.14,2.37c0.14,1.09,1,1.93,2.08,2.05l2.68,0.64c0.65,1.87,1.64,3.57,2.9,5.03
		l-0.86,2.62c-0.35,1.04-0.06,2.21,0.82,2.87c0.55,0.41,1.1,0.68,1.68,1.14l0.63,0.36c0.58,0.33,1.18,0.62,1.8,0.88
		c1.01,0.43,2.07,0.09,2.9-0.72l1.84-2.06c0.94,0.18,1.9,0.27,2.89,0.27s1.95-0.09,2.89-0.27l1.84,2.06
		c0.73,0.81,1.79,1.15,2.9,0.72c0.51-0.27,1.22-0.56,1.8-0.88l0.63-0.36c0.58-0.45,1.14-0.73,1.68-1.14
		c0.88-0.66,1.17-1.82,0.82-2.87l-0.86-2.62c1.26-1.46,2.26-3.17,2.9-5.03l2.68-0.64c1.08-0.13,1.94-0.96,2.08-2.05
		c0.09-0.78,0.14-1.57,0.14-2.37C46.5,20.2,46.46,19.41,46.36,18.63z M25.01,21.74h-1.99c-0.17,1.57-0.56,3.02-1.14,4.21
		c-0.99,2.01-2.45,3.12-4.12,3.12c-0.96,0-1.75-0.78-1.75-1.75c0-0.96,0.78-1.75,1.75-1.75c0.11,0,0.55-0.28,0.99-1.17
		c0.36-0.73,0.62-1.66,0.76-2.67h-1.77c-0.96,0-1.75-0.78-1.75-1.75c0-0.96,0.78-1.75,1.75-1.75h1.99c0.17-1.57,0.56-3.02,1.14-4.21
		c0.99-2.01,2.45-3.12,4.12-3.12c0.96,0,1.75,0.78,1.75,1.75c0,0.96-0.78,1.75-1.75,1.75c-0.11,0-0.55,0.28-0.99,1.17
		c-0.36,0.73-0.62,1.66-0.76,2.67h1.77c0.96,0,1.75,0.78,1.75,1.75C26.76,20.95,25.97,21.74,25.01,21.74z M29.46,27.43
		c0.38,0.15,0.57,0.59,0.42,0.97c-0.12,0.29-0.4,0.47-0.69,0.47c-0.09,0-0.19-0.02-0.28-0.05c-1.38-0.55-2-2.8-2-4.78
		c0-1.98,0.62-4.22,2-4.78c0.38-0.15,0.82,0.03,0.97,0.42c0.15,0.38-0.03,0.82-0.42,0.97c-0.43,0.17-1.06,1.48-1.06,3.39
		S29.02,27.26,29.46,27.43z M35.36,25.82c0.27,0.27,0.27,0.71,0,0.98c-0.14,0.14-0.31,0.2-0.49,0.2s-0.35-0.07-0.49-0.2l-1.43-1.43
		l-1.43,1.43c-0.14,0.14-0.31,0.2-0.49,0.2c-0.18,0-0.35-0.07-0.49-0.2c-0.27-0.27-0.27-0.71,0-0.98l1.43-1.43l-1.43-1.43
		c-0.27-0.27-0.27-0.71,0-0.98c0.27-0.27,0.71-0.27,0.98,0l1.43,1.43l1.43-1.43c0.27-0.27,0.71-0.27,0.98,0
		c0.27,0.27,0.27,0.71,0,0.98l-1.43,1.43L35.36,25.82z M36.99,28.82c-0.09,0.04-0.18,0.05-0.28,0.05c-0.3,0-0.58-0.18-0.69-0.47
		c-0.15-0.38,0.03-0.82,0.42-0.97c0.43-0.17,1.06-1.48,1.06-3.39s-0.63-3.22-1.06-3.39c-0.38-0.15-0.57-0.59-0.42-0.97
		c0.15-0.38,0.59-0.57,0.97-0.42c1.38,0.55,2,2.8,2,4.78C38.99,26.02,38.37,28.27,36.99,28.82z"/>
</g>
<g id="add_a_http_header" class="st0">
	<path class="st3" d="M41.48,5.41H12.52c-3.07,0-5.57,2.49-5.57,5.57v20.04c0,3.08,2.49,5.57,5.57,5.57h26.73h2.22
		c3.07,0,5.57-2.49,5.57-5.57V10.98C47.04,7.9,44.55,5.41,41.48,5.41z M42.59,31.02c0,0.61-0.5,1.11-1.11,1.11h-2.06H12.52
		c-0.62,0-1.11-0.5-1.11-1.11V18.91h31.18V31.02z M42.59,14.74H11.41v-3.76c0-0.61,0.5-1.11,1.11-1.11h28.95
		c0.62,0,1.11,0.5,1.11,1.11V14.74z"/>
</g>
<g id="if" class="st0">
	<path class="st3" d="M54.11,21L54.11,21c0-1.15-0.93-2.09-2.09-2.09h-5.07L30.97,2.89c-2.17-2.17-5.7-2.18-7.87,0L7.12,18.91H1.98
		c-1.15,0-2.09,0.93-2.09,2.09v0c0,1.15,0.93,2.09,2.09,2.09h5.14l7.26,7.3l8.72,8.72c2.17,2.17,5.7,2.18,7.87,0l8.73-8.71
		l1.73-1.75l5.52-5.56h5.07C53.17,23.09,54.11,22.15,54.11,21z M27.82,35.96c-0.43,0.43-1.14,0.44-1.57,0L12.07,21.79
		c-0.44-0.44-0.43-1.14,0-1.57L26.25,6.04c0.43-0.43,1.14-0.44,1.57,0L42,20.21c0.44,0.44,0.43,1.14,0,1.57L27.82,35.96z"/>
</g>
<g id="switch" class="st0">
	<path class="st3" d="M20.32,27.68c-3.75,0-6.68-2.99-6.68-6.68c0-3.75,2.93-6.68,6.68-6.68c3.69,0,6.68,2.93,6.68,6.68
		C27,24.69,24.01,27.68,20.32,27.68z M33.68,34.36H20.32c-7.38,0-13.36-5.99-13.36-13.36c0-7.44,5.98-13.36,13.36-13.36h13.36
		c7.38,0,13.36,5.92,13.36,13.36C47.04,28.38,41.06,34.36,33.68,34.36z M33.68,12.09H20.32c-4.92,0-8.91,3.99-8.91,8.91
		s3.99,8.91,8.91,8.91h13.36c4.92,0,8.91-3.99,8.91-8.91S38.6,12.09,33.68,12.09z"/>
</g>
<g id="for_loop" class="st0">
	<g class="st1">
		<g>
			<path class="st2" d="M27,2.76C16.93,2.76,8.76,10.93,8.76,21S16.93,39.24,27,39.24S45.24,31.07,45.24,21S37.07,2.76,27,2.76z
				 M35.67,28.96c-4.42,4.42-11.63,4.42-16.05,0c-2.48-2.48-3.64-5.97-3.23-9.4l-2.52,2.52c-0.63,0.63-1.66,0.63-2.29,0
				c-0.63-0.63-0.63-1.66,0-2.29l5.16-5.16c0.63-0.63,1.66-0.63,2.29,0l5.16,5.16c0.63,0.63,0.63,1.66,0,2.29
				c-0.63,0.63-1.66,0.63-2.29,0l-2.27-2.27c-0.35,2.5,0.48,5.06,2.29,6.86c3.16,3.16,8.3,3.16,11.46,0
				c1.21-1.21,1.96-2.72,2.24-4.29l0,0c0.36-2.17-0.27-4.76-1.7-6.57c-0.17-0.21-0.35-0.4-0.54-0.6c-0.5-0.5-1.05-0.93-1.65-1.27
				c-2.23-1.27-4.99-1.38-7.36-0.16c-0.8,0.41-1.77,0.09-2.18-0.71c-0.44-0.76-0.1-1.77,0.73-2.15c1.96-1,4.1-1.37,6.17-1.15
				c0.05,0,0.11,0.01,0.16,0.02c0.03,0,0.07,0.01,0.1,0.02c2.34,0.31,4.58,1.37,6.35,3.14c0.26,0.26,0.5,0.53,0.73,0.81
				C40.08,18.2,39.83,24.81,35.67,28.96z"/>
		</g>
	</g>
</g>
<g id="for_each" class="st0">
	<g class="st1">
		<path class="st2" d="M27,6.8c3.79,0,7.36,1.48,10.04,4.16c2.68,2.68,4.16,6.25,4.16,10.04s-1.48,7.36-4.16,10.04
			C34.36,33.72,30.79,35.2,27,35.2s-7.36-1.48-10.04-4.16C14.28,28.36,12.8,24.79,12.8,21s1.48-7.36,4.16-10.04
			C19.64,8.28,23.21,6.8,27,6.8 M27,2.76C16.93,2.76,8.76,10.93,8.76,21S16.93,39.24,27,39.24S45.24,31.07,45.24,21
			S37.07,2.76,27,2.76L27,2.76z"/>
		<path class="st2" d="M14.21,21.88c0.53,0.53,1.38,0.53,1.9,0l2.09-2.09c-0.34,2.84,0.62,5.73,2.67,7.79
			c3.66,3.66,9.63,3.66,13.3,0c3.44-3.44,3.65-8.91,0.63-12.6c-0.19-0.24-0.39-0.46-0.6-0.67c-1.46-1.46-3.32-2.34-5.26-2.6
			c-0.03,0-0.06-0.01-0.08-0.01c-0.04-0.01-0.09-0.01-0.13-0.01c-1.72-0.18-3.49,0.12-5.11,0.95c-0.69,0.31-0.97,1.15-0.61,1.78
			c0.34,0.66,1.15,0.92,1.81,0.59c1.96-1.01,4.25-0.92,6.1,0.13c0.49,0.29,0.95,0.64,1.37,1.06c0.16,0.16,0.31,0.32,0.45,0.49
			c1.19,1.51,1.71,3.65,1.41,5.44l0,0c-0.23,1.3-0.85,2.55-1.86,3.55c-2.62,2.62-6.87,2.62-9.49,0c-1.5-1.5-2.18-3.61-1.9-5.68
			l1.88,1.88c0.53,0.53,1.38,0.53,1.9,0c0.53-0.53,0.53-1.38,0-1.9l-4.28-4.28c-0.53-0.53-1.38-0.53-1.9,0l-4.28,4.28
			C13.68,20.51,13.68,21.36,14.21,21.88z"/>
	</g>
</g>
<g id="include_file" class="st0">
	<g class="st1">
		<path class="st2" d="M27,2.76C16.93,2.76,8.76,10.93,8.76,21S16.93,39.24,27,39.24S45.24,31.07,45.24,21S37.07,2.76,27,2.76z
			 M27.3,10.96l5.19,5.19H27.3V10.96z M29.9,31.7H19.53c-1.43,0-2.59-1.16-2.59-2.59V13.55c0-1.43,1.16-2.59,2.59-2.59h6.48v5.19
			c0,0.72,0.58,1.3,1.3,1.3h5.19v1.56c-2.99,0.85-5.19,3.6-5.19,6.86c0,2.39,1.18,4.51,2.99,5.8C30.16,31.69,30.03,31.7,29.9,31.7z
			 M34.43,31.7c-3.22,0-5.83-2.61-5.83-5.83s2.61-5.83,5.83-5.83s5.83,2.61,5.83,5.83S37.65,31.7,34.43,31.7z"/>
		<path class="st2" d="M36.24,24.11l-2.46,2.46l-1.16-1.16c-0.25-0.26-0.66-0.26-0.92,0c-0.26,0.25-0.26,0.66,0,0.92l1.62,1.62
			c0.25,0.26,0.66,0.26,0.92,0l2.92-2.92c0.26-0.25,0.26-0.66,0-0.92C36.91,23.86,36.5,23.86,36.24,24.11z"/>
	</g>
</g>
<g id="echo_variable_or_string" class="st0">
	<g class="st1">
		<rect x="21.84" y="24.87" class="st2" width="10.32" height="3.87"/>
		<circle class="st2" cx="34.09" cy="21.64" r="0.97"/>
		<path class="st2" d="M27,2.76C16.93,2.76,8.76,10.93,8.76,21S16.93,39.24,27,39.24S45.24,31.07,45.24,21S37.07,2.76,27,2.76z
			 M19.26,11.97c0-0.71,0.58-1.29,1.29-1.29h11.08c0.34,0,0.67,0.14,0.91,0.38l1.82,1.82c0.24,0.24,0.38,0.57,0.38,0.91v3.34h-2.58
			v-2.8l-1.07-1.07h-9.25v3.87h-2.58V11.97z M37.32,24.87c0,0.71-0.58,1.29-1.29,1.29h-1.29v3.87c0,0.71-0.58,1.29-1.29,1.29h-12.9
			c-0.71,0-1.29-0.58-1.29-1.29v-3.87h-1.29c-0.71,0-1.29-0.58-1.29-1.29V21c0-1.42,1.15-2.58,2.58-2.58h15.48
			c1.42,0,2.58,1.16,2.58,2.58V24.87z"/>
	</g>
</g>
<g id="write_some_php_code" class="st0">
	<g class="st1">
		<g>
			<path class="st2" d="M41.48,36.59c3.07,0,5.57-2.49,5.57-5.57V10.98c0-3.08-2.49-5.57-5.57-5.57H12.52
				c-3.07,0-5.57,2.49-5.57,5.57v20.04c0,3.08,2.49,5.57,5.57,5.57h26.73H41.48z M39.42,32.14H12.52c-0.62,0-1.11-0.5-1.11-1.11
				V10.98c0-0.61,0.5-1.11,1.11-1.11h28.95c0.62,0,1.11,0.5,1.11,1.11v20.04c0,0.61-0.5,1.11-1.11,1.11H39.42z"/>
		</g>
		<g>
			<path class="st2" d="M24.16,28.78c-0.54-0.2-0.81-0.81-0.61-1.35l0.32-0.96l4.63-12.63c0.2-0.54,0.8-0.82,1.34-0.62l0,0
				c0.54,0.2,0.82,0.8,0.62,1.34l-4.97,13.6C25.29,28.69,24.7,28.98,24.16,28.78z"/>
			<path class="st2" d="M33.14,28.14c-0.27,0-0.53-0.1-0.74-0.31c-0.41-0.41-0.41-1.07,0-1.47l5.52-5.52l-5.52-5.52
				c-0.41-0.41-0.41-1.07,0-1.47c0.41-0.41,1.07-0.41,1.47,0l6.26,6.26c0.41,0.41,0.41,1.07,0,1.47l-6.26,6.26
				C33.68,28.04,33.41,28.14,33.14,28.14z"/>
			<path class="st2" d="M20.86,28.14c-0.27,0-0.53-0.1-0.74-0.31l-6.26-6.26c-0.41-0.41-0.41-1.07,0-1.47l6.26-6.26
				c0.41-0.41,1.07-0.41,1.47,0c0.41,0.41,0.41,1.07,0,1.47l-5.52,5.52l5.52,5.52c0.41,0.41,0.41,1.07,0,1.47
				C21.39,28.04,21.13,28.14,20.86,28.14z"/>
		</g>
	</g>
</g>
<g id="break" class="st0">
	<path class="st3" d="M37.2,5.41H16.8c-3.07,0-5.57,2.49-5.57,5.57v20.04c0,3.08,2.49,5.57,5.57,5.57h18.17h2.22
		c3.07,0,5.57-2.49,5.57-5.57V10.98C42.76,7.9,40.27,5.41,37.2,5.41z M19.98,30.33L19.98,30.33c-1.08-0.39-1.65-1.59-1.26-2.67
		l1.65-4.57H16.1c-1.15,0-2.09-0.93-2.09-2.09v0c0-1.15,0.93-2.09,2.09-2.09h5.77l2.16-5.99c0.39-1.08,1.59-1.65,2.67-1.26
		c1.08,0.39,1.65,1.59,1.26,2.67l-5.31,14.73C22.26,30.16,21.07,30.72,19.98,30.33z M39.99,21c0,1.15-0.93,2.09-2.09,2.09h-5.77
		l-2.16,5.99c-0.39,1.08-1.59,1.65-2.67,1.26c-1.08-0.39-1.65-1.59-1.26-2.67l5.31-14.73c0.39-1.08,1.59-1.65,2.67-1.26h0
		c1.08,0.39,1.65,1.59,1.26,2.67l-1.65,4.57h4.27C39.05,18.91,39.99,19.85,39.99,21L39.99,21z"/>
</g>
<g id="return" class="st0">
	<path class="st3" d="M37.2,5.41H16.8c-3.07,0-5.57,2.49-5.57,5.57v20.04c0,3.08,2.49,5.57,5.57,5.57h18.17h2.22
		c3.07,0,5.57-2.49,5.57-5.57V10.98C42.76,7.9,40.27,5.41,37.2,5.41z M37.8,23.63c0,1.06-0.86,1.91-1.91,1.91H22.71l1.36,1.36
		c0.75,0.75,0.75,1.96,0,2.71c-0.37,0.37-0.86,0.56-1.35,0.56c-0.49,0-0.98-0.19-1.35-0.56l-4.6-4.6c-0.75-0.75-0.75-1.96,0-2.71
		l0.02-0.02c0,0,0,0,0,0l4.58-4.58c0.75-0.75,1.96-0.75,2.71,0c0.75,0.75,0.75,1.96,0,2.71l-1.31,1.31h11.21v-7.98
		c0-1.06,0.86-1.91,1.91-1.91c1.06,0,1.91,0.86,1.91,1.91V23.63z"/>
</g>
<g id="die__x28_stop_script_x29_" class="st0">
	<path class="st3" d="M41.76,13.62l-7.38-7.38c-0.57-0.57-1.35-0.9-2.16-0.9H21.78c-0.81,0-1.59,0.32-2.16,0.9l-7.38,7.38
		c-0.57,0.57-0.9,1.35-0.9,2.16v10.44c0,0.81,0.32,1.59,0.9,2.16l7.38,7.38c0.57,0.57,1.35,0.9,2.16,0.9h10.44
		c0.81,0,1.59-0.32,2.16-0.9l7.38-7.38c0.57-0.57,0.9-1.35,0.9-2.16V15.78C42.66,14.97,42.34,14.19,41.76,13.62z M34.56,23.73
		c0,3.31-2.69,6-6,6h-1.29c-1.82,0-3.54-0.71-4.82-2l-3.86-3.86c-0.27-0.27-0.4-0.62-0.4-0.97c0-0.73,0.58-1.36,1.36-1.36
		c0.35,0,0.7,0.13,0.96,0.4l2.04,2.03v-9.53c0-0.6,0.49-1.09,1.09-1.09c0.6,0,1.09,0.49,1.09,1.09l0,6c0,0.3,0.24,0.55,0.54,0.55
		c0.3,0,0.55-0.24,0.55-0.55l0-7.09c0-0.6,0.49-1.09,1.09-1.09c0.6,0,1.09,0.49,1.09,1.09l0,7.09c0,0.3,0.24,0.55,0.54,0.55
		c0.3,0,0.55-0.25,0.55-0.55v-6c0-0.6,0.49-1.09,1.09-1.09c0.6,0,1.09,0.49,1.09,1.09l0,6c0,0.3,0.24,0.55,0.54,0.55
		c0.3,0,0.55-0.25,0.55-0.55v-3.82c0-0.6,0.49-1.09,1.09-1.09s1.09,0.49,1.09,1.09V23.73z"/>
</g>
<g id="get_url_via_CURL" class="st0">
	<path class="st3" d="M43.13,12.48l-4.5,2.87c0.45,1.75,0.08,3.69-1.17,5.18l-4.1,4.91c-2.06,2.47-5.73,2.8-8.2,0.73
		c-2.18-1.83-2.73-4.96-1.28-7.42l0.04-0.07c0.33-0.61,1.12-0.81,1.76-0.46c0.61,0.33,0.82,1.12,0.46,1.76l-0.04,0.07
		c-0.81,1.33-0.5,3.12,0.72,4.14c1.37,1.15,3.42,0.96,4.57-0.41l4.1-4.9c1.15-1.38,0.96-3.46-0.41-4.57
		c-1.21-1.02-2.99-1.01-4.19,0.03l-0.06,0.05c-0.54,0.46-1.36,0.37-1.81-0.14c-0.46-0.54-0.4-1.35,0.14-1.82l0.06-0.05
		c2.16-1.85,5.34-1.87,7.53-0.05c0.15,0.12,0.29,0.25,0.42,0.39l4.35-2.78C38.17,5.58,32.91,2.76,27,2.76
		C16.93,2.76,8.76,10.93,8.76,21c0,3.08,0.76,5.97,2.11,8.52l4.5-2.87c-0.45-1.75-0.08-3.69,1.17-5.18l4.1-4.94
		c2.03-2.43,5.74-2.76,8.16-0.73c2.18,1.83,2.77,5,1.32,7.45l-0.04,0.07c-0.36,0.61-1.15,0.82-1.76,0.46
		c-0.61-0.36-0.82-1.15-0.46-1.76l0.04-0.07c0.8-1.37,0.5-3.12-0.72-4.14c-1.37-1.15-3.42-0.96-4.57,0.41l-4.1,4.9
		c-1.15,1.34-0.97,3.42,0.41,4.57c1.21,1.02,2.99,1.01,4.19-0.03l0.06-0.09c0.54-0.43,1.36-0.37,1.82,0.17
		c0.46,0.54,0.4,1.35-0.14,1.82l-0.06,0.05c-2.19,1.86-5.34,1.87-7.53,0.05c-0.15-0.12-0.29-0.25-0.42-0.39l-4.35,2.78
		c3.33,4.36,8.59,7.18,14.5,7.18c10.07,0,18.24-8.16,18.24-18.24C45.24,17.92,44.47,15.03,43.13,12.48z"/>
</g>
<g id="get_bean_object" class="st0">
	<g class="st1">
		<path class="st2" d="M29.27,16.26c-0.01,0-1.4,0.18-1.87,0.18c-0.47,0-1.86-0.18-1.87-0.18c-0.66-0.13-1.3,0.3-1.43,0.96
			c-0.13,0.66,0.3,1.3,0.96,1.43c0.06,0.01,1.11,0.23,2.34,0.23c1.34,0,2.28-0.22,2.34-0.23c0.66-0.13,1.09-0.77,0.96-1.43
			C30.57,16.55,29.93,16.12,29.27,16.26z"/>
		<path class="st2" d="M27,2.76C16.93,2.76,8.76,10.93,8.76,21S16.93,39.24,27,39.24S45.24,31.07,45.24,21S37.07,2.76,27,2.76z
			 M37.67,24.52c-3.33,2.48-5.93,3.32-10.32,3.32S20.35,27,17.02,24.52c-2.29-1.71-2.95-5.23-1.46-7.87
			c1.48-2.64,4.25-2.85,6.83-1.69c1.06,0.48,3.77,0.55,4.95,0.55c1.18,0,3.76,0.07,4.95-0.55c2.52-1.3,5.35-0.95,6.83,1.69
			C40.62,19.28,39.96,22.81,37.67,24.52z"/>
	</g>
</g>
<g id="connect_with_REST_web_service">
	<g>
		<path class="st4" d="M27,2.76C16.93,2.76,8.76,10.93,8.76,21S16.93,39.24,27,39.24S45.24,31.07,45.24,21S37.07,2.76,27,2.76z"/>
		<path class="st2" d="M24.69,27.66c0,0,0.01,0,0.01-0.01l1.07-0.67l-4.71-7.37l-1.08,0.69c-2.03,1.3-2.63,4-1.33,6.03
			C19.95,28.36,22.66,28.96,24.69,27.66z"/>
		<path class="st2" d="M43.13,12.48l-4.56,2.91c1.22,3.2,0.07,6.92-2.92,8.84l-2.33,1.52c0,0-0.01,0-0.01,0.01
			c-0.33,0.21-0.74,0.29-1.13,0.2c-0.39-0.08-0.74-0.32-0.95-0.66l-6.34-9.92c-0.45-0.7-0.24-1.63,0.46-2.08l2.35-1.5
			c3-1.91,6.86-1.39,9.25,1.06l4.56-2.91C38.17,5.58,32.91,2.76,27,2.76C16.93,2.76,8.76,10.93,8.76,21c0,3.08,0.76,5.97,2.11,8.52
			l4.56-2.91c-1.22-3.2-0.07-6.93,2.93-8.84l2.35-1.5c0.7-0.45,1.63-0.24,2.08,0.46l6.34,9.92c0.22,0.34,0.29,0.75,0.2,1.14
			c-0.09,0.39-0.32,0.73-0.66,0.94c0,0-0.01,0-0.01,0.01l-2.36,1.48c-2.99,1.91-6.86,1.38-9.25-1.06l-4.56,2.91
			c3.33,4.36,8.59,7.18,14.5,7.18c10.07,0,18.24-8.16,18.24-18.24C45.24,17.92,44.47,15.03,43.13,12.48z"/>
		<path class="st2" d="M29.31,14.34l-1.08,0.69l4.71,7.37l1.06-0.69c0,0,0.01,0,0.01-0.01c2.03-1.3,2.63-4,1.33-6.03
			C34.05,13.64,31.34,13.04,29.31,14.34z"/>
	</g>
</g>
<g id="connect_with_SOAP_web_service" class="st0">
	<path class="st5" d="M27,2.76C16.93,2.76,8.76,10.93,8.76,21S16.93,39.24,27,39.24S45.24,31.07,45.24,21S37.07,2.76,27,2.76z"/>
	<path class="st3" d="M43.13,12.48l-4.56,2.91c1.22,3.2,0.07,6.92-2.92,8.84l-2.33,1.52c0,0-0.01,0-0.01,0.01
		c-0.33,0.21-0.74,0.29-1.13,0.2c-0.39-0.08-0.74-0.32-0.95-0.66l-6.34-9.92c-0.45-0.7-0.24-1.63,0.46-2.08l2.35-1.5
		c3-1.91,6.86-1.39,9.25,1.06l4.56-2.91C38.17,5.58,32.91,2.76,27,2.76C16.93,2.76,8.76,10.93,8.76,21c0,3.08,0.76,5.97,2.11,8.52
		l4.56-2.91c-1.22-3.2-0.07-6.93,2.93-8.84l2.35-1.5c0.7-0.45,1.63-0.24,2.08,0.46l6.34,9.92c0.22,0.34,0.29,0.75,0.2,1.14
		c-0.09,0.39-0.32,0.73-0.66,0.94c0,0-0.01,0-0.01,0.01l-2.36,1.48c-2.99,1.91-6.86,1.38-9.25-1.06l-4.56,2.91
		c3.33,4.36,8.59,7.18,14.5,7.18c10.07,0,18.24-8.16,18.24-18.24C45.24,17.92,44.47,15.03,43.13,12.48z"/>
</g>
<g id="try_and_catch_exception" class="st0">
	<g class="st1">
		<path class="st4" d="M27,2.76C16.93,2.76,8.76,10.93,8.76,21S16.93,39.24,27,39.24S45.24,31.07,45.24,21S37.07,2.76,27,2.76z"/>
		
			<rect x="17.23" y="24.35" transform="matrix(0.6507 -0.7593 0.7593 0.6507 -12.7797 22.4292)" class="st2" width="1.52" height="1.52"/>
		
			<rect x="16.91" y="20.24" transform="matrix(0.6507 -0.7593 0.7593 0.6507 -9.7733 20.7552)" class="st2" width="1.52" height="1.52"/>
		
			<rect x="15.02" y="22.45" transform="matrix(0.6507 -0.7593 0.7593 0.6507 -12.1135 20.0891)" class="st2" width="1.52" height="1.52"/>
		
			<rect x="18.81" y="18.03" transform="matrix(0.6507 -0.7593 0.7593 0.6507 -7.4332 21.4215)" class="st2" width="1.52" height="1.52"/>
		
			<rect x="19.12" y="22.14" transform="matrix(0.6507 -0.7593 0.7593 0.6507 -10.4396 23.095)" class="st2" width="1.52" height="1.52"/>
		
			<rect x="21.02" y="19.93" transform="matrix(0.6507 -0.7593 0.7593 0.6507 -8.0995 23.7613)" class="st2" width="1.52" height="1.52"/>
		
			<rect x="23.23" y="21.82" transform="matrix(0.6507 -0.7593 0.7593 0.6507 -8.7658 26.1014)" class="st2" width="1.52" height="1.52"/>
		
			<rect x="19.44" y="26.24" transform="matrix(0.6507 -0.7593 0.7593 0.6507 -13.446 24.7691)" class="st2" width="1.52" height="1.52"/>
		<path class="st2" d="M27,2.76C16.93,2.76,8.76,10.93,8.76,21S16.93,39.24,27,39.24S45.24,31.07,45.24,21S37.07,2.76,27,2.76z
			 M27.26,9.82c-0.27-0.27-0.27-0.71,0-0.98c0.27-0.27,0.71-0.27,0.98,0l1.04,1.04l1.04-1.04c0.27-0.27,0.71-0.27,0.98,0
			c0.27,0.27,0.27,0.71,0,0.98l-1.04,1.04l1.04,1.04c0.27,0.27,0.27,0.71,0,0.98c-0.14,0.14-0.31,0.2-0.49,0.2
			c-0.18,0-0.36-0.07-0.49-0.2l-1.04-1.04l-1.04,1.04c-0.14,0.14-0.31,0.2-0.49,0.2s-0.36-0.07-0.49-0.2
			c-0.27-0.27-0.27-0.71,0-0.98l1.04-1.04L27.26,9.82z M29.02,24.98c-0.14,0.16-0.33,0.24-0.53,0.24c-0.16,0-0.32-0.06-0.45-0.17
			l-1.92-1.65l-0.99,1.15l1.92,1.65c0.29,0.25,0.33,0.69,0.08,0.98c-0.14,0.16-0.33,0.24-0.53,0.24c-0.16,0-0.32-0.06-0.45-0.17
			l-1.92-1.65l-0.99,1.15l1.6,1.37c0.29,0.25,0.33,0.69,0.08,0.98c-0.14,0.16-0.33,0.24-0.53,0.24c-0.16,0-0.32-0.06-0.45-0.17
			l-1.6-1.37l-0.99,1.15l0.22,0.19c0.29,0.25,0.33,0.69,0.08,0.98c-0.14,0.16-0.33,0.24-0.53,0.24c-0.16,0-0.32-0.06-0.45-0.17
			l-0.22-0.19l-0.19,0.22c-0.14,0.16-0.33,0.24-0.53,0.24c-0.16,0-0.32-0.06-0.45-0.17c-0.29-0.25-0.33-0.69-0.08-0.98l0.19-0.22
			l-1.15-0.99l-0.92,1.07c-0.14,0.16-0.33,0.24-0.53,0.24c-0.16,0-0.32-0.06-0.45-0.17c-0.29-0.25-0.33-0.69-0.08-0.98l0.92-1.07
			l-1.15-0.99l-0.86,1.01c-0.14,0.16-0.33,0.24-0.53,0.24c-0.16,0-0.32-0.06-0.45-0.17c-0.29-0.25-0.33-0.69-0.08-0.98l0.86-1.01
			l-1.15-0.99l-0.19,0.22c-0.14,0.16-0.33,0.24-0.53,0.24c-0.16,0-0.32-0.06-0.45-0.17c-0.29-0.25-0.33-0.69-0.08-0.98l0.19-0.22
			l-0.22-0.19c-0.29-0.25-0.33-0.69-0.08-0.98c0.25-0.29,0.69-0.33,0.98-0.08l0.22,0.19l0.99-1.15l-1.66-1.42
			c-0.29-0.25-0.33-0.69-0.08-0.98c0.25-0.29,0.69-0.33,0.98-0.08l1.66,1.42l0.99-1.15l-1.92-1.65c-0.29-0.25-0.33-0.69-0.08-0.98
			c0.25-0.29,0.69-0.33,0.98-0.08l1.92,1.65l0.99-1.15l-1.92-1.65c-0.29-0.25-0.33-0.69-0.08-0.98c0.25-0.29,0.69-0.33,0.98-0.08
			l11.54,9.89C29.24,24.24,29.27,24.68,29.02,24.98z M39.35,29.91c-0.21,0.24-0.5,0.36-0.79,0.36c-0.24,0-0.48-0.08-0.68-0.25
			L18.21,13.17c-0.44-0.38-0.49-1.03-0.11-1.47c0.38-0.44,1.03-0.49,1.47-0.11l19.66,16.85C39.67,28.81,39.72,29.47,39.35,29.91z"/>
		
			<rect x="21.33" y="24.03" transform="matrix(0.6507 -0.7593 0.7593 0.6507 -11.1059 25.4351)" class="st2" width="1.52" height="1.52"/>
	</g>
</g>
<g id="throw_exception" class="st0">
	<path class="st5" d="M27,2.76C16.93,2.76,8.76,10.93,8.76,21S16.93,39.24,27,39.24S45.24,31.07,45.24,21S37.07,2.76,27,2.76z"/>
	<path class="st3" d="M27,2.76C16.93,2.76,8.76,10.93,8.76,21S16.93,39.24,27,39.24S45.24,31.07,45.24,21S37.07,2.76,27,2.76z
		 M26.13,15.78c-2.26,0-4.4,1.27-6.03,3.56c-1.72,2.42-2.67,5.68-2.66,9.2c0,0.48-0.39,0.87-0.87,0.87h0
		c-0.48,0-0.87-0.39-0.87-0.87c0-3.87,1.06-7.5,2.99-10.2c1.97-2.77,4.62-4.3,7.45-4.3c0.48,0,0.87,0.39,0.87,0.87
		S26.61,15.78,26.13,15.78z M35.15,15.73c0.27,0.27,0.27,0.71,0,0.98c-0.14,0.14-0.31,0.2-0.49,0.2c-0.18,0-0.36-0.07-0.49-0.2
		l-1.04-1.04l-1.04,1.04c-0.14,0.14-0.31,0.2-0.49,0.2c-0.18,0-0.36-0.07-0.49-0.2c-0.27-0.27-0.27-0.71,0-0.98l1.04-1.04
		l-1.04-1.04c-0.27-0.27-0.27-0.71,0-0.98c0.27-0.27,0.71-0.27,0.98,0l1.04,1.04l1.04-1.04c0.27-0.27,0.71-0.27,0.98,0
		c0.27,0.27,0.27,0.71,0,0.98l-1.04,1.04L35.15,15.73z"/>
</g>
<g id="print_exception" class="st0">
	<g class="st1">
		<path class="st4" d="M27,2.76C16.93,2.76,8.76,10.93,8.76,21S16.93,39.24,27,39.24S45.24,31.07,45.24,21S37.07,2.76,27,2.76z"/>
		<path class="st2" d="M21.83,30.53h10.34V23.1H21.83V30.53z M24.97,25.62c-0.27-0.27-0.27-0.71,0-0.98c0.27-0.27,0.71-0.27,0.98,0
			L27,25.67l1.04-1.04c0.27-0.27,0.71-0.27,0.98,0c0.27,0.27,0.27,0.71,0,0.98l-1.04,1.04l1.04,1.04c0.27,0.27,0.27,0.71,0,0.98
			c-0.14,0.14-0.31,0.2-0.49,0.2s-0.36-0.07-0.49-0.2L27,27.64l-1.04,1.04c-0.14,0.14-0.31,0.2-0.49,0.2s-0.36-0.07-0.49-0.2
			c-0.27-0.27-0.27-0.71,0-0.98l1.04-1.04L24.97,25.62z"/>
		<circle class="st2" cx="34.11" cy="19.87" r="0.97"/>
		<path class="st2" d="M27,2.76C16.93,2.76,8.76,10.93,8.76,21S16.93,39.24,27,39.24S45.24,31.07,45.24,21S37.07,2.76,27,2.76z
			 M19.25,10.18c0-0.71,0.58-1.29,1.29-1.29h11.09c0.34,0,0.67,0.14,0.91,0.38l1.83,1.83c0.24,0.24,0.38,0.57,0.38,0.91v3.34h-2.58
			v-2.81l-1.07-1.07h-9.27v3.88h-2.58V10.18z M37.34,23.1c0,0.71-0.58,1.29-1.29,1.29h-1.29v7.43c0,0.71-0.58,1.29-1.29,1.29H20.54
			c-0.71,0-1.29-0.58-1.29-1.29v-7.43h-1.29c-0.71,0-1.29-0.58-1.29-1.29v-3.88c0-1.43,1.16-2.58,2.58-2.58h15.5
			c1.43,0,2.58,1.16,2.58,2.58V23.1z"/>
	</g>
</g>
<g id="get_db_driver" class="st0">
	<path class="st5" d="M27,2.76C16.93,2.76,8.76,10.93,8.76,21S16.93,39.24,27,39.24S45.24,31.07,45.24,21S37.07,2.76,27,2.76z"/>
	<path class="st3" d="M27,2.76C16.93,2.76,8.76,10.93,8.76,21S16.93,39.24,27,39.24S45.24,31.07,45.24,21S37.07,2.76,27,2.76z
		 M36.98,21.89v2.68h-1.79v-2.68c0-0.49,0.4-0.89,0.89-0.89C36.58,21,36.98,21.4,36.98,21.89z M22.39,14.1
		c0.92-2.86,3.56-4.77,6.56-4.77c2.27,0,4.33,1.1,5.59,2.86V9.84c0-0.56,0.46-1.02,1.02-1.02c0.56,0,1.02,0.45,1.02,1.02v4.58
		c0,0.56-0.46,1.02-1.02,1.02h-4.07c-0.56,0-1.02-0.45-1.02-1.02c0-0.56,0.46-1.02,1.02-1.02h1.41c-0.89-1.25-2.35-2.03-3.95-2.03
		c-2.12,0-3.98,1.35-4.62,3.37c-0.17,0.53-0.74,0.83-1.28,0.65C22.51,15.21,22.21,14.64,22.39,14.1z M30.72,21
		c0.49,0,0.89,0.4,0.89,0.89v2.68h-1.79v-2.68C29.83,21.4,30.23,21,30.72,21z M30.04,19.86c0.01,0,0.01-0.01,0.02-0.01v0.01
		C30.06,19.86,30.05,19.86,30.04,19.86z M15.86,16.49c0-1.15,2.16-2.13,5.11-2.43c-0.08,0.5,0,1,0.24,1.46
		c0.29,0.57,0.79,1,1.4,1.19c0.25,0.08,0.5,0.12,0.75,0.12c0.37,0,0.75-0.09,1.09-0.26c0.57-0.29,1-0.79,1.2-1.41
		c0.11-0.34,0.27-0.66,0.47-0.94c2.34,0.41,3.94,1.28,3.94,2.27v1.52c0,1.4-3.18,2.54-7.1,2.54s-7.1-1.13-7.1-2.54V16.49z
		 M15.86,19.85c0.47,0.37,1.08,0.67,1.74,0.91c1.42,0.51,3.32,0.8,5.36,0.8s3.94-0.29,5.36-0.8c0.32-0.12,0.64-0.26,0.94-0.41
		c-0.38,0.38-0.62,0.9-0.62,1.48v2.41c-0.58,0.08-1.09,0.41-1.41,0.87c-1.19,0.32-2.67,0.51-4.27,0.51c-3.92,0-7.1-1.13-7.1-2.54
		V19.85z M22.96,30.18c-3.92,0-7.1-1.13-7.1-2.54v-2.72c0.47,0.37,1.08,0.67,1.74,0.91c1.42,0.51,3.32,0.8,5.36,0.8
		c1.4,0,2.74-0.14,3.9-0.39c0,0.02,0,0.04,0,0.05c0,0.71,0.35,1.33,0.89,1.71v0.08c0,0.47,0.06,0.93,0.17,1.38
		C26.65,29.9,24.9,30.18,22.96,30.18z M37.87,27.25v0.89c0,2.16-1.54,3.94-3.57,4.38v2.77h-1.79v-2.77
		c-2.04-0.44-3.57-2.22-3.57-4.38v-0.89c-0.49,0-0.89-0.4-0.89-0.89c0-0.49,0.4-0.89,0.89-0.89h8.93c0.49,0,0.89,0.4,0.89,0.89
		C38.76,26.85,38.36,27.25,37.87,27.25z"/>
</g>
<g id="set_sql_query" class="st0">
	<g class="st1">
		<path class="st4" d="M27,2.76C16.93,2.76,8.76,10.93,8.76,21S16.93,39.24,27,39.24S45.24,31.07,45.24,21S37.07,2.76,27,2.76z"/>
		<path class="st2" d="M30.33,13.16l-1.69,1.69c-0.12,0.12-0.12,0.33,0,0.45c0.06,0.06,0.14,0.09,0.23,0.09
			c0.08,0,0.16-0.03,0.23-0.09l1.91-1.91c0.12-0.12,0.12-0.33,0-0.45l-1.91-1.91c-0.12-0.12-0.33-0.12-0.45,0s-0.12,0.33,0,0.45
			L30.33,13.16z"/>
		<path class="st2" d="M24.89,15.3c0.06,0.06,0.14,0.09,0.23,0.09c0.08,0,0.16-0.03,0.23-0.09c0.12-0.12,0.12-0.33,0-0.45
			l-1.69-1.69l1.69-1.69c0.12-0.12,0.12-0.33,0-0.45c-0.12-0.12-0.33-0.12-0.45,0l-1.91,1.91c-0.12,0.12-0.12,0.33,0,0.45
			L24.89,15.3z"/>
		<path class="st2" d="M26.13,15.58c0.17,0.06,0.35-0.03,0.41-0.19l1.51-4.16c0.06-0.17-0.02-0.35-0.19-0.41
			c-0.17-0.06-0.35,0.02-0.41,0.19l-1.41,3.86l-0.1,0.29C25.88,15.33,25.96,15.52,26.13,15.58z"/>
		<path class="st2" d="M26.99,2.76C16.92,2.77,8.76,10.94,8.76,21.01c0.01,10.07,8.18,18.23,18.25,18.22s18.23-8.18,18.22-18.25
			C45.23,10.92,37.06,2.76,26.99,2.76z M26.99,8.05c3.04,0,5.5,2.46,5.5,5.49c0,1.42-0.54,2.71-1.42,3.69l-8.15,0.01
			c-0.88-0.97-1.42-2.27-1.42-3.69C21.5,10.52,23.95,8.06,26.99,8.05z M19.9,18.02c0-0.52,0.44-1.01,1.21-1.41
			c0.14,0.3,0.31,0.58,0.5,0.86l-0.1,0.55L32.43,18l-0.09-0.47c0.21-0.3,0.39-0.61,0.55-0.94c0.76,0.4,1.21,0.89,1.21,1.41l0,1.52
			c0,1.4-3.18,2.54-7.1,2.54c-3.92,0-7.1-1.13-7.1-2.53L19.9,18.02z M19.9,21.38c0.47,0.37,1.08,0.67,1.74,0.91
			c1.42,0.51,3.32,0.8,5.36,0.8c2.04,0,3.94-0.3,5.36-0.81c0.63-0.23,1.26-0.54,1.74-0.91l0,3.23c0,1.4-3.18,2.54-7.1,2.54
			c-3.92,0-7.1-1.13-7.1-2.53L19.9,21.38z M27.01,31.71c-3.92,0-7.1-1.13-7.1-2.53l0-2.72c0.47,0.37,1.08,0.67,1.74,0.91
			c1.42,0.51,3.32,0.8,5.36,0.8s3.94-0.3,5.36-0.81c0.63-0.23,1.26-0.54,1.74-0.91l0,2.72C34.11,30.57,30.93,31.71,27.01,31.71z"/>
	</g>
</g>
<g id="get_sql_query" class="st0">
	<path class="st5" d="M27,2.76C16.93,2.76,8.76,10.93,8.76,21S16.93,39.24,27,39.24S45.24,31.07,45.24,21S37.07,2.76,27,2.76z"/>
	<path class="st3" d="M27,2.76C16.93,2.76,8.76,10.93,8.76,21S16.93,39.24,27,39.24S45.24,31.07,45.24,21S37.07,2.76,27,2.76z
		 M27,31.86c-3.04,0-5.5-2.46-5.5-5.5c0-0.62,0.11-1.22,0.3-1.78c0.58,0.19,1.21,0.35,1.88,0.47l-0.69,0.69
		c-0.12,0.12-0.12,0.33,0,0.45l1.91,1.91c0.06,0.06,0.14,0.09,0.23,0.09c0.08,0,0.16-0.03,0.23-0.09c0.12-0.12,0.12-0.33,0-0.45
		l-1.69-1.69l0.8-0.8c0.11,0.01,0.23,0.03,0.34,0.04l1.1,0.09c0.06,0,0.12,0,0.2,0.01c0.27,0.01,0.54,0.02,0.81,0.02l-0.86,2.36
		l-0.1,0.29c-0.06,0.17,0.02,0.35,0.19,0.41c0.17,0.06,0.35-0.03,0.41-0.19l1.05-2.88c0.14,0,0.27-0.01,0.41-0.02l1.1-0.08
		c0.05-0.01,0.09-0.01,0.13-0.02c0.1-0.01,0.21-0.02,0.31-0.04l0.8,0.8l-1.69,1.69c-0.12,0.12-0.12,0.33,0,0.45
		c0.06,0.06,0.14,0.09,0.23,0.09c0.08,0,0.16-0.03,0.23-0.09l1.91-1.91c0.12-0.12,0.12-0.33,0-0.45l-0.69-0.69
		c0.67-0.12,1.3-0.27,1.88-0.47c0.19,0.56,0.3,1.16,0.3,1.78C32.5,29.4,30.04,31.86,27,31.86z M34.1,21.75c0,1.4-3.18,2.54-7.1,2.54
		s-7.1-1.13-7.1-2.54v-2.72c0.47,0.37,1.08,0.67,1.74,0.91c1.42,0.51,3.32,0.8,5.36,0.8s3.94-0.29,5.36-0.8
		c0.63-0.23,1.26-0.54,1.74-0.91V21.75z M34.1,17.18c0,1.4-3.18,2.54-7.1,2.54s-7.1-1.13-7.1-2.54v-3.23
		c0.47,0.37,1.08,0.67,1.74,0.91c1.42,0.51,3.32,0.8,5.36,0.8s3.94-0.29,5.36-0.8c0.63-0.23,1.26-0.54,1.74-0.91V17.18z M34.1,12.11
		c0,1.4-3.18,2.54-7.1,2.54s-7.1-1.13-7.1-2.54v-1.52c0-1.4,3.18-2.54,7.1-2.54s7.1,1.14,7.1,2.54V12.11z"/>
</g>
<g id="execute_db_DAO_action" class="st0">
	<path class="st5" d="M27,2.76C16.93,2.76,8.76,10.93,8.76,21S16.93,39.24,27,39.24S45.24,31.07,45.24,21S37.07,2.76,27,2.76z"/>
	<path class="st3" d="M27,2.76C16.93,2.76,8.76,10.93,8.76,21S16.93,39.24,27,39.24S45.24,31.07,45.24,21S37.07,2.76,27,2.76z
		 M19.9,15.42c0-1.4,3.18-2.54,7.1-2.54s7.1,1.14,7.1,2.54v1.52c0,1.4-3.18,2.54-7.1,2.54s-7.1-1.13-7.1-2.54V15.42z M28.37,29.07
		c-0.44,0.03-0.9,0.05-1.37,0.05c-3.92,0-7.1-1.13-7.1-2.54v-2.72c0.47,0.37,1.08,0.67,1.74,0.91c1.42,0.51,3.32,0.8,5.36,0.8
		c0.71,0,1.4-0.04,2.06-0.1c-0.47,0.84-0.74,1.81-0.74,2.85C28.32,28.57,28.34,28.82,28.37,29.07z M29.88,24.33
		C29,24.47,28.03,24.55,27,24.55c-3.92,0-7.1-1.13-7.1-2.54v-3.23c0.47,0.37,1.08,0.67,1.74,0.91c1.42,0.51,3.32,0.8,5.36,0.8
		s3.94-0.29,5.36-0.8c0.63-0.23,1.26-0.54,1.74-0.91v3.23c0,0.15-0.04,0.31-0.11,0.45C32.37,22.52,30.91,23.22,29.88,24.33z
		 M37.11,29.11h-2.14v2.14c0,0.44-0.36,0.8-0.8,0.8s-0.8-0.36-0.8-0.8v-2.14h-2.14c-0.44,0-0.8-0.36-0.8-0.8
		c0-0.44,0.36-0.8,0.8-0.8h2.14v-2.14c0-0.44,0.36-0.8,0.8-0.8s0.8,0.36,0.8,0.8v2.14h2.14c0.44,0,0.8,0.36,0.8,0.8
		C37.91,28.75,37.55,29.11,37.11,29.11z"/>
</g>
<g id="call_ibatis_rule" class="st0">
	<g class="st1">
		<path class="st4" d="M46.36,18.63c-0.14-1.09-1-2.03-2.08-2.16l-2.72-0.65c-0.65-1.82-1.62-3.48-2.86-4.92l0.86-2.62
			c0.35-1.04,0.06-2.21-0.82-2.87c-0.55-0.41-1.11-0.89-1.69-1.15l-0.62-0.35c-0.58-0.33-1.18-0.62-1.8-0.88
			c-1.11-0.43-2.17-0.09-2.9,0.72l-1.84,2.06c-0.94-0.18-1.9-0.27-2.89-0.27s-1.95,0.09-2.89,0.27l-1.84-2.06
			c-0.84-0.81-1.89-1.15-2.9-0.72c-0.72,0.27-1.22,0.56-1.8,0.88l-0.62,0.35c-0.58,0.26-1.15,0.74-1.69,1.15
			c-0.88,0.66-1.17,1.82-0.82,2.87l0.86,2.62c-1.24,1.43-2.22,3.1-2.86,4.92l-2.72,0.65c-1.08,0.13-1.94,1.07-2.08,2.16
			C7.54,19.41,7.5,20.2,7.5,21s0.05,1.59,0.14,2.37c0.14,1.09,1,1.93,2.08,2.05l2.68,0.64c0.65,1.87,1.64,3.57,2.9,5.03l-0.86,2.62
			c-0.35,1.04-0.06,2.21,0.82,2.87c0.55,0.41,1.1,0.68,1.68,1.14l0.63,0.36c0.58,0.33,1.18,0.62,1.8,0.88
			c1.01,0.43,2.07,0.09,2.9-0.72l1.84-2.06c0.94,0.18,1.9,0.27,2.89,0.27c0.99,0,1.95-0.09,2.89-0.27l1.84,2.06
			c0.73,0.81,1.79,1.15,2.9,0.72c0.51-0.27,1.22-0.56,1.8-0.88l0.63-0.36c0.58-0.45,1.14-0.73,1.68-1.14
			c0.88-0.66,1.17-1.82,0.82-2.87l-0.86-2.62c1.26-1.46,2.26-3.17,2.9-5.03l2.68-0.64c1.08-0.13,1.94-0.96,2.08-2.05
			c0.09-0.78,0.14-1.57,0.14-2.37S46.46,19.41,46.36,18.63z"/>
		<path class="st2" d="M31.3,21.96c-0.38-0.32-0.88-0.48-1.5-0.48h-2.42v3.5h2.48c0.62,0,1.11-0.15,1.47-0.45
			c0.35-0.3,0.53-0.72,0.53-1.26C31.86,22.72,31.67,22.28,31.3,21.96z"/>
		<path class="st2" d="M31.06,19.56c0.34-0.27,0.51-0.67,0.51-1.19c0-0.51-0.17-0.9-0.51-1.18c-0.34-0.28-0.81-0.43-1.41-0.43h-2.27
			v3.21h2.27C30.25,19.97,30.72,19.84,31.06,19.56z"/>
		<path class="st2" d="M46.36,18.63c-0.14-1.09-1-2.03-2.08-2.16l-2.72-0.65c-0.65-1.82-1.62-3.48-2.86-4.92l0.86-2.62
			c0.35-1.04,0.06-2.21-0.82-2.87c-0.55-0.41-1.11-0.89-1.69-1.15l-0.62-0.35c-0.58-0.33-1.18-0.62-1.8-0.88
			c-1.11-0.43-2.17-0.09-2.9,0.72l-1.84,2.06c-0.94-0.18-1.9-0.27-2.89-0.27c-0.99,0-1.95,0.09-2.89,0.27l-1.84-2.06
			c-0.84-0.81-1.89-1.15-2.9-0.72c-0.72,0.27-1.22,0.56-1.8,0.88l-0.62,0.35c-0.58,0.26-1.15,0.74-1.69,1.15
			c-0.88,0.66-1.17,1.82-0.82,2.87l0.86,2.62c-1.24,1.43-2.22,3.1-2.86,4.92l-2.72,0.65c-1.08,0.13-1.94,1.07-2.08,2.16
			C7.54,19.41,7.5,20.2,7.5,21s0.05,1.59,0.14,2.37c0.14,1.09,1,1.93,2.08,2.05l2.68,0.64c0.65,1.87,1.64,3.57,2.9,5.03l-0.86,2.62
			c-0.35,1.04-0.06,2.21,0.82,2.87c0.55,0.41,1.1,0.68,1.68,1.14l0.63,0.36c0.58,0.33,1.18,0.62,1.8,0.88
			c1.01,0.43,2.07,0.09,2.9-0.72l1.84-2.06c0.94,0.18,1.9,0.27,2.89,0.27s1.95-0.09,2.89-0.27l1.84,2.06
			c0.73,0.81,1.79,1.15,2.9,0.72c0.51-0.27,1.22-0.56,1.8-0.88l0.63-0.36c0.58-0.45,1.14-0.73,1.68-1.14
			c0.88-0.66,1.17-1.82,0.82-2.87l-0.86-2.62c1.26-1.46,2.26-3.17,2.9-5.03l2.68-0.64c1.08-0.13,1.94-0.96,2.08-2.05
			c0.09-0.78,0.14-1.57,0.14-2.37S46.46,19.41,46.36,18.63z M23.12,26.47h-1.84v-8.88h1.84V26.47z M23.04,16.07
			c-0.23,0.23-0.5,0.34-0.82,0.34c-0.33,0-0.61-0.11-0.84-0.34c-0.23-0.23-0.34-0.51-0.34-0.84c0-0.33,0.11-0.61,0.34-0.84
			c0.23-0.23,0.51-0.34,0.84-0.34c0.32,0,0.6,0.11,0.82,0.34c0.23,0.23,0.34,0.51,0.34,0.84C23.38,15.57,23.27,15.85,23.04,16.07z
			 M33.26,25c-0.3,0.46-0.72,0.82-1.28,1.08c-0.56,0.26-1.21,0.39-1.95,0.39h-4.48V15.27h4.27c0.76,0,1.42,0.13,1.97,0.39
			c0.55,0.26,0.96,0.6,1.24,1.04c0.28,0.44,0.42,0.92,0.42,1.46c0,0.64-0.17,1.18-0.52,1.61c-0.34,0.43-0.81,0.75-1.39,0.95
			c0.6,0.11,1.11,0.42,1.53,0.95c0.42,0.53,0.63,1.12,0.63,1.79C33.7,24.03,33.55,24.54,33.26,25z"/>
	</g>
</g>
<g id="call_hibernate_object" class="st0">
	<g class="st1">
		<path class="st4" d="M46.36,18.63c-0.14-1.09-1-2.03-2.08-2.16l-2.72-0.65c-0.65-1.82-1.62-3.48-2.86-4.92l0.86-2.62
			c0.35-1.04,0.06-2.21-0.82-2.87c-0.55-0.41-1.11-0.89-1.69-1.15l-0.62-0.35c-0.58-0.33-1.18-0.62-1.8-0.88
			c-1.11-0.43-2.17-0.09-2.9,0.72l-1.84,2.06c-0.94-0.18-1.9-0.27-2.89-0.27s-1.95,0.09-2.89,0.27l-1.84-2.06
			c-0.84-0.81-1.89-1.15-2.9-0.72c-0.72,0.27-1.22,0.56-1.8,0.88l-0.62,0.35c-0.58,0.26-1.15,0.74-1.69,1.15
			c-0.88,0.66-1.17,1.82-0.82,2.87l0.86,2.62c-1.24,1.43-2.22,3.1-2.86,4.92l-2.72,0.65c-1.08,0.13-1.94,1.07-2.08,2.16
			C7.54,19.41,7.5,20.2,7.5,21s0.05,1.59,0.14,2.37c0.14,1.09,1,1.93,2.08,2.05l2.68,0.64c0.65,1.87,1.64,3.57,2.9,5.03l-0.86,2.62
			c-0.35,1.04-0.06,2.21,0.82,2.87c0.55,0.41,1.1,0.68,1.68,1.14l0.63,0.36c0.58,0.33,1.18,0.62,1.8,0.88
			c1.01,0.43,2.07,0.09,2.9-0.72l1.84-2.06c0.94,0.18,1.9,0.27,2.89,0.27c0.99,0,1.95-0.09,2.89-0.27l1.84,2.06
			c0.73,0.81,1.79,1.15,2.9,0.72c0.51-0.27,1.22-0.56,1.8-0.88l0.63-0.36c0.58-0.45,1.14-0.73,1.68-1.14
			c0.88-0.66,1.17-1.82,0.82-2.87l-0.86-2.62c1.26-1.46,2.26-3.17,2.9-5.03l2.68-0.64c1.08-0.13,1.94-0.96,2.08-2.05
			c0.09-0.78,0.14-1.57,0.14-2.37S46.46,19.41,46.36,18.63z"/>
		<path class="st2" d="M46.36,18.63c-0.14-1.09-1-2.03-2.08-2.16l-2.72-0.65c-0.65-1.82-1.62-3.48-2.86-4.92l0.86-2.62
			c0.35-1.04,0.06-2.21-0.82-2.87c-0.55-0.41-1.11-0.89-1.69-1.15l-0.62-0.35c-0.58-0.33-1.18-0.62-1.8-0.88
			c-1.11-0.43-2.17-0.09-2.9,0.72l-1.84,2.06c-0.94-0.18-1.9-0.27-2.89-0.27c-0.99,0-1.95,0.09-2.89,0.27l-1.84-2.06
			c-0.84-0.81-1.89-1.15-2.9-0.72c-0.72,0.27-1.22,0.56-1.8,0.88l-0.62,0.35c-0.58,0.26-1.15,0.74-1.69,1.15
			c-0.88,0.66-1.17,1.82-0.82,2.87l0.86,2.62c-1.24,1.43-2.22,3.1-2.86,4.92l-2.72,0.65c-1.08,0.13-1.94,1.07-2.08,2.16
			C7.54,19.41,7.5,20.2,7.5,21c0,0.8,0.05,1.59,0.14,2.37c0.14,1.09,1,1.93,2.08,2.05l2.68,0.64c0.65,1.87,1.64,3.57,2.9,5.03
			l-0.86,2.62c-0.35,1.04-0.06,2.21,0.82,2.87c0.55,0.41,1.1,0.68,1.68,1.14l0.63,0.36c0.58,0.33,1.18,0.62,1.8,0.88
			c1.01,0.43,2.07,0.09,2.9-0.72l1.84-2.06c0.94,0.18,1.9,0.27,2.89,0.27s1.95-0.09,2.89-0.27l1.84,2.06
			c0.73,0.81,1.79,1.15,2.9,0.72c0.51-0.27,1.22-0.56,1.8-0.88l0.63-0.36c0.58-0.45,1.14-0.73,1.68-1.14
			c0.88-0.66,1.17-1.82,0.82-2.87l-0.86-2.62c1.26-1.46,2.26-3.17,2.9-5.03l2.68-0.64c1.08-0.13,1.94-0.96,2.08-2.05
			c0.09-0.78,0.14-1.57,0.14-2.37C46.5,20.2,46.46,19.41,46.36,18.63z M25.37,29.47l-3.26-5.64l6.52,0l3.26,5.64H25.37z
			 M25.37,18.17l-3.26-5.64h6.51l3.26,5.64L25.37,18.17z"/>
		<g>
			<path class="st6" d="M18.86,18.17l3.26-5.64l3.26,5.64l-3.26,5.65L18.86,18.17z"/>
			<path class="st6" d="M35.14,23.83l-3.26,5.64l-3.26-5.64l3.26-5.65L35.14,23.83z"/>
		</g>
	</g>
</g>
<g id="call_hibernate_object_method" class="st0">
	<g class="st1">
		<path class="st4" d="M46.36,18.63c-0.14-1.09-1-2.03-2.08-2.16l-2.72-0.65c-0.65-1.82-1.62-3.48-2.86-4.92l0.86-2.62
			c0.35-1.04,0.06-2.21-0.82-2.87c-0.55-0.41-1.11-0.89-1.69-1.15l-0.62-0.35c-0.58-0.33-1.18-0.62-1.8-0.88
			c-1.11-0.43-2.17-0.09-2.9,0.72l-1.84,2.06c-0.94-0.18-1.9-0.27-2.89-0.27s-1.95,0.09-2.89,0.27l-1.84-2.06
			c-0.84-0.81-1.89-1.15-2.9-0.72c-0.72,0.27-1.22,0.56-1.8,0.88l-0.62,0.35c-0.58,0.26-1.15,0.74-1.69,1.15
			c-0.88,0.66-1.17,1.82-0.82,2.87l0.86,2.62c-1.24,1.43-2.22,3.1-2.86,4.92l-2.72,0.65c-1.08,0.13-1.94,1.07-2.08,2.16
			C7.54,19.41,7.5,20.2,7.5,21s0.05,1.59,0.14,2.37c0.14,1.09,1,1.93,2.08,2.05l2.68,0.64c0.65,1.87,1.64,3.57,2.9,5.03l-0.86,2.62
			c-0.35,1.04-0.06,2.21,0.82,2.87c0.55,0.41,1.1,0.68,1.68,1.14l0.63,0.36c0.58,0.33,1.18,0.62,1.8,0.88
			c1.01,0.43,2.07,0.09,2.9-0.72l1.84-2.06c0.94,0.18,1.9,0.27,2.89,0.27c0.99,0,1.95-0.09,2.89-0.27l1.84,2.06
			c0.73,0.81,1.79,1.15,2.9,0.72c0.51-0.27,1.22-0.56,1.8-0.88l0.63-0.36c0.58-0.45,1.14-0.73,1.68-1.14
			c0.88-0.66,1.17-1.82,0.82-2.87l-0.86-2.62c1.26-1.46,2.26-3.17,2.9-5.03l2.68-0.64c1.08-0.13,1.94-0.96,2.08-2.05
			c0.09-0.78,0.14-1.57,0.14-2.37S46.46,19.41,46.36,18.63z"/>
		<path class="st2" d="M46.36,18.63c-0.14-1.09-1-2.03-2.08-2.16l-2.72-0.65c-0.65-1.82-1.62-3.48-2.86-4.92l0.86-2.62
			c0.35-1.04,0.06-2.21-0.82-2.87c-0.55-0.41-1.11-0.89-1.69-1.15l-0.62-0.35c-0.58-0.33-1.18-0.62-1.8-0.88
			c-1.11-0.43-2.17-0.09-2.9,0.72l-1.84,2.06c-0.94-0.18-1.9-0.27-2.89-0.27c-0.99,0-1.95,0.09-2.89,0.27l-1.84-2.06
			c-0.84-0.81-1.89-1.15-2.9-0.72c-0.72,0.27-1.22,0.56-1.8,0.88l-0.62,0.35c-0.58,0.26-1.15,0.74-1.69,1.15
			c-0.88,0.66-1.17,1.82-0.82,2.87l0.86,2.62c-1.24,1.43-2.22,3.1-2.86,4.92l-2.72,0.65c-1.08,0.13-1.94,1.07-2.08,2.16
			C7.54,19.41,7.5,20.2,7.5,21c0,0.8,0.05,1.59,0.14,2.37c0.14,1.09,1,1.93,2.08,2.05l2.68,0.64c0.65,1.87,1.64,3.57,2.9,5.03
			l-0.86,2.62c-0.35,1.04-0.06,2.21,0.82,2.87c0.55,0.41,1.1,0.68,1.68,1.14l0.63,0.36c0.58,0.33,1.18,0.62,1.8,0.88
			c1.01,0.43,2.07,0.09,2.9-0.72l1.84-2.06c0.94,0.18,1.9,0.27,2.89,0.27s1.95-0.09,2.89-0.27l1.84,2.06
			c0.73,0.81,1.79,1.15,2.9,0.72c0.51-0.27,1.22-0.56,1.8-0.88l0.63-0.36c0.58-0.45,1.14-0.73,1.68-1.14
			c0.88-0.66,1.17-1.82,0.82-2.87l-0.86-2.62c1.26-1.46,2.26-3.17,2.9-5.03l2.68-0.64c1.08-0.13,1.94-0.96,2.08-2.05
			c0.09-0.78,0.14-1.57,0.14-2.37C46.5,20.2,46.46,19.41,46.36,18.63z M27.9,14.87c0.24-0.1,0.52,0.02,0.61,0.26
			c0.1,0.24-0.02,0.52-0.26,0.61c-0.27,0.11-0.67,0.94-0.67,2.14c0,1.21,0.4,2.04,0.67,2.14c0.24,0.1,0.36,0.37,0.26,0.61
			c-0.07,0.18-0.25,0.3-0.44,0.3c-0.06,0-0.12-0.01-0.17-0.03c-0.87-0.35-1.26-1.77-1.26-3.02C26.63,16.64,27.02,15.22,27.9,14.87z
			 M20.85,21.07c-0.61,0-1.1-0.49-1.1-1.1c0-0.61,0.49-1.1,1.1-1.1c0.07,0,0.35-0.18,0.62-0.74c0.23-0.46,0.39-1.05,0.48-1.69h-1.12
			c-0.61,0-1.1-0.49-1.1-1.1s0.49-1.1,1.1-1.1h1.26c0.11-0.99,0.35-1.91,0.72-2.66c0.63-1.27,1.55-1.97,2.61-1.97
			c0.61,0,1.1,0.49,1.1,1.1c0,0.61-0.49,1.1-1.1,1.1c-0.07,0-0.35,0.18-0.62,0.74c-0.23,0.46-0.39,1.05-0.48,1.69h1.12
			c0.61,0,1.1,0.49,1.1,1.1s-0.49,1.1-1.1,1.1h-1.26c-0.11,0.99-0.35,1.91-0.72,2.66C22.83,20.37,21.9,21.07,20.85,21.07z M26,33.46
			l-2.01-3.48l4.02,0l2.01,3.48H26z M26,26.5l-2.01-3.48H28l2.01,3.48L26,26.5z M31.98,19.02c0.17,0.17,0.17,0.45,0,0.62
			c-0.09,0.09-0.2,0.13-0.31,0.13s-0.22-0.04-0.31-0.13l-0.91-0.91l-0.91,0.91c-0.09,0.09-0.2,0.13-0.31,0.13
			c-0.11,0-0.22-0.04-0.31-0.13c-0.17-0.17-0.17-0.45,0-0.62l0.91-0.91l-0.91-0.91c-0.17-0.17-0.17-0.45,0-0.62
			c0.17-0.17,0.45-0.17,0.62,0l0.91,0.91l0.91-0.91c0.17-0.17,0.45-0.17,0.62,0c0.17,0.17,0.17,0.45,0,0.62l-0.91,0.91L31.98,19.02z
			 M33.01,20.91c-0.06,0.02-0.12,0.03-0.17,0.03c-0.19,0-0.36-0.11-0.44-0.3c-0.1-0.24,0.02-0.52,0.26-0.61
			c0.27-0.11,0.67-0.94,0.67-2.14c0-1.21-0.4-2.04-0.67-2.14c-0.24-0.1-0.36-0.37-0.26-0.61c0.1-0.24,0.37-0.36,0.61-0.26
			c0.87,0.35,1.26,1.77,1.26,3.02C34.27,19.14,33.88,20.56,33.01,20.91z"/>
		<path class="st6" d="M21.98,26.5l2.01-3.48L26,26.5l-2.01,3.48L21.98,26.5z"/>
		<path class="st6" d="M32.02,29.98l-2.01,3.48L28,29.98l2.01-3.48L32.02,29.98z"/>
	</g>
</g>
<g id="call_business_logic" class="st0">
	<g class="st1">
		<path class="st4" d="M46.36,18.63c-0.14-1.09-1-2.03-2.08-2.16l-2.72-0.65c-0.65-1.82-1.62-3.48-2.86-4.92l0.86-2.62
			c0.35-1.04,0.06-2.21-0.82-2.87c-0.55-0.41-1.11-0.89-1.69-1.15l-0.62-0.35c-0.58-0.33-1.18-0.62-1.8-0.88
			c-1.11-0.43-2.17-0.09-2.9,0.72l-1.84,2.06c-0.94-0.18-1.9-0.27-2.89-0.27s-1.95,0.09-2.89,0.27l-1.84-2.06
			c-0.84-0.81-1.89-1.15-2.9-0.72c-0.72,0.27-1.22,0.56-1.8,0.88l-0.62,0.35c-0.58,0.26-1.15,0.74-1.69,1.15
			c-0.88,0.66-1.17,1.82-0.82,2.87l0.86,2.62c-1.24,1.43-2.22,3.1-2.86,4.92l-2.72,0.65c-1.08,0.13-1.94,1.07-2.08,2.16
			C7.54,19.41,7.5,20.2,7.5,21s0.05,1.59,0.14,2.37c0.14,1.09,1,1.93,2.08,2.05l2.68,0.64c0.65,1.87,1.64,3.57,2.9,5.03l-0.86,2.62
			c-0.35,1.04-0.06,2.21,0.82,2.87c0.55,0.41,1.1,0.68,1.68,1.14l0.63,0.36c0.58,0.33,1.18,0.62,1.8,0.88
			c1.01,0.43,2.07,0.09,2.9-0.72l1.84-2.06c0.94,0.18,1.9,0.27,2.89,0.27c0.99,0,1.95-0.09,2.89-0.27l1.84,2.06
			c0.73,0.81,1.79,1.15,2.9,0.72c0.51-0.27,1.22-0.56,1.8-0.88l0.63-0.36c0.58-0.45,1.14-0.73,1.68-1.14
			c0.88-0.66,1.17-1.82,0.82-2.87l-0.86-2.62c1.26-1.46,2.26-3.17,2.9-5.03l2.68-0.64c1.08-0.13,1.94-0.96,2.08-2.05
			c0.09-0.78,0.14-1.57,0.14-2.37S46.46,19.41,46.36,18.63z"/>
		<path class="st2" d="M21.95,26.33c-0.46,0-0.84,0.38-0.84,0.84s0.38,0.84,0.84,0.84c0.46,0,0.84-0.38,0.84-0.84
			S22.41,26.33,21.95,26.33z"/>
		<circle class="st2" cx="27" cy="14.83" r="0.84"/>
		<path class="st2" d="M46.36,18.63c-0.14-1.09-1-2.03-2.08-2.16l-2.72-0.65c-0.65-1.82-1.62-3.48-2.86-4.92l0.86-2.62
			c0.35-1.04,0.06-2.21-0.82-2.87c-0.55-0.41-1.11-0.89-1.69-1.15l-0.62-0.35c-0.58-0.33-1.18-0.62-1.8-0.88
			c-1.11-0.43-2.17-0.09-2.9,0.72l-1.84,2.06c-0.94-0.18-1.9-0.27-2.89-0.27c-0.99,0-1.95,0.09-2.89,0.27l-1.84-2.06
			c-0.84-0.81-1.89-1.15-2.9-0.72c-0.72,0.27-1.22,0.56-1.8,0.88l-0.62,0.35c-0.58,0.26-1.15,0.74-1.69,1.15
			c-0.88,0.66-1.17,1.82-0.82,2.87l0.86,2.62c-1.24,1.43-2.22,3.1-2.86,4.92l-2.72,0.65c-1.08,0.13-1.94,1.07-2.08,2.16
			C7.54,19.41,7.5,20.2,7.5,21c0,0.8,0.05,1.59,0.14,2.37c0.14,1.09,1,1.93,2.08,2.05l2.68,0.64c0.65,1.87,1.64,3.57,2.9,5.03
			l-0.86,2.62c-0.35,1.04-0.06,2.21,0.82,2.87c0.55,0.41,1.1,0.68,1.68,1.14l0.63,0.36c0.58,0.33,1.18,0.62,1.8,0.88
			c1.01,0.43,2.07,0.09,2.9-0.72l1.84-2.06c0.94,0.18,1.9,0.27,2.89,0.27s1.95-0.09,2.89-0.27l1.84,2.06
			c0.73,0.81,1.79,1.15,2.9,0.72c0.51-0.27,1.22-0.56,1.8-0.88l0.63-0.36c0.58-0.45,1.14-0.73,1.68-1.14
			c0.88-0.66,1.17-1.82,0.82-2.87l-0.86-2.62c1.26-1.46,2.26-3.17,2.9-5.03l2.68-0.64c1.08-0.13,1.94-0.96,2.08-2.05
			c0.09-0.78,0.14-1.57,0.14-2.37C46.5,20.2,46.46,19.41,46.36,18.63z M32.05,29.98c-1.55,0-2.81-1.26-2.81-2.81
			c0-1.15,0.69-2.11,1.68-2.57v-1.36c0-0.62-0.5-1.12-1.12-1.12h-5.61c-0.62,0-1.12,0.5-1.12,1.12v1.36
			c0.99,0.46,1.68,1.42,1.68,2.57c0,1.55-1.26,2.81-2.81,2.81c-1.55,0-2.81-1.26-2.81-2.81c0-1.15,0.69-2.11,1.68-2.57v-1.36
			c0-1.86,1.51-3.37,3.37-3.37h1.68V17.4c-0.99-0.43-1.68-1.42-1.68-2.57c0-1.55,1.26-2.81,2.81-2.81c1.55,0,2.81,1.26,2.81,2.81
			c0,1.15-0.69,2.14-1.68,2.57v2.48h1.68c1.86,0,3.37,1.51,3.37,3.37v1.36c0.99,0.46,1.68,1.42,1.68,2.57
			C34.86,28.72,33.6,29.98,32.05,29.98z"/>
		<path class="st2" d="M32.05,26.33c-0.47,0-0.84,0.38-0.84,0.84s0.38,0.84,0.84,0.84c0.47,0,0.84-0.38,0.84-0.84
			S32.52,26.33,32.05,26.33z"/>
	</g>
</g>
<g id="call_presentation_layer_web_service" class="st0">
	<path class="st5" d="M46.36,18.63c-0.14-1.09-1-2.03-2.08-2.16l-2.72-0.65c-0.65-1.82-1.62-3.48-2.86-4.92l0.86-2.62
		c0.35-1.04,0.06-2.21-0.82-2.87c-0.55-0.41-1.11-0.89-1.69-1.15l-0.62-0.35c-0.58-0.33-1.18-0.62-1.8-0.88
		c-1.11-0.43-2.17-0.09-2.9,0.72l-1.84,2.06c-0.94-0.18-1.9-0.27-2.89-0.27s-1.95,0.09-2.89,0.27l-1.84-2.06
		c-0.84-0.81-1.89-1.15-2.9-0.72c-0.72,0.27-1.22,0.56-1.8,0.88l-0.62,0.35c-0.58,0.26-1.15,0.74-1.69,1.15
		c-0.88,0.66-1.17,1.82-0.82,2.87l0.86,2.62c-1.24,1.43-2.22,3.1-2.86,4.92l-2.72,0.65c-1.08,0.13-1.94,1.07-2.08,2.16
		C7.54,19.41,7.5,20.2,7.5,21s0.05,1.59,0.14,2.37c0.14,1.09,1,1.93,2.08,2.05l2.68,0.64c0.65,1.87,1.64,3.57,2.9,5.03l-0.86,2.62
		c-0.35,1.04-0.06,2.21,0.82,2.87c0.55,0.41,1.1,0.68,1.68,1.14l0.63,0.36c0.58,0.33,1.18,0.62,1.8,0.88
		c1.01,0.43,2.07,0.09,2.9-0.72l1.84-2.06c0.94,0.18,1.9,0.27,2.89,0.27c0.99,0,1.95-0.09,2.89-0.27l1.84,2.06
		c0.73,0.81,1.79,1.15,2.9,0.72c0.51-0.27,1.22-0.56,1.8-0.88l0.63-0.36c0.58-0.45,1.14-0.73,1.68-1.14
		c0.88-0.66,1.17-1.82,0.82-2.87l-0.86-2.62c1.26-1.46,2.26-3.17,2.9-5.03l2.68-0.64c1.08-0.13,1.94-0.96,2.08-2.05
		c0.09-0.78,0.14-1.57,0.14-2.37S46.46,19.41,46.36,18.63z"/>
	<path class="st3" d="M46.36,18.63c-0.14-1.09-1-2.03-2.08-2.16l-2.72-0.65c-0.65-1.82-1.62-3.48-2.86-4.92l0.86-2.62
		c0.35-1.04,0.06-2.21-0.82-2.87c-0.55-0.41-1.11-0.89-1.69-1.15l-0.62-0.35c-0.58-0.33-1.18-0.62-1.8-0.88
		c-1.11-0.43-2.17-0.09-2.9,0.72l-1.84,2.06c-0.94-0.18-1.9-0.27-2.89-0.27s-1.95,0.09-2.89,0.27l-1.84-2.06
		c-0.84-0.81-1.89-1.15-2.9-0.72c-0.72,0.27-1.22,0.56-1.8,0.88l-0.62,0.35c-0.58,0.26-1.15,0.74-1.69,1.15
		c-0.88,0.66-1.17,1.82-0.82,2.87l0.86,2.62c-1.24,1.43-2.22,3.1-2.86,4.92l-2.72,0.65c-1.08,0.13-1.94,1.07-2.08,2.16
		C7.54,19.41,7.5,20.2,7.5,21s0.05,1.59,0.14,2.37c0.14,1.09,1,1.93,2.08,2.05l2.68,0.64c0.65,1.87,1.64,3.57,2.9,5.03l-0.86,2.62
		c-0.35,1.04-0.06,2.21,0.82,2.87c0.55,0.41,1.1,0.68,1.68,1.14l0.63,0.36c0.58,0.33,1.18,0.62,1.8,0.88
		c1.01,0.43,2.07,0.09,2.9-0.72l1.84-2.06c0.94,0.18,1.9,0.27,2.89,0.27c0.99,0,1.95-0.09,2.89-0.27l1.84,2.06
		c0.73,0.81,1.79,1.15,2.9,0.72c0.51-0.27,1.22-0.56,1.8-0.88l0.63-0.36c0.58-0.45,1.14-0.73,1.68-1.14
		c0.88-0.66,1.17-1.82,0.82-2.87l-0.86-2.62c1.26-1.46,2.26-3.17,2.9-5.03l2.68-0.64c1.08-0.13,1.94-0.96,2.08-2.05
		c0.09-0.78,0.14-1.57,0.14-2.37S46.46,19.41,46.36,18.63z M36.29,17.24h-4.57c-0.39-2.5-1.17-4.6-2.16-5.93
		C32.63,12.12,35.12,14.34,36.29,17.24z M30.76,21c0,0.87-0.05,1.71-0.13,2.51h-7.26c-0.08-0.8-0.16-1.64-0.16-2.51
		c0-0.87,0.08-1.71,0.16-2.51h7.26C30.71,19.29,30.76,20.13,30.76,21z M25.91,11.52c0.44-0.42,0.8-0.54,1.09-0.54
		s0.65,0.12,1.09,0.54c0.44,0.42,0.9,1.09,1.31,2.02c0.45,1.02,0.82,2.28,1.06,3.71h-6.91c0.24-1.43,0.61-2.69,1.06-3.71
		C25.01,12.61,25.47,11.94,25.91,11.52z M24.44,11.31c-1,1.34-1.77,3.43-2.16,5.93h-4.57C18.88,14.34,21.37,12.12,24.44,11.31z
		 M17.29,23.51c-0.21-0.8-0.32-1.64-0.32-2.51c0-0.87,0.11-1.7,0.32-2.51h4.82c-0.08,0.81-0.16,1.64-0.16,2.51
		c0,0.83,0.08,1.7,0.16,2.51H17.29z M17.71,24.76h4.57c0.39,2.5,1.17,4.6,2.16,5.94C21.37,29.88,18.88,27.66,17.71,24.76z
		 M28.09,30.48c-0.44,0.41-0.8,0.54-1.12,0.54c-0.25,0-0.61-0.13-1.05-0.54c-0.44-0.42-0.9-1.09-1.31-2.02
		c-0.45-1.02-0.82-2.28-1.06-3.7h6.91c-0.24,1.43-0.61,2.69-1.06,3.7C28.99,29.39,28.53,30.06,28.09,30.48z M29.56,30.69
		c1-1.34,1.77-3.43,2.16-5.94h4.57C35.12,27.66,32.63,29.88,29.56,30.69z M36.71,23.51h-4.82c0.08-0.81,0.13-1.68,0.13-2.51
		c0-0.86-0.04-1.7-0.13-2.51h4.82c0.21,0.8,0.32,1.64,0.32,2.51C37.02,21.87,36.91,22.7,36.71,23.51z"/>
</g>
<g id="set_presentation_view" class="st0">
	<g class="st1">
		<path class="st4" d="M27,2.76C16.93,2.76,8.76,10.93,8.76,21S16.93,39.24,27,39.24S45.24,31.07,45.24,21S37.07,2.76,27,2.76z"/>
		<path class="st2" d="M29.78,18.44c-0.13-0.2-0.36-0.32-0.6-0.32c-0.24,0-0.46,0.12-0.6,0.36l-4.21,6.27l-1.46-2.01
			c-0.14-0.19-0.35-0.3-0.58-0.3c-0.23,0-0.45,0.11-0.58,0.3l-3.16,4.33c-0.16,0.22-0.18,0.51-0.06,0.75
			c0.12,0.24,0.37,0.39,0.64,0.39h15.78c0.27,0,0.51-0.14,0.64-0.38c0.13-0.24,0.11-0.52-0.04-0.74L29.78,18.44z"/>
		<circle class="st2" cx="20.49" cy="15.95" r="2.16"/>
		<path class="st2" d="M27,2.76C16.93,2.76,8.76,10.93,8.76,21S16.93,39.24,27,39.24S45.24,31.07,45.24,21S37.07,2.76,27,2.76z
			 M38.52,28.21c0,1.59-1.29,2.88-2.88,2.88H18.33c-1.55,0-2.84-1.29-2.84-2.88V13.79c0-1.59,1.29-2.88,2.84-2.88h17.31
			c1.63,0,2.88,1.29,2.88,2.88V28.21z"/>
	</g>
</g>
<g id="set_presentation_template" class="st0">
	<g class="st1">
		<path class="st4" d="M27,2.76C16.93,2.76,8.76,10.93,8.76,21S16.93,39.24,27,39.24S45.24,31.07,45.24,21S37.07,2.76,27,2.76z"/>
		<path class="st2" d="M19.3,23.8c-0.39,0-0.7,0.31-0.7,0.7v0.7c0,0.39,0.31,0.7,0.7,0.7h2.71h0.74v-2.1h-0.74H19.3z"/>
		<rect x="24.22" y="23.8" class="st2" width="5.08" height="2.1"/>
		<path class="st2" d="M20,21H34c0.77,0,1.4-0.63,1.4-1.4v-2.8c0-0.77-0.63-1.4-1.4-1.4H20c-0.77,0-1.4,0.63-1.4,1.4v2.8
			C18.6,20.37,19.23,21,20,21z"/>
		<path class="st2" d="M27,2.76C16.93,2.76,8.76,10.93,8.76,21S16.93,39.24,27,39.24S45.24,31.07,45.24,21S37.07,2.76,27,2.76z
			 M38.21,26.6c0,1.55-1.25,2.8-2.8,2.8H18.6c-1.55,0-2.8-1.25-2.8-2.8V15.4c0-1.55,1.25-2.8,2.8-2.8H35.4c1.55,0,2.8,1.25,2.8,2.8
			V26.6z"/>
		<path class="st2" d="M34.73,23.8h-3.97v2.1h3.97c0.39,0,0.7-0.31,0.7-0.7v-0.7C35.43,24.11,35.12,23.8,34.73,23.8z"/>
	</g>
</g>
<g id="echo_inline_html" class="st0">
	<g class="st1">
		<path class="st4" d="M41.48,36.59c3.07,0,5.57-2.49,5.57-5.57V10.98c0-3.08-2.49-5.57-5.57-5.57H12.52
			c-3.07,0-5.57,2.49-5.57,5.57v20.04c0,3.08,2.49,5.57,5.57,5.57h26.73H41.48z"/>
		<path class="st2" d="M41.48,36.59c3.07,0,5.57-2.49,5.57-5.57V10.98c0-3.08-2.49-5.57-5.57-5.57H12.52
			c-3.07,0-5.57,2.49-5.57,5.57v20.04c0,3.08,2.49,5.57,5.57,5.57h26.73H41.48z M39.42,32.14H12.52c-0.62,0-1.11-0.5-1.11-1.11
			V10.98c0-0.61,0.5-1.11,1.11-1.11h28.95c0.62,0,1.11,0.5,1.11,1.11v20.04c0,0.61-0.5,1.11-1.11,1.11H39.42z"/>
		<g>
			<path class="st2" d="M30.32,15.14c-0.42-0.42-0.42-1.1,0-1.52c0.42-0.42,1.1-0.42,1.52,0l6.46,6.46c0.42,0.42,0.42,1.1,0,1.52
				l-6.46,6.46c-0.42,0.42-1.1,0.42-1.52,0c-0.42-0.42-0.42-1.1,0-1.52l5.7-5.7L30.32,15.14z"/>
			<path class="st2" d="M23.68,26.54c0.42,0.42,0.42,1.1,0,1.52c-0.42,0.42-1.1,0.42-1.52,0L15.7,21.6c-0.42-0.42-0.42-1.1,0-1.52
				l6.46-6.46c0.42-0.42,1.1-0.42,1.52,0c0.42,0.42,0.42,1.1,0,1.52l-5.7,5.7L23.68,26.54z"/>
		</g>
	</g>
</g>
<g id="create_form" class="st0">
	<g class="st1">
		<path class="st4" d="M27,2.76C16.93,2.76,8.76,10.93,8.76,21S16.93,39.24,27,39.24S45.24,31.07,45.24,21S37.07,2.76,27,2.76z"/>
		<path class="st2" d="M33.18,12.57l-6.18,0l-6.18,0c-0.13,0.02-0.23,0.14-0.23,0.26v16.32c0,0.14,0.12,0.27,0.27,0.27h2.96h6.37
			h2.96c0.15,0,0.27-0.13,0.27-0.27V12.83C33.41,12.71,33.31,12.59,33.18,12.57z M24.63,22.93h-2.98V21.2h2.98V22.93z M24.63,19.47
			h-2.98v-1.71h2.98V19.47z M32.35,26.38h-3.19v-1.73h3.19V26.38z M32.36,22.93h-6.57V21.2h6.57V22.93z M32.36,19.47h-6.57v-1.71
			h6.57V19.47z"/>
		<path class="st2" d="M27,2.76C16.93,2.76,8.76,10.93,8.76,21S16.93,39.24,27,39.24S45.24,31.07,45.24,21S37.07,2.76,27,2.76z
			 M35.35,18.49v10.87c0,1.14-0.89,2-2,2h-1.26H21.91h-1.26c-1.11,0-2-0.87-2-2V18.49v-5.86c0-0.03,0-0.07,0-0.1
			c0.05-1.08,0.92-1.9,1.99-1.9h0h12.7h0c1.08,0,1.94,0.82,1.99,1.9c0,0.03,0,0.07,0,0.1V18.49z"/>
	</g>
</g>
<g id="set_block_params" class="st0">
	<g class="st1">
		<path class="st4" d="M27,2.76C16.93,2.76,8.76,10.93,8.76,21S16.93,39.24,27,39.24S45.24,31.07,45.24,21S37.07,2.76,27,2.76z"/>
		<polygon class="st2" points="32.43,10.45 27,8.51 21.57,10.45 27,12.39 		"/>
		<polygon class="st2" points="28,20.04 33,18.25 33,12.37 28,14.16 		"/>
		<path class="st2" d="M27,2.76C16.93,2.76,8.76,10.93,8.76,21S16.93,39.24,27,39.24S45.24,31.07,45.24,21S37.07,2.76,27,2.76z
			 M19,10.66c0-0.85,0.53-1.6,1.33-1.89l6-2.14c0.43-0.16,0.91-0.16,1.34,0l6,2.14C34.44,9.06,35,9.81,35,10.66v7.59
			c0,0.85-0.56,1.6-1.33,1.89l-6,2.14c-0.43,0.16-0.91,0.16-1.34,0l-6-2.14C19.53,19.85,19,19.1,19,18.25V10.66z M29.8,32.71H18.41
			c-0.68,0-1.22-0.54-1.22-1.22c0-0.68,0.54-1.22,1.22-1.22H29.8c0.68,0,1.22,0.54,1.22,1.22C31.03,32.16,30.48,32.71,29.8,32.71z
			 M29.8,27.82H18.41c-0.68,0-1.22-0.54-1.22-1.22c0-0.68,0.54-1.22,1.22-1.22H29.8c0.68,0,1.22,0.54,1.22,1.22
			C31.03,27.28,30.48,27.82,29.8,27.82z M36.67,30.68l-2.13,2.13c-0.18,0.19-0.49,0.19-0.67,0l-1.18-1.18
			c-0.19-0.18-0.19-0.49,0-0.67c0.18-0.19,0.49-0.19,0.67,0l0.85,0.85l1.8-1.8c0.18-0.19,0.49-0.19,0.67,0
			C36.86,30.19,36.86,30.49,36.67,30.68z M36.67,25.85l-2.13,2.13c-0.18,0.19-0.49,0.19-0.67,0l-1.18-1.18
			c-0.19-0.18-0.19-0.49,0-0.67c0.18-0.19,0.49-0.19,0.67,0l0.85,0.85l1.8-1.8c0.18-0.19,0.49-0.19,0.67,0
			C36.86,25.36,36.86,25.66,36.67,25.85z"/>
	</g>
</g>
<g id="set_template_region_block_param" class="st0">
	<g class="st1">
		<path class="st4" d="M27,2.76C16.93,2.76,8.76,10.93,8.76,21S16.93,39.24,27,39.24S45.24,31.07,45.24,21S37.07,2.76,27,2.76z"/>
		<path class="st2" d="M20.86,15.18h12.22c0.67,0,1.22-0.55,1.22-1.22v-2.44c0-0.67-0.55-1.22-1.22-1.22H20.86
			c-0.67,0-1.22,0.55-1.22,1.22v2.44C19.63,14.63,20.18,15.18,20.86,15.18z"/>
		<path class="st2" d="M33.71,17.62h-3.47v1.83h3.47c0.34,0,0.61-0.27,0.61-0.61v-0.61C34.33,17.9,34.05,17.62,33.71,17.62z"/>
		<path class="st2" d="M27,2.76C16.93,2.76,8.76,10.93,8.76,21S16.93,39.24,27,39.24S45.24,31.07,45.24,21S37.07,2.76,27,2.76z
			 M17.19,10.29c0-1.35,1.09-2.44,2.44-2.44H34.3c1.35,0,2.44,1.09,2.44,2.44v9.78c0,1.35-1.09,2.44-2.44,2.44H19.63
			c-1.35,0-2.44-1.09-2.44-2.44V10.29z M29.8,32.71H18.41c-0.68,0-1.22-0.54-1.22-1.22c0-0.68,0.54-1.22,1.22-1.22H29.8
			c0.68,0,1.22,0.54,1.22,1.22C31.03,32.16,30.48,32.71,29.8,32.71z M29.8,27.82H18.41c-0.68,0-1.22-0.54-1.22-1.22
			c0-0.68,0.54-1.22,1.22-1.22H29.8c0.68,0,1.22,0.54,1.22,1.22C31.03,27.28,30.48,27.82,29.8,27.82z M36.67,30.68l-2.13,2.13
			c-0.18,0.19-0.49,0.19-0.67,0l-1.18-1.18c-0.19-0.18-0.19-0.49,0-0.67c0.18-0.19,0.49-0.19,0.67,0l0.85,0.85l1.8-1.8
			c0.18-0.19,0.49-0.19,0.67,0C36.86,30.19,36.86,30.49,36.67,30.68z M36.67,25.85l-2.13,2.13c-0.18,0.19-0.49,0.19-0.67,0
			l-1.18-1.18c-0.19-0.18-0.19-0.49,0-0.67c0.18-0.19,0.49-0.19,0.67,0l0.85,0.85l1.8-1.8c0.18-0.19,0.49-0.19,0.67,0
			C36.86,25.36,36.86,25.66,36.67,25.85z"/>
		<path class="st2" d="M20.25,19.46h2.37h0.65v-1.83h-0.65h-2.37c-0.34,0-0.61,0.27-0.61,0.61v0.61
			C19.63,19.19,19.91,19.46,20.25,19.46z"/>
		<rect x="24.54" y="17.62" class="st2" width="4.43" height="1.83"/>
	</g>
</g>
<g id="include_block" class="st0">
	<g class="st1">
		<path class="st4" d="M27,2.76C16.93,2.76,8.76,10.93,8.76,21S16.93,39.24,27,39.24S45.24,31.07,45.24,21S37.07,2.76,27,2.76z"/>
		<polygon class="st2" points="28.36,28.58 35.15,26.16 35.15,18.17 28.36,20.6 		"/>
		<polygon class="st2" points="27,12.93 19.62,15.56 27,18.2 34.38,15.56 		"/>
		<path class="st2" d="M27,2.76C16.93,2.76,8.76,10.93,8.76,21S16.93,39.24,27,39.24S45.24,31.07,45.24,21S37.07,2.76,27,2.76z
			 M37.87,26.16c0,1.15-0.76,2.17-1.8,2.56l-8.15,2.91c-0.59,0.21-1.24,0.21-1.83,0l-8.16-2.91c-1.08-0.39-1.8-1.41-1.8-2.56V15.84
			c0-1.15,0.72-2.18,1.8-2.56l8.16-2.91c0.59-0.21,1.24-0.21,1.83,0l8.15,2.91c1.04,0.39,1.8,1.41,1.8,2.56V26.16z"/>
	</g>
</g>
<g id="add_template_region_block" class="st0">
	<g class="st1">
		<path class="st4" d="M42.69,5.31H11.31c-2.89,0-5.23,2.34-5.23,5.23v20.92c0,2.89,2.34,5.23,5.23,5.23h31.37
			c2.89,0,5.23-2.34,5.23-5.23V10.54C47.92,7.65,45.58,5.31,42.69,5.31z"/>
		<path class="st2" d="M42.69,5.31H11.31c-2.89,0-5.23,2.34-5.23,5.23v20.92c0,2.89,2.34,5.23,5.23,5.23h31.37
			c2.89,0,5.23-2.34,5.23-5.23V10.54C47.92,7.65,45.58,5.31,42.69,5.31z M11.31,13.16c0-1.44,1.17-2.61,2.61-2.61h26.15
			c1.44,0,2.61,1.17,2.61,2.61v5.23c0,1.44-1.17,2.61-2.61,2.61H13.93c-1.44,0-2.61-1.18-2.61-2.61V13.16z M21.8,26.23h9.48v3.92
			H21.8V26.23z M12.62,30.15c-0.72,0-1.31-0.58-1.31-1.31v-1.31c0-0.73,0.58-1.31,1.31-1.31h5.07h1.39v3.92h-1.39H12.62z
			 M42.74,28.84c0,0.72-0.59,1.31-1.31,1.31h-7.41v-3.92h7.41c0.72,0,1.31,0.59,1.31,1.31V28.84z"/>
		<path class="st2" d="M26.64,11.56c0.23-0.08,0.48-0.08,0.71,0l3.18,1.14c0.41,0.15,0.7,0.55,0.7,1v4.03c0,0.45-0.3,0.85-0.7,1
			l-3.18,1.14c-0.23,0.08-0.48,0.08-0.71,0l-3.18-1.14c-0.42-0.15-0.7-0.55-0.7-1V13.7c0-0.45,0.28-0.85,0.7-1L26.64,11.56z
			 M27,12.56l-2.88,1.03L27,14.62l2.88-1.03L27,12.56z M27.53,18.67l2.65-0.95v-3.12l-2.65,0.95V18.67z"/>
	</g>
</g>
<g id="render_template_region" class="st0">
	<g class="st1">
		<path class="st4" d="M42.69,5.31H11.31c-2.89,0-5.23,2.34-5.23,5.23v20.92c0,2.89,2.34,5.23,5.23,5.23h31.37
			c2.89,0,5.23-2.34,5.23-5.23V10.54C47.92,7.65,45.58,5.31,42.69,5.31z"/>
		<path class="st2" d="M42.69,5.31H11.31c-2.89,0-5.23,2.34-5.23,5.23v20.92c0,2.89,2.34,5.23,5.23,5.23h31.37
			c2.89,0,5.23-2.34,5.23-5.23V10.54C47.92,7.65,45.58,5.31,42.69,5.31z M11.31,13.16c0-1.44,1.17-2.61,2.61-2.61h26.15
			c1.44,0,2.61,1.17,2.61,2.61v5.23c0,1.44-1.17,2.61-2.61,2.61H13.93c-1.44,0-2.61-1.18-2.61-2.61V13.16z M21.8,26.23h9.48v3.92
			H21.8V26.23z M12.62,30.15c-0.72,0-1.31-0.58-1.31-1.31v-1.31c0-0.73,0.58-1.31,1.31-1.31h5.07h1.39v3.92h-1.39H12.62z
			 M42.74,28.84c0,0.72-0.59,1.31-1.31,1.31h-7.41v-3.92h7.41c0.72,0,1.31,0.59,1.31,1.31V28.84z"/>
		<path class="st2" d="M30.11,14.73h-6.23c-0.57,0-1.04,0.47-1.04,1.04v1.56c0,0.29,0.23,0.52,0.52,0.52h0.52v1.56
			c0,0.29,0.23,0.52,0.52,0.52h5.19c0.29,0,0.52-0.23,0.52-0.52v-1.56h0.52c0.29,0,0.52-0.23,0.52-0.52v-1.56
			C31.15,15.2,30.69,14.73,30.11,14.73z M29.08,18.89h-4.15v-1.56h4.15V18.89z M29.85,16.42c-0.21,0-0.39-0.17-0.39-0.39
			c0-0.22,0.17-0.39,0.39-0.39s0.39,0.17,0.39,0.39C30.24,16.25,30.07,16.42,29.85,16.42z M24.92,12.66h3.72l0.43,0.43v1.13h1.04
			v-1.34c0-0.14-0.05-0.27-0.15-0.37l-0.73-0.73c-0.1-0.1-0.23-0.15-0.37-0.15h-4.46c-0.29,0-0.52,0.23-0.52,0.52v2.08h1.04V12.66z"
			/>
	</g>
</g>
<g id="set_template_param" class="st0">
	<g class="st1">
		<path class="st4" d="M27,2.76C16.93,2.76,8.76,10.93,8.76,21S16.93,39.24,27,39.24S45.24,31.07,45.24,21S37.07,2.76,27,2.76z"/>
		<path class="st2" d="M18.67,26.31c-0.42,0-0.76,0.34-0.76,0.76v0.76c0,0.42,0.34,0.76,0.76,0.76h2.93h0.8v-2.27h-0.8H18.67z"/>
		<path class="st2" d="M26.56,12.21c0.23,0.23,0.6,0.23,0.83,0l2.64-2.64c0.23-0.23,0.23-0.6,0-0.83c-0.23-0.23-0.6-0.23-0.83,0
			l-2.23,2.23l-1.05-1.05c-0.23-0.23-0.6-0.23-0.83,0c-0.23,0.23-0.23,0.6,0,0.83L26.56,12.21z"/>
		<path class="st2" d="M19.43,23.28h15.14c0.83,0,1.51-0.68,1.51-1.51v-3.03c0-0.83-0.68-1.51-1.51-1.51H19.43
			c-0.83,0-1.51,0.68-1.51,1.51v3.03C17.92,22.6,18.6,23.28,19.43,23.28z"/>
		<path class="st2" d="M35.35,26.31h-4.29v2.27h4.29c0.42,0,0.76-0.34,0.76-0.76v-0.76C36.11,26.65,35.77,26.31,35.35,26.31z"/>
		<rect x="23.99" y="26.31" class="st2" width="5.49" height="2.27"/>
		<path class="st2" d="M27,2.76C16.93,2.76,8.76,10.93,8.76,21S16.93,39.24,27,39.24S45.24,31.07,45.24,21S37.07,2.76,27,2.76z
			 M27.56,5.32c3.04,0,5.5,2.46,5.5,5.5c0,1.42-0.54,2.71-1.42,3.69h-8.15c-0.88-0.98-1.42-2.27-1.42-3.69
			C22.06,7.78,24.52,5.32,27.56,5.32z M39.11,29.33c0,1.67-1.35,3.03-3.03,3.03H17.92c-1.67,0-3.03-1.35-3.03-3.03V17.22
			c0-1.67,1.35-3.03,3.03-3.03h3.93l0.35,0.52l-0.14,0.56h10.93l-0.14-0.42l0.42-0.66h2.82c1.67,0,3.03,1.35,3.03,3.03V29.33z"/>
	</g>
</g>
<g id="get_template_paran" class="st0">
	<g class="st1">
		<path class="st4" d="M27,2.76C16.93,2.76,8.76,10.93,8.76,21S16.93,39.24,27,39.24S45.24,31.07,45.24,21S37.07,2.76,27,2.76z"/>
		<path class="st2" d="M19.43,17.73h15.14c0.83,0,1.51-0.68,1.51-1.51v-3.03c0-0.83-0.68-1.51-1.51-1.51H19.43
			c-0.83,0-1.51,0.68-1.51,1.51v3.03C17.92,17.05,18.6,17.73,19.43,17.73z"/>
		<rect x="23.99" y="20.76" class="st2" width="5.49" height="2.27"/>
		<path class="st2" d="M29.2,29.5l-2.23,2.23l-1.05-1.05c-0.23-0.23-0.6-0.23-0.83,0c-0.23,0.23-0.23,0.6,0,0.83l1.47,1.47
			c0.23,0.23,0.6,0.23,0.83,0l2.64-2.64c0.23-0.23,0.23-0.6,0-0.83C29.8,29.27,29.42,29.27,29.2,29.5z"/>
		<path class="st2" d="M18.67,20.76c-0.42,0-0.76,0.34-0.76,0.76v0.76c0,0.42,0.34,0.76,0.76,0.76h2.93h0.8v-2.27h-0.8H18.67z"/>
		<path class="st2" d="M35.35,20.76h-4.29v2.27h4.29c0.42,0,0.76-0.34,0.76-0.76v-0.76C36.11,21.1,35.77,20.76,35.35,20.76z"/>
		<path class="st2" d="M27,2.76C16.93,2.76,8.76,10.93,8.76,21S16.93,39.24,27,39.24S45.24,31.07,45.24,21S37.07,2.76,27,2.76z
			 M27.56,36.38c-3.04,0-5.5-2.46-5.5-5.5c0-1.23,0.4-2.36,1.08-3.27h8.84c0.68,0.91,1.08,2.05,1.08,3.27
			C33.06,33.92,30.59,36.38,27.56,36.38z M39.11,23.78c0,1.67-1.35,3.03-3.03,3.03H17.92c-1.67,0-3.03-1.35-3.03-3.03V11.67
			c0-1.67,1.35-3.03,3.03-3.03h18.17c1.67,0,3.03,1.35,3.03,3.03V23.78z"/>
	</g>
</g>
<g id="outras_tasks" class="st0">
	<path class="st5" d="M27,2.76C16.93,2.76,8.76,10.93,8.76,21S16.93,39.24,27,39.24S45.24,31.07,45.24,21S37.07,2.76,27,2.76z"/>
	<path class="st3" d="M27,2.76C16.93,2.76,8.76,10.93,8.76,21S16.93,39.24,27,39.24S45.24,31.07,45.24,21S37.07,2.76,27,2.76z
		 M34.34,23H29v5.34c0,1.11-0.89,2-2,2c-1.11,0-2-0.89-2-2V23h-5.34c-1.11,0-2-0.89-2-2c0-1.11,0.89-2,2-2H25v-5.34
		c0-1.11,0.89-2,2-2c1.11,0,2,0.89,2,2V19h5.34c1.11,0,2,0.89,2,2C36.34,22.11,35.44,23,34.34,23z"/>
</g>
<g id="namespace" class="st0">
	<path class="st5" d="M27,2.76C16.93,2.76,8.76,10.93,8.76,21S16.93,39.24,27,39.24S45.24,31.07,45.24,21S37.07,2.76,27,2.76z"/>
	<path class="st3" d="M27,2.76C16.93,2.76,8.76,10.93,8.76,21S16.93,39.24,27,39.24S45.24,31.07,45.24,21S37.07,2.76,27,2.76z
		 M26.14,25.58c-0.16,0.15-0.37,0.25-0.6,0.28c0,0-3.15,0.18-3.59,0.4c-0.44,0.22-0.9,1.42-2.01,1.42h-2.5
		c-2.07,0-3.75-1.68-3.75-3.75v-2.5c0-0.69,0.56-1.25,1.25-1.25c0.24,0,0.46,0.07,0.65,0.19c0.11-0.58,0.62-1.02,1.23-1.02
		c0.45,0,0.85,0.24,1.07,0.6c0.13-0.58,0.62-1.02,1.23-1.02c0.32,0,0.61,0.12,0.83,0.32v-3.87c0-0.58,0.47-1.04,1.02-1.04
		c0.6,0,1.07,0.47,1.07,1.04v8.41l3.29,0c0.34-0.04,0.66,0.09,0.88,0.32C26.57,24.51,26.58,25.17,26.14,25.58z M25.43,14.62
		c0-0.86,0.7-1.57,1.57-1.57s1.57,0.7,1.57,1.57c0,0.86-0.7,1.57-1.57,1.57S25.43,15.48,25.43,14.62z M36.56,27.67h-2.5
		c-1.11,0-1.56-1.2-2.01-1.42c-0.44-0.22-3.59-0.4-3.59-0.4c-0.23-0.03-0.44-0.13-0.6-0.28c-0.44-0.41-0.43-1.07-0.05-1.47
		c0.22-0.23,0.54-0.36,0.88-0.32l3.29,0v-8.41c0-0.58,0.47-1.04,1.07-1.04c0.55,0,1.02,0.47,1.02,1.04v3.87
		c0.22-0.2,0.51-0.32,0.83-0.32c0.61,0,1.1,0.44,1.23,1.02c0.22-0.36,0.61-0.6,1.07-0.6c0.61,0,1.12,0.44,1.23,1.02
		c0.19-0.12,0.41-0.19,0.65-0.19c0.69,0,1.25,0.56,1.25,1.25v2.5C40.31,25.99,38.62,27.67,36.56,27.67z"/>
</g>
<g id="User_generated_1" class="st0">
	<g class="st1">
		<path class="st4" d="M27,2.76C16.93,2.76,8.76,10.93,8.76,21c0,10.07,8.16,18.24,18.24,18.24S45.24,31.07,45.24,21
			C45.24,10.93,37.07,2.76,27,2.76z"/>
		<path class="st2" d="M27,2.76C16.93,2.76,8.76,10.93,8.76,21c0,10.07,8.16,18.24,18.24,18.24S45.24,31.07,45.24,21
			C45.24,10.93,37.07,2.76,27,2.76z M27,34c-7.18,0-13-5.82-13-13S19.82,8,27,8s13,5.82,13,13S34.18,34,27,34z"/>
		<path class="st2" d="M27,11.25c-5.43,0-9.75,4.32-9.75,9.75c0,5.38,4.32,9.75,9.75,9.75c5.38,0,9.75-4.37,9.75-9.75
			C36.75,15.57,32.38,11.25,27,11.25z M27,28.31c-4.04,0-7.31-3.28-7.31-7.31s3.28-7.31,7.31-7.31s7.31,3.28,7.31,7.31
			S31.04,28.31,27,28.31z"/>
		<path class="st2" d="M27,16.94c-2.24,0-4.06,1.82-4.06,4.06c0,2.24,1.82,4.06,4.06,4.06s4.06-1.82,4.06-4.06
			C31.06,18.76,29.24,16.94,27,16.94z M27,22.62c-0.9,0-1.62-0.73-1.62-1.62c0-0.9,0.73-1.62,1.62-1.62s1.62,0.73,1.62,1.62
			C28.62,21.9,27.9,22.62,27,22.62z"/>
	</g>
</g>
<g id="user_generated_2" class="st0">
	<g class="st1">
		<path class="st4" d="M38.61,26.5l-5.2,0.94l-0.94,5.2c-0.09,0.52-0.7,0.77-1.13,0.47L27,30.09l-4.34,3.01
			c-0.44,0.3-1.04,0.05-1.13-0.47l-0.94-5.2l-5.2-0.94c-0.52-0.09-0.77-0.7-0.47-1.13l3.01-4.34l-3.01-4.38
			c-0.3-0.39-0.05-1,0.47-1.09l5.2-0.94l0.9-5.2c0.09-0.52,0.7-0.77,1.13-0.47L27,11.95l4.34-3.06c0.44-0.3,1.04-0.05,1.13,0.47
			l0.94,5.2l5.2,0.94c0.52,0.09,0.77,0.7,0.47,1.13l-3.01,4.34l3.02,4.38C39.39,25.8,39.14,26.4,38.61,26.5z"/>
		<path class="st2" d="M27,14.96c-3.33,0-6.06,2.69-6.06,6.06c0,3.33,2.69,6.06,6.06,6.06c3.37,0,6.06-2.69,6.06-6.06
			C33.06,17.69,30.33,14.96,27,14.96z M27,25.56c-2.57,0-4.54-2.14-4.54-4.62S24.47,16.4,27,16.4c2.53,0,4.54,2.14,4.54,4.62
			C31.54,23.51,29.57,25.56,27,25.56z"/>
		<path class="st2" d="M27,2.76C16.93,2.76,8.76,10.93,8.76,21c0,10.07,8.16,18.24,18.24,18.24S45.24,31.07,45.24,21
			C45.24,10.93,37.07,2.76,27,2.76z M38.61,26.5l-5.2,0.94l-0.94,5.2c-0.09,0.52-0.7,0.77-1.13,0.47L27,30.09l-4.34,3.01
			c-0.44,0.3-1.04,0.05-1.13-0.47l-0.94-5.2l-5.2-0.94c-0.52-0.09-0.77-0.7-0.47-1.13l3.01-4.34l-3.01-4.38
			c-0.3-0.39-0.05-1,0.47-1.09l5.2-0.94l0.9-5.2c0.09-0.52,0.7-0.77,1.13-0.47L27,11.95l4.34-3.06c0.44-0.3,1.04-0.05,1.13,0.47
			l0.94,5.2l5.2,0.94c0.52,0.09,0.77,0.7,0.47,1.13l-3.01,4.34l3.02,4.38C39.39,25.8,39.14,26.4,38.61,26.5z"/>
	</g>
</g>
</svg>
