<svg xmlns="http://www.w3.org/2000/svg" viewBox="0 0 36.47 36.47"><defs><style>.cls-1{fill:#4070ff;}</style></defs><title>Asset 26</title><g id="Layer_2" data-name="Layer 2"><g id="connect_with_REST_web_service" data-name="connect with REST web service"><path class="cls-1" d="M15.92,24.9h0L17,24.22,12.3,16.85l-1.08.68a4.37,4.37,0,0,0,4.7,7.37Z"/><path class="cls-1" d="M34.36,9.72,29.8,12.63a7.39,7.39,0,0,1-2.92,8.84L24.55,23h0a1.54,1.54,0,0,1-1.13.2,1.49,1.49,0,0,1-.95-.66l-6.34-9.93a1.51,1.51,0,0,1,.46-2.08L18.93,9a7.39,7.39,0,0,1,9.25,1.06l4.56-2.91A18.24,18.24,0,0,0,2.11,26.75l4.56-2.91A7.39,7.39,0,0,1,9.59,15l2.35-1.51A1.51,1.51,0,0,1,14,14l6.35,9.93a1.57,1.57,0,0,1,.2,1.14,1.55,1.55,0,0,1-.66.94h0l-2.36,1.48a7.4,7.4,0,0,1-9.25-1.06L3.73,29.29A18.24,18.24,0,0,0,34.36,9.72Z"/><path class="cls-1" d="M20.55,11.57l-1.08.69,4.71,7.37,1.06-.69h0a4.37,4.37,0,0,0-4.7-7.37Z"/></g></g></svg>