<svg xmlns="http://www.w3.org/2000/svg" viewBox="0 0 36.47 36.47"><defs><style>.cls-1{fill:#4070ff;}</style></defs><title>20220513Asset 50</title><g id="Layer_2" data-name="Layer 2"><g id="Layer_51" data-name="Layer 51"><path class="cls-1" d="M18.23,12.19a6.07,6.07,0,1,0,6.07,6.07A6.06,6.06,0,0,0,18.23,12.19Zm0,10.6a4.58,4.58,0,1,1,4.54-4.53A4.5,4.5,0,0,1,18.23,22.79Z"/><path class="cls-1" d="M18.24,0A18.24,18.24,0,1,0,36.47,18.24,18.23,18.23,0,0,0,18.24,0ZM29.85,23.73l-5.2.94-.94,5.2a.73.73,0,0,1-1.13.47l-4.35-3-4.34,3a.73.73,0,0,1-1.13-.47l-.94-5.2-5.2-.94a.73.73,0,0,1-.47-1.13l3-4.34-3-4.39a.7.7,0,0,1,.47-1.09l5.2-.94.9-5.2a.73.73,0,0,1,1.13-.47l4.38,3,4.35-3.06a.73.73,0,0,1,1.13.47l.94,5.2,5.2.94a.73.73,0,0,1,.47,1.13l-3,4.34,3,4.39A.73.73,0,0,1,29.85,23.73Z"/></g></g></svg>