<svg xmlns="http://www.w3.org/2000/svg" viewBox="0 0 36.47 36.47"><defs><style>.cls-1{fill:#4070ff;}</style></defs><title>20220513Asset 51</title><g id="Layer_2" data-name="Layer 2"><g id="User_generated_1" data-name="User generated 1"><path class="cls-1" d="M18.24,8.49A9.75,9.75,0,1,0,28,18.24,9.69,9.69,0,0,0,18.24,8.49Zm0,17.06a7.32,7.32,0,1,1,7.31-7.31A7.32,7.32,0,0,1,18.24,25.55Z"/><path class="cls-1" d="M18.24,0A18.24,18.24,0,1,0,36.47,18.24,18.23,18.23,0,0,0,18.24,0Zm0,31.24a13,13,0,1,1,13-13A13,13,0,0,1,18.24,31.24Z"/><path class="cls-1" d="M18.24,14.17a4.07,4.07,0,1,0,4.06,4.07A4.07,4.07,0,0,0,18.24,14.17Zm0,5.69a1.63,1.63,0,1,1,1.62-1.62A1.63,1.63,0,0,1,18.24,19.86Z"/></g></g></svg>