<svg xmlns="http://www.w3.org/2000/svg" viewBox="0 0 36.47 36.47"><defs><style>.cls-1{fill:#4070ff;}</style></defs><title>Asset 11</title><g id="Layer_2" data-name="Layer 2"><g id="set_presentation_template" data-name="set presentation template"><path class="cls-1" d="M10.53,21a.7.7,0,0,0-.7.7v.7a.7.7,0,0,0,.7.7H14V21H10.53Z"/><rect class="cls-1" x="15.45" y="21.04" width="5.08" height="2.1"/><rect class="cls-1" x="9.83" y="12.63" width="16.81" height="5.6" rx="1.4"/><path class="cls-1" d="M18.24,0A18.24,18.24,0,1,0,36.47,18.24,18.23,18.23,0,0,0,18.24,0Zm11.2,23.84a2.8,2.8,0,0,1-2.8,2.8H9.83A2.8,2.8,0,0,1,7,23.84V12.63a2.8,2.8,0,0,1,2.8-2.8H26.64a2.8,2.8,0,0,1,2.8,2.8Z"/><path class="cls-1" d="M26,21H22v2.1h4a.71.71,0,0,0,.7-.7v-.7A.7.7,0,0,0,26,21Z"/></g></g></svg>