<?xml version="1.0" encoding="UTF-8" standalone="no"?>
<svg
   xmlns:dc="http://purl.org/dc/elements/1.1/"
   xmlns:cc="http://creativecommons.org/ns#"
   xmlns:rdf="http://www.w3.org/1999/02/22-rdf-syntax-ns#"
   xmlns:svg="http://www.w3.org/2000/svg"
   xmlns="http://www.w3.org/2000/svg"
   id="svg4"
   version="1.1"
   viewBox="0 0 448 512">
  <metadata
     id="metadata10">
    <rdf:RDF>
      <cc:Work
         rdf:about="">
        <dc:format>image/svg+xml</dc:format>
        <dc:type
           rdf:resource="http://purl.org/dc/dcmitype/StillImage" />
        <dc:title></dc:title>
      </cc:Work>
    </rdf:RDF>
  </metadata>
  <defs
     id="defs8" />
  <!--! Font Awesome Pro 6.2.1 by @fontawesome - https://fontawesome.com License - https://fontawesome.com/license (Commercial License) Copyright 2022 Fonticons, Inc. -->
  <path
     id="path2"
     d="M 0,96 C 0,78.3 14.3,64 32,64 h 384 c 17.7,0 32,14.3 32,32 0,17.7 -14.3,32 -32,32 H 32 C 14.3,128 0,113.7 0,96 Z m 0,160 c 0,-17.7 14.3,-32 32,-32 h 249.49153 c 17.7,0 32,14.3 32,32 0,17.7 -14.3,32 -32,32 H 32 C 14.3,288 0,273.7 0,256 Z m 239.72882,160 c 0,17.7 -14.3,32 -32,32 H 32 C 14.3,448 0,433.7 0,416 0,398.3 14.3,384 32,384 h 175.72882 c 17.7,0 32,14.3 32,32 z" />
  <path
     style="stroke-width:0.39414126"
     id="path2-3"
     d="m 370.33326,259.81245 45.56858,55.87194 -98.95026,121.32357 -40.62803,5.49903 c -5.43889,0.73757 -10.0342,-4.90111 -9.42908,-11.56978 l 4.52055,-49.84921 z m 73.75264,-8.31839 -21.39609,-26.23388 c -6.67405,-8.1831 -17.49846,-8.1831 -24.1725,0 l -20.12893,24.68019 45.5686,55.87196 20.12892,-24.68021 c 6.67405,-8.18745 6.67405,-21.45497 0,-29.63806 z" />
</svg>
