<svg xmlns="http://www.w3.org/2000/svg" viewBox="0 0 36.47 36.47"><defs><style>.cls-1{fill:#4070ff;}</style></defs><title>Asset 49</title><g id="Layer_2" data-name="Layer 2"><g id="namespace"><path class="cls-1" d="M18.24,0A18.24,18.24,0,1,0,36.47,18.24,18.23,18.23,0,0,0,18.24,0Zm-.86,22.82a1.07,1.07,0,0,1-.6.27,25.39,25.39,0,0,0-3.59.4c-.45.22-.9,1.42-2,1.42H8.68a3.76,3.76,0,0,1-3.75-3.76v-2.5A1.25,1.25,0,0,1,6.18,17.4a1.21,1.21,0,0,1,.65.19,1.25,1.25,0,0,1,2.29-.42,1.26,1.26,0,0,1,1.23-1,1.24,1.24,0,0,1,.83.33V12.61a1,1,0,1,1,2.08,0V21h3.29a1,1,0,0,1,.83,1.8Zm-.71-11a1.57,1.57,0,1,1,1.57,1.56A1.57,1.57,0,0,1,16.67,11.86ZM27.79,24.91h-2.5c-1.11,0-1.56-1.2-2-1.42a25.39,25.39,0,0,0-3.59-.4A1,1,0,0,1,19,21.34a1,1,0,0,1,.88-.32h3.29V12.61a1,1,0,1,1,2.08,0v3.87a1.24,1.24,0,0,1,.83-.33,1.26,1.26,0,0,1,1.23,1,1.25,1.25,0,0,1,2.29.42,1.21,1.21,0,0,1,.65-.19,1.25,1.25,0,0,1,1.25,1.25v2.5A3.76,3.76,0,0,1,27.79,24.91Z"/></g></g></svg>