<svg xmlns="http://www.w3.org/2000/svg" viewBox="0 0 36.47 36.47"><defs><style>.cls-1{fill:#4070ff;}</style></defs><title>Asset 46</title><g id="Layer_2" data-name="Layer 2"><g id="create_array" data-name="create array"><path class="cls-1" d="M18.24,0A18.24,18.24,0,1,0,36.47,18.24,18.23,18.23,0,0,0,18.24,0ZM9,10H27.34a1.53,1.53,0,0,1,0,3.06H9A1.53,1.53,0,0,1,9,10ZM27.34,26.45H9a1.53,1.53,0,0,1,0-3.06H27.34a1.53,1.53,0,0,1,0,3.06ZM28.94,22H10.6a1.53,1.53,0,0,1,0-3H28.94a1.53,1.53,0,1,1,0,3Zm0-4.46H10.6a1.53,1.53,0,0,1,0-3.05H28.94a1.53,1.53,0,1,1,0,3.05Z"/></g></g></svg>