<svg xmlns="http://www.w3.org/2000/svg" viewBox="0 0 36.47 36.47"><defs><style>.cls-1{fill:#4070ff;}</style></defs><title>Asset 8</title><g id="Layer_2" data-name="Layer 2"><g id="set_block_params" data-name="set block params"><polygon class="cls-1" points="23.67 7.69 18.23 5.75 12.8 7.69 18.23 9.63 23.67 7.69"/><polygon class="cls-1" points="19.24 17.28 24.24 15.49 24.24 9.61 19.24 11.4 19.24 17.28"/><path class="cls-1" d="M18.24,0A18.24,18.24,0,1,0,36.47,18.24,18.23,18.23,0,0,0,18.24,0Zm-8,7.9A2,2,0,0,1,11.56,6l6-2.14a2,2,0,0,1,1.35,0l6,2.14A2,2,0,0,1,26.24,7.9v7.59a2,2,0,0,1-1.33,1.88l-6,2.15a2.08,2.08,0,0,1-1.35,0l-6-2.15a2,2,0,0,1-1.33-1.88ZM21,29.94H9.65a1.22,1.22,0,1,1,0-2.44H21a1.22,1.22,0,1,1,0,2.44Zm0-4.88H9.65a1.22,1.22,0,1,1,0-2.44H21a1.22,1.22,0,1,1,0,2.44Zm6.87,2.85L25.77,30a.45.45,0,0,1-.66,0l-1.19-1.18a.46.46,0,0,1,0-.67.48.48,0,0,1,.67,0l.85.85,1.8-1.8a.47.47,0,0,1,.67.67Zm0-4.83-2.14,2.13a.45.45,0,0,1-.66,0L23.92,24a.47.47,0,0,1,.67-.67l.85.85,1.8-1.8a.47.47,0,1,1,.67.67Z"/></g></g></svg>