<svg xmlns="http://www.w3.org/2000/svg" viewBox="0 0 40.09 31.18"><defs><style>.cls-1{fill:#4070ff;}</style></defs><title>Asset 10</title><g id="Layer_2" data-name="Layer 2"><g id="echo_inline_html" data-name="echo inline html"><path class="cls-1" d="M34.52,31.18a5.57,5.57,0,0,0,5.57-5.57v-20A5.57,5.57,0,0,0,34.52,0H5.57A5.57,5.57,0,0,0,0,5.57v20a5.57,5.57,0,0,0,5.57,5.57h29Zm-2.06-4.45H5.57a1.12,1.12,0,0,1-1.12-1.12v-20A1.12,1.12,0,0,1,5.57,4.45h29a1.12,1.12,0,0,1,1.12,1.12v20a1.12,1.12,0,0,1-1.12,1.12Z"/><path class="cls-1" d="M23.36,9.73a1.09,1.09,0,0,1,0-1.53,1.07,1.07,0,0,1,1.52,0l6.47,6.47a1.07,1.07,0,0,1,0,1.52l-6.47,6.46a1.07,1.07,0,1,1-1.52-1.52l5.7-5.7Z"/><path class="cls-1" d="M16.73,21.13a1.07,1.07,0,1,1-1.52,1.52L8.74,16.19a1.07,1.07,0,0,1,0-1.52L15.21,8.2a1.07,1.07,0,0,1,1.52,0,1.09,1.09,0,0,1,0,1.53L11,15.43Z"/></g></g></svg>