<svg xmlns="http://www.w3.org/2000/svg" viewBox="0 0 36.47 36.47"><defs><style>.cls-1{fill:#4070ff;}</style></defs><title>Asset 20</title><g id="Layer_2" data-name="Layer 2"><g id="set_sql_query" data-name="set sql query"><path class="cls-1" d="M21.57,10.39l-1.69,1.69a.33.33,0,0,0,0,.45.35.35,0,0,0,.23.09.31.31,0,0,0,.22-.09l1.91-1.91a.31.31,0,0,0,0-.45L20.33,8.26a.31.31,0,0,0-.45,0,.33.33,0,0,0,0,.45Z"/><path class="cls-1" d="M16.13,12.53a.32.32,0,0,0,.23.09.31.31,0,0,0,.22-.09.33.33,0,0,0,0-.45L14.89,10.4l1.69-1.69a.33.33,0,0,0,0-.45.31.31,0,0,0-.45,0l-1.91,1.91a.31.31,0,0,0,0,.45Z"/><path class="cls-1" d="M17.36,12.82a.32.32,0,0,0,.41-.19l1.51-4.16a.31.31,0,0,0-.18-.41.32.32,0,0,0-.41.19l-1.42,3.86-.09.29A.33.33,0,0,0,17.36,12.82Z"/><path class="cls-1" d="M18.22,0A18.24,18.24,0,1,0,36.47,18.22,18.24,18.24,0,0,0,18.22,0Zm0,5.29a5.49,5.49,0,0,1,4.08,9.18H14.16a5.49,5.49,0,0,1,4.07-9.19Zm-7.1,10c0-.53.45-1,1.21-1.42a5.67,5.67,0,0,0,.5.86l-.11.55H23.66l-.09-.47a6.85,6.85,0,0,0,.56-.94c.76.41,1.2.89,1.2,1.42v1.52c0,1.4-3.17,2.54-7.09,2.54s-7.1-1.13-7.1-2.53Zm0,3.36a6,6,0,0,0,1.74.9,16.41,16.41,0,0,0,5.36.8,16.45,16.45,0,0,0,5.36-.8,6.75,6.75,0,0,0,1.73-.91v3.23c0,1.4-3.18,2.54-7.1,2.54s-7.1-1.13-7.1-2.53Zm7.1,10.32c-3.92,0-7.1-1.13-7.1-2.53V23.69a6.35,6.35,0,0,0,1.74.91,16.47,16.47,0,0,0,5.36.79,16.45,16.45,0,0,0,5.36-.8,6.82,6.82,0,0,0,1.74-.91V26.4C25.34,27.8,22.16,28.94,18.24,28.94Z"/></g></g></svg>