<svg xmlns="http://www.w3.org/2000/svg" viewBox="0 0 36.47 36.47"><defs><style>.cls-1{fill:#4070ff;}</style></defs><title>Asset 33</title><g id="Layer_2" data-name="Layer 2"><g id="echo_variable_or_string" data-name="echo variable or string"><rect class="cls-1" x="13.08" y="22.1" width="10.32" height="3.87"/><circle class="cls-1" cx="25.33" cy="18.88" r="0.97"/><path class="cls-1" d="M18.24,0A18.24,18.24,0,1,0,36.47,18.24,18.23,18.23,0,0,0,18.24,0ZM10.5,9.21a1.28,1.28,0,0,1,1.29-1.29H22.86a1.25,1.25,0,0,1,.91.38l1.83,1.82A1.29,1.29,0,0,1,26,11v3.34H23.39v-2.8L22.33,10.5H13.08v3.87H10.5ZM28.55,22.1a1.28,1.28,0,0,1-1.29,1.29H26v3.87a1.28,1.28,0,0,1-1.29,1.29H11.79a1.28,1.28,0,0,1-1.29-1.29V23.39H9.21A1.28,1.28,0,0,1,7.92,22.1V18.24a2.57,2.57,0,0,1,2.58-2.58H26a2.57,2.57,0,0,1,2.58,2.58Z"/></g></g></svg>