<svg xmlns="http://www.w3.org/2000/svg" viewBox="0 0 39.01 36.29"><defs><style>.cls-1{fill:#4070ff;}</style></defs><title>Asset 13</title><g id="Layer_2" data-name="Layer 2"><g id="call_presentation_layer_web_service" data-name="call presentation layer web service"><path class="cls-1" d="M38.87,15.78a2.48,2.48,0,0,0-2.08-2.16L34.07,13A15.56,15.56,0,0,0,31.2,8.05l.86-2.62a2.53,2.53,0,0,0-.82-2.86,9.43,9.43,0,0,0-1.7-1.15l-.61-.35a16.65,16.65,0,0,0-1.8-.88,2.53,2.53,0,0,0-2.9.72L22.39,3a15.23,15.23,0,0,0-2.89-.28A15.39,15.39,0,0,0,16.61,3L14.78.91a2.61,2.61,0,0,0-2.9-.72,10.77,10.77,0,0,0-1.8.88l-.62.35A9,9,0,0,0,7.77,2.57a2.52,2.52,0,0,0-.83,2.86L7.8,8.05A15.53,15.53,0,0,0,4.94,13l-2.72.65A2.48,2.48,0,0,0,.14,15.78,20.66,20.66,0,0,0,0,18.15a20.35,20.35,0,0,0,.14,2.36,2.37,2.37,0,0,0,2.08,2.06l2.68.64a15.57,15.57,0,0,0,2.9,5l-.86,2.62a2.54,2.54,0,0,0,.83,2.87c.54.4,1.1.68,1.68,1.13l.63.36a18.81,18.81,0,0,0,1.8.89,2.64,2.64,0,0,0,2.9-.72l1.83-2.06a16.27,16.27,0,0,0,2.89.27,16.09,16.09,0,0,0,2.89-.27l1.84,2.06a2.56,2.56,0,0,0,2.9.72c.51-.27,1.22-.56,1.8-.89l.63-.36c.58-.45,1.13-.73,1.68-1.13a2.55,2.55,0,0,0,.82-2.87l-.86-2.62a15.41,15.41,0,0,0,2.91-5l2.68-.64a2.37,2.37,0,0,0,2.08-2.06A20.35,20.35,0,0,0,39,18.15,20.66,20.66,0,0,0,38.87,15.78ZM28.8,14.39H24.23a13.77,13.77,0,0,0-2.17-5.94A10.08,10.08,0,0,1,28.8,14.39Zm-5.54,3.76a25,25,0,0,1-.13,2.5H15.87a24.82,24.82,0,0,1-.16-2.5,25,25,0,0,1,.16-2.51h7.26C23.21,16.44,23.26,17.28,23.26,18.15ZM18.41,8.66a1.66,1.66,0,0,1,1.09-.54,1.64,1.64,0,0,1,1.09.54,6.58,6.58,0,0,1,1.31,2A15.77,15.77,0,0,1,23,14.39H16.05a15.32,15.32,0,0,1,1.05-3.71A6.58,6.58,0,0,1,18.41,8.66Zm-1.47-.21a13.77,13.77,0,0,0-2.16,5.94H10.21A10,10,0,0,1,16.94,8.45ZM9.8,20.65a10,10,0,0,1,0-5h4.82a22.69,22.69,0,0,0-.16,2.51,23,23,0,0,0,.16,2.5Zm.41,1.25h4.57a13.72,13.72,0,0,0,2.16,5.94A10,10,0,0,1,10.21,21.9Zm10.38,5.73a1.64,1.64,0,0,1-1.12.54,1.66,1.66,0,0,1-1.06-.54,6.34,6.34,0,0,1-1.31-2,15.32,15.32,0,0,1-1.05-3.71H23a15.77,15.77,0,0,1-1.06,3.71A6.34,6.34,0,0,1,20.59,27.63Zm1.47.21a13.72,13.72,0,0,0,2.17-5.94H28.8A10.05,10.05,0,0,1,22.06,27.84Zm7.15-7.19H24.39c.08-.8.12-1.68.12-2.5s0-1.7-.12-2.51h4.82a10,10,0,0,1,0,5Z"/></g></g></svg>