<svg xmlns="http://www.w3.org/2000/svg" viewBox="0 0 36.47 36.47"><defs><style>.cls-1{fill:#4070ff;}</style></defs><title>Asset 23</title><g id="Layer_2" data-name="Layer 2"><g id="throw_exception" data-name="throw exception"><path class="cls-1" d="M18.24,0A18.24,18.24,0,1,0,36.47,18.24,18.23,18.23,0,0,0,18.24,0Zm-.87,13a7.54,7.54,0,0,0-6,3.56,16,16,0,0,0-2.66,9.2.87.87,0,0,1-.87.87h0a.87.87,0,0,1-.87-.87,17.75,17.75,0,0,1,3-10.21,9.22,9.22,0,0,1,7.46-4.29.87.87,0,0,1,0,1.74Zm9,0a.68.68,0,0,1,0,1,.7.7,0,0,1-1,0l-1-1-1.05,1a.7.7,0,0,1-1,0,.69.69,0,0,1,0-1l1-1.05-1-1a.69.69,0,0,1,0-1,.68.68,0,0,1,1,0l1.05,1,1-1a.69.69,0,1,1,1,1l-1,1Z"/></g></g></svg>